<svg width="52" height="52" viewBox="0 0 52 52" fill="none" xmlns="http://www.w3.org/2000/svg">
<path d="M49.6294 32.3652L51.1171 30.8778C52.0534 29.9412 52.0534 28.4173 51.1171 27.4807C50.6632 27.0272 50.0602 26.7773 49.4183 26.7773C48.9367 26.7773 48.4765 26.9181 48.0853 27.1803L47.7719 26.1282L49.3822 24.5175C50.3189 23.5808 50.3189 22.057 49.3822 21.1207C48.5201 20.2582 47.1609 20.192 46.2195 20.9176L44.3112 14.5112C45.0733 13.7773 45.8033 13.0631 46.4912 12.3752C48.4737 10.3924 50.0856 8.29407 51.0302 6.46595C52.6262 3.37623 51.9582 1.72465 51.1167 0.883184C50.2756 0.041723 48.624 -0.625971 45.5339 0.970068C43.7062 1.91428 41.6075 3.52619 39.625 5.50904C38.9371 6.19697 38.2226 6.92655 37.4891 7.68867L31.0823 5.7804C31.8079 4.83936 31.7417 3.48017 30.8796 2.61768C29.9429 1.6814 28.4191 1.68101 27.4828 2.61768L25.8721 4.2284L24.8195 3.91498C25.0818 3.52341 25.2226 3.06321 25.2226 2.58158C25.2226 1.94007 24.9727 1.33665 24.5192 0.883184C23.5829 -0.0534918 22.0587 -0.0534918 21.1224 0.883184L19.6351 2.37052L12.054 0.112341C11.7838 0.0322016 11.4918 0.105993 11.2931 0.305151L9.34157 2.25666C9.01387 2.58396 9.05711 3.14374 9.43083 3.41709L28.5587 17.418C24.2459 22.2807 20.0913 27.1494 17.1583 30.6279L11.5319 28.4638C11.249 28.3551 10.9289 28.4229 10.7146 28.6371L8.40172 30.9501C8.10258 31.2496 8.10258 31.7348 8.40172 32.0339L19.966 43.5982C20.2611 43.8937 20.7547 43.8937 21.0502 43.5982L23.3627 41.2856C23.577 41.0714 23.6452 40.7508 23.5361 40.468L21.3724 34.842C24.8509 31.9089 29.7191 27.7544 34.5822 23.4412L36.1017 25.5176C36.3715 25.8862 36.9186 25.9338 37.2494 25.6196C37.5252 25.3578 37.5633 24.9186 37.3391 24.6123L35.7327 22.4176C38.2758 20.1479 40.7871 17.858 43.0655 15.7002L50.2879 39.9463L49.2917 40.9421L39.3652 27.3803C39.1153 27.0387 38.6356 26.9645 38.294 27.2145C37.952 27.4648 37.8779 27.9444 38.1282 28.286L48.5832 42.5694C48.8565 42.9432 49.4163 42.9864 49.7436 42.6587L51.6951 40.7072C51.8943 40.5084 51.9681 40.216 51.8879 39.9463L49.6294 32.3652ZM28.567 3.70194C28.9019 3.3671 29.4609 3.3671 29.7957 3.70194C30.1345 4.04075 30.1345 4.5918 29.7957 4.93061L29.4363 5.29005L27.5427 4.7259L28.567 3.70194ZM22.2067 1.96744C22.5451 1.62864 23.0965 1.62864 23.4354 1.96744C23.7742 2.30625 23.7742 2.85731 23.4354 3.19611L23.1989 3.43217L21.3057 2.86841L22.2067 1.96744ZM11.0578 2.70814L12.054 1.71235L36.3001 8.93439C34.1423 11.2132 31.8523 13.7245 29.5823 16.2675L11.0578 2.70814ZM11.4466 30.0737L16.1141 31.8689C14.9434 33.263 14.0456 34.3417 13.5159 34.98L10.0279 31.492L11.4466 30.0737ZM14.605 36.069C17.2773 32.8448 31.4029 15.8994 40.7093 6.5929C42.5557 4.74613 44.5711 3.19333 46.2377 2.33243C47.489 1.68577 49.1632 1.09781 50.0328 1.96744C50.9025 2.83707 50.3141 4.51127 49.6678 5.76255C48.8069 7.42921 47.2537 9.44419 45.407 11.291C36.1013 20.5966 19.1554 34.7225 15.9312 37.3953L14.605 36.069ZM21.9266 40.5537L20.5083 41.972L17.0202 38.4839C17.6582 37.9547 18.7373 37.0569 20.1314 35.8862L21.9266 40.5537ZM48.8042 28.5649C49.143 28.2261 49.694 28.2261 50.0328 28.5649C50.3716 28.9037 50.3716 29.4548 50.0328 29.7936L49.1319 30.6946L48.5677 28.8014L48.8042 28.5649ZM47.0697 22.2046C47.4081 21.8658 47.9595 21.8662 48.2983 22.2046C48.6332 22.5394 48.6332 23.0984 48.2983 23.4332L47.274 24.4576L46.7098 22.564L47.0697 22.2046Z" fill="#129B46"/>
<path d="M46.0162 44.1501L39.4746 50.6918C39.1957 50.9711 39.177 51.4321 39.4337 51.732C39.7206 52.0668 40.247 52.0879 40.5588 51.776L47.1005 45.2344C47.4 44.9349 47.4 44.4497 47.1005 44.1501C46.8014 43.851 46.3158 43.851 46.0162 44.1501Z" fill="#129B46"/>
<path d="M43.8296 41.9628C44.1292 41.6637 44.1292 41.1781 43.8296 40.8789C43.5305 40.5794 43.0449 40.5794 42.7458 40.8789L38.6571 44.9672C38.3782 45.2465 38.3595 45.7075 38.6162 46.0075C38.903 46.3423 39.4295 46.3633 39.7413 46.0515L43.8296 41.9628Z" fill="#129B46"/>
<path d="M41.3767 37.8753C41.6762 37.5758 41.6762 37.0902 41.3767 36.7911C41.0772 36.4915 40.592 36.4915 40.2925 36.7911L37.4305 39.6531C37.1516 39.932 37.1329 40.3933 37.39 40.6933C37.6764 41.0281 38.2029 41.0491 38.5147 40.7373L41.3767 37.8753Z" fill="#129B46"/>
<path d="M7.85056 5.30833C7.55103 5.0092 7.06544 5.0092 6.76631 5.30833L0.224648 11.8504C-0.0748825 12.1495 -0.0748825 12.6351 0.224648 12.9343C0.519814 13.2294 1.01334 13.2294 1.30891 12.9343L7.85056 6.39259C8.1497 6.09306 8.1497 5.60786 7.85056 5.30833Z" fill="#129B46"/>
<path d="M11.1211 8.58012C10.8216 8.28059 10.3364 8.28059 10.0373 8.58012L5.9486 12.6688C5.6693 12.9477 5.65105 13.4087 5.90773 13.7086C6.19457 14.0435 6.72063 14.0645 7.03246 13.7527L11.1211 9.66438C11.4207 9.36485 11.4207 8.87925 11.1211 8.58012Z" fill="#129B46"/>
<path d="M11.2638 14.9792C11.5593 15.2744 12.0525 15.2744 12.348 14.9792L15.21 12.1172C15.5092 11.8177 15.5092 11.3325 15.21 11.0329C14.9105 10.7338 14.4253 10.7338 14.1258 11.0329L11.2638 13.8949C10.9646 14.1945 10.9646 14.6797 11.2638 14.9792Z" fill="#129B46"/>
</svg>
