<svg width="50" height="50" viewBox="0 0 50 50" fill="none" xmlns="http://www.w3.org/2000/svg">
<path d="M5.96046 28.4269C5.53002 28.6288 5.34012 29.1373 5.53194 29.5718L7.49806 33.7925C7.59465 34.0026 7.77088 34.1662 7.9876 34.247C8.08256 34.2815 8.18326 34.2992 8.2845 34.2992C8.4112 34.3003 8.53625 34.2732 8.65146 34.221L23.5064 27.2825L22.1609 41.3507C22.1349 41.6276 22.2416 41.8999 22.4488 42.0849C23.1 42.624 23.9117 42.931 24.7561 42.9586C24.989 42.9584 25.2205 42.9291 25.4462 42.8716C26.6522 42.5569 27.5872 41.4823 28.2251 39.647L34.0709 22.337L45.6487 16.9364C49.0566 15.3463 50.8129 12.1219 49.6335 9.60526C48.9641 8.28986 47.6821 7.39505 46.2168 7.21965C44.5886 6.97392 42.9246 7.23005 41.4458 7.9541L28.085 14.2191L13.7199 8.60045C11.9108 7.91908 10.478 7.93659 9.47321 8.66202C8.63011 9.35378 8.15042 10.3936 8.17094 11.4841C8.1797 11.7607 8.31898 12.0166 8.54665 12.1748L18.2196 18.8242L12.68 21.4457L3.39096 19.0861C3.01033 18.9925 2.61409 19.1641 2.42118 19.5056L0.105892 23.6735C-0.0142372 23.8943 -0.0331184 24.1564 0.0541734 24.3923C0.140918 24.6285 0.325353 24.8154 0.560411 24.9057L7.43731 27.7458L5.96046 28.4269ZM9.96193 11.0474C10.0134 10.6779 10.2003 10.3416 10.4865 10.1036C10.9848 9.74509 11.8936 9.79763 13.108 10.2519L25.9008 15.2415L20.0634 17.9678L9.96193 11.0474ZM2.09801 23.665L3.61836 20.9649L12.5574 23.1842C12.7501 23.2329 12.9534 23.2146 13.1345 23.1322L42.1887 9.56175C43.3438 8.99203 44.6447 8.78461 45.9199 8.9674C46.8141 9.04977 47.6107 9.56585 48.0521 10.3479C48.7854 11.9211 47.3439 14.2191 44.9057 15.355L34.8395 20.074L35.4514 18.2647C35.606 17.7992 35.3534 17.2962 34.888 17.1419C34.422 16.9876 33.9193 17.2401 33.765 17.7056L26.5734 39.1049C26.1451 40.3199 25.6121 41.0453 25.018 41.2021C24.6499 41.273 24.269 41.2008 23.9519 41.0015L25.6996 22.6511C25.7453 22.1687 25.3915 21.7404 24.9085 21.6948C24.4261 21.6485 23.9978 22.0029 23.9519 22.4853L23.6812 25.2901L8.68621 32.2806L7.45482 29.6591L9.91842 28.506C10.2356 28.3661 10.44 28.0525 10.44 27.7064C10.44 27.36 10.2356 27.0464 9.91842 26.9068L2.09801 23.665Z" fill="#129B46"/>
</svg>
