<svg width="52" height="52" viewBox="0 0 52 52" fill="none" xmlns="http://www.w3.org/2000/svg">
<path d="M0.390818 18.0581L12.1329 25.7511V32.0671V37.949C12.1329 38.0628 12.1553 38.1755 12.1989 38.2807C12.2424 38.3858 12.3063 38.4814 12.3867 38.5618C15.2566 41.4301 18.959 43.3187 22.9657 43.9584C26.9724 44.598 31.0788 43.956 34.6991 42.1239C34.829 43.1888 35.3499 44.1675 36.1606 44.8701L34.7029 49.7293C34.6518 49.8993 34.6542 50.0808 34.7097 50.2494C34.7652 50.4179 34.871 50.5654 35.013 50.6718C36.1654 51.5292 37.5634 51.9922 38.9997 51.9922C40.4361 51.9922 41.8341 51.5292 42.9865 50.6718C43.1284 50.5654 43.2343 50.4179 43.2898 50.2494C43.3452 50.0808 43.3476 49.8993 43.2966 49.7293L41.8391 44.8701C42.3277 44.447 42.7153 43.9198 42.9734 43.3272C43.2315 42.7347 43.3536 42.0919 43.3306 41.4459C43.3077 40.8 43.1403 40.1674 42.8409 39.5947C42.5414 39.0219 42.1174 38.5236 41.6 38.1362V27.7337C41.6 27.6199 41.5776 27.5072 41.534 27.402C41.4905 27.2969 41.4266 27.2013 41.3462 27.1208L39.9332 25.7078L51.6084 18.0585C51.7287 17.9797 51.8275 17.8721 51.8958 17.7456C51.9642 17.619 52 17.4775 52 17.3336C52 17.1898 51.9642 17.0482 51.8958 16.9217C51.8275 16.7951 51.7287 16.6876 51.6084 16.6088L26.4747 0.141869C26.3336 0.0493103 26.1685 0 25.9998 0C25.831 0 25.6659 0.0493103 25.5248 0.141869L14.258 7.52316L15.2079 8.973L25.9998 1.90274L49.5518 17.3335L38.6812 24.4558L30.3055 16.0801C30.0643 14.35 28.2257 13.0001 25.9998 13.0001C23.6103 13.0001 21.6664 14.5553 21.6664 16.4668C21.6664 18.3784 23.6103 19.9336 25.9998 19.9336C26.1639 19.9336 26.3256 19.9255 26.4851 19.9112L34.0585 27.4845L25.9998 32.7643L2.44777 17.3335L13.4751 10.109L12.5252 8.65915L0.391685 16.6087C0.271366 16.6875 0.172562 16.795 0.104183 16.9216C0.0358038 17.0481 0 17.1897 0 17.3336C0 17.4774 0.0358038 17.619 0.104183 17.7456C0.172562 17.8721 0.271366 17.9797 0.391685 18.0585L0.390818 18.0581ZM39 39.0005C39.5142 39.0005 40.0169 39.153 40.4445 39.4387C40.872 39.7244 41.2053 40.1305 41.4021 40.6055C41.5989 41.0806 41.6504 41.6034 41.55 42.1078C41.4497 42.6121 41.2021 43.0754 40.8385 43.439C40.4748 43.8027 40.0116 44.0503 39.5072 44.1506C39.0028 44.2509 38.4801 44.1994 38.005 44.0027C37.5299 43.8059 37.1238 43.4726 36.8381 43.045C36.5524 42.6175 36.3999 42.1148 36.3999 41.6005C36.4007 40.9112 36.6749 40.2503 37.1623 39.7629C37.6498 39.2755 38.3106 39.0013 39 39.0005ZM41.4517 49.611C40.7048 50.0369 39.8598 50.2609 39 50.2609C38.1401 50.2609 37.2952 50.0369 36.5482 49.611L37.7108 45.7378C38.5507 45.9992 39.4503 45.9992 40.2902 45.7378L41.4517 49.611ZM23.3997 16.4668C23.3997 15.5273 24.5903 14.7335 25.9998 14.7335C27.4092 14.7335 28.5998 15.5273 28.5998 16.4668C28.5998 17.4064 27.4092 18.2002 25.9998 18.2002C24.5903 18.2002 23.3997 17.4064 23.3997 16.4668ZM29.8415 18.0677L39.8666 28.0926V37.3543C39.2947 37.2381 38.7052 37.2381 38.1333 37.3543V29.467C38.1333 29.3532 38.1109 29.2405 38.0673 29.1354C38.0238 29.0302 37.9599 28.9347 37.8794 28.8542L28.3847 19.3594C28.9714 19.0585 29.4726 18.6142 29.8415 18.0677ZM25.9998 34.6671C26.1685 34.6671 26.3336 34.6178 26.4747 34.5253L35.3104 28.7364L36.3999 29.8259V34.7128C33.861 36.5852 30.8639 37.7379 27.7246 38.0494C24.5853 38.3608 21.4201 37.8194 18.5628 36.4824L17.8272 38.0519C20.7753 39.4314 24.0248 40.0417 27.2725 39.8258C30.5203 39.6099 33.6604 38.5748 36.3999 36.8172V38.1362C35.7639 38.6148 35.2711 39.2585 34.9752 39.9974C31.6976 41.9443 27.8765 42.7745 24.0866 42.3631C20.2419 41.9562 16.6441 40.2742 13.8663 37.5852V35.5609C14.5474 36.1163 15.2659 36.6244 16.0166 37.0813L16.9158 35.5998C15.8164 34.931 14.7938 34.1436 13.8663 33.2516V26.8868L25.5248 34.5253C25.6659 34.6179 25.831 34.6672 25.9998 34.6671Z" fill="#129B46"/>
</svg>
