<svg width="50" height="50" viewBox="0 0 50 50" fill="none" xmlns="http://www.w3.org/2000/svg">
<path d="M12.9883 8.10547C12.4492 8.10547 12.0117 8.54297 12.0117 9.08203C12.0117 9.62109 12.4492 10.0586 12.9883 10.0586C13.5273 10.0586 13.9648 9.62109 13.9648 9.08203C13.9648 8.54297 13.5273 8.10547 12.9883 8.10547Z" fill="#129B46"/>
<path d="M25 0C11.5254 0 0 11.504 0 25C0 38.4776 11.5054 50 25 50C38.4746 50 50 38.496 50 25C50 11.5224 38.4946 0 25 0ZM25 48.0469C12.5073 48.0469 1.95312 37.4927 1.95312 25C1.95312 12.5073 12.5073 1.95312 25 1.95312C37.4927 1.95312 48.0469 12.5073 48.0469 25C48.0469 37.4927 37.4927 48.0469 25 48.0469Z" fill="#129B46"/>
<path d="M25 4.19922C21.8687 4.19922 18.5562 4.92188 15.9119 6.18193C15.4251 6.41396 15.2184 6.99678 15.4504 7.48359C15.6823 7.97041 16.2649 8.17734 16.7521 7.94512C19.143 6.80576 22.1493 6.15234 25 6.15234C35.2165 6.15234 43.8477 14.7835 43.8477 25C43.8477 35.2165 35.2165 43.8477 25 43.8477C14.7835 43.8477 6.15234 35.2165 6.15234 25C6.15234 20.3334 7.86436 15.7339 10.8495 12.3808C11.2082 11.9779 11.1724 11.3606 10.7695 11.0021C10.3666 10.6433 9.74951 10.6795 9.39082 11.082C6.09141 14.7881 4.19922 19.8609 4.19922 25C4.19922 36.3016 13.6819 45.8008 25 45.8008C36.3016 45.8008 45.8008 36.3181 45.8008 25C45.8008 13.6984 36.3181 4.19922 25 4.19922Z" fill="#129B46"/>
<path d="M36.7188 20.1172H29.8828V13.2812C29.8828 12.742 29.4455 12.3047 28.9062 12.3047H21.0938C20.5545 12.3047 20.1172 12.742 20.1172 13.2812V20.1172H13.2812C12.742 20.1172 12.3047 20.5545 12.3047 21.0938V28.9062C12.3047 29.4455 12.742 29.8828 13.2812 29.8828H20.1172V36.7188C20.1172 37.258 20.5545 37.6953 21.0938 37.6953H28.9062C29.4455 37.6953 29.8828 37.258 29.8828 36.7188V29.8828H36.7188C37.258 29.8828 37.6953 29.4455 37.6953 28.9062V21.0938C37.6953 20.5545 37.258 20.1172 36.7188 20.1172ZM35.7422 27.9297H28.9062C28.367 27.9297 27.9297 28.367 27.9297 28.9062V35.7422H22.0703V28.9062C22.0703 28.367 21.633 27.9297 21.0938 27.9297H14.2578V22.0703H21.0938C21.633 22.0703 22.0703 21.633 22.0703 21.0938V14.2578H27.9297V21.0938C27.9297 21.633 28.367 22.0703 28.9062 22.0703H35.7422V27.9297Z" fill="#129B46"/>
</svg>
