<svg width="141" height="38" viewBox="0 0 141 38" fill="none" xmlns="http://www.w3.org/2000/svg">
<path d="M48.1718 7.6H50.1158V14.416H54.3278V16H48.1718V7.6ZM57.9563 9.448C58.9563 9.448 59.7243 9.688 60.2603 10.168C60.7963 10.64 61.0643 11.356 61.0643 12.316V16H59.3123V15.196C58.9603 15.796 58.3043 16.096 57.3443 16.096C56.8483 16.096 56.4163 16.012 56.0483 15.844C55.6883 15.676 55.4123 15.444 55.2203 15.148C55.0283 14.852 54.9323 14.516 54.9323 14.14C54.9323 13.54 55.1563 13.068 55.6043 12.724C56.0603 12.38 56.7603 12.208 57.7043 12.208H59.1923C59.1923 11.8 59.0683 11.488 58.8203 11.272C58.5723 11.048 58.2003 10.936 57.7043 10.936C57.3603 10.936 57.0203 10.992 56.6843 11.104C56.3563 11.208 56.0763 11.352 55.8443 11.536L55.1723 10.228C55.5243 9.98 55.9443 9.788 56.4323 9.652C56.9283 9.516 57.4363 9.448 57.9563 9.448ZM57.8123 14.836C58.1323 14.836 58.4163 14.764 58.6643 14.62C58.9123 14.468 59.0883 14.248 59.1923 13.96V13.3H57.9083C57.1403 13.3 56.7563 13.552 56.7563 14.056C56.7563 14.296 56.8483 14.488 57.0323 14.632C57.2243 14.768 57.4843 14.836 57.8123 14.836ZM69.4888 9.544V14.92C69.4888 16.104 69.1808 16.984 68.5648 17.56C67.9488 18.136 67.0488 18.424 65.8648 18.424C65.2408 18.424 64.6488 18.348 64.0888 18.196C63.5288 18.044 63.0648 17.824 62.6968 17.536L63.4408 16.192C63.7128 16.416 64.0568 16.592 64.4728 16.72C64.8888 16.856 65.3048 16.924 65.7208 16.924C66.3688 16.924 66.8448 16.776 67.1488 16.48C67.4608 16.192 67.6168 15.752 67.6168 15.16V14.884C67.1288 15.42 66.4488 15.688 65.5768 15.688C64.9848 15.688 64.4408 15.56 63.9448 15.304C63.4568 15.04 63.0688 14.672 62.7808 14.2C62.4928 13.728 62.3488 13.184 62.3488 12.568C62.3488 11.952 62.4928 11.408 62.7808 10.936C63.0688 10.464 63.4568 10.1 63.9448 9.844C64.4408 9.58 64.9848 9.448 65.5768 9.448C66.5128 9.448 67.2248 9.756 67.7128 10.372V9.544H69.4888ZM65.9488 14.152C66.4448 14.152 66.8488 14.008 67.1608 13.72C67.4808 13.424 67.6408 13.04 67.6408 12.568C67.6408 12.096 67.4808 11.716 67.1608 11.428C66.8488 11.132 66.4448 10.984 65.9488 10.984C65.4528 10.984 65.0448 11.132 64.7248 11.428C64.4048 11.716 64.2448 12.096 64.2448 12.568C64.2448 13.04 64.4048 13.424 64.7248 13.72C65.0448 14.008 65.4528 14.152 65.9488 14.152ZM77.7352 9.544V16H75.9592V15.232C75.7112 15.512 75.4152 15.728 75.0712 15.88C74.7272 16.024 74.3552 16.096 73.9552 16.096C73.1072 16.096 72.4352 15.852 71.9392 15.364C71.4432 14.876 71.1952 14.152 71.1952 13.192V9.544H73.0672V12.916C73.0672 13.956 73.5032 14.476 74.3752 14.476C74.8232 14.476 75.1832 14.332 75.4552 14.044C75.7272 13.748 75.8632 13.312 75.8632 12.736V9.544H77.7352ZM83.3935 9.448C84.1935 9.448 84.8375 9.688 85.3255 10.168C85.8215 10.648 86.0695 11.36 86.0695 12.304V16H84.1975V12.592C84.1975 12.08 84.0855 11.7 83.8615 11.452C83.6375 11.196 83.3135 11.068 82.8895 11.068C82.4175 11.068 82.0415 11.216 81.7615 11.512C81.4815 11.8 81.3415 12.232 81.3415 12.808V16H79.4695V9.544H81.2575V10.3C81.5055 10.028 81.8135 9.82 82.1815 9.676C82.5495 9.524 82.9535 9.448 83.3935 9.448ZM90.3703 9.448C91.3703 9.448 92.1383 9.688 92.6743 10.168C93.2103 10.64 93.4783 11.356 93.4783 12.316V16H91.7263V15.196C91.3743 15.796 90.7183 16.096 89.7583 16.096C89.2623 16.096 88.8303 16.012 88.4623 15.844C88.1023 15.676 87.8263 15.444 87.6343 15.148C87.4423 14.852 87.3463 14.516 87.3463 14.14C87.3463 13.54 87.5703 13.068 88.0183 12.724C88.4743 12.38 89.1743 12.208 90.1183 12.208H91.6063C91.6063 11.8 91.4823 11.488 91.2343 11.272C90.9863 11.048 90.6143 10.936 90.1183 10.936C89.7743 10.936 89.4343 10.992 89.0983 11.104C88.7703 11.208 88.4903 11.352 88.2583 11.536L87.5863 10.228C87.9383 9.98 88.3583 9.788 88.8463 9.652C89.3423 9.516 89.8503 9.448 90.3703 9.448ZM90.2263 14.836C90.5463 14.836 90.8303 14.764 91.0783 14.62C91.3263 14.468 91.5023 14.248 91.6063 13.96V13.3H90.3223C89.5543 13.3 89.1703 13.552 89.1703 14.056C89.1703 14.296 89.2623 14.488 89.4463 14.632C89.6383 14.768 89.8983 14.836 90.2263 14.836ZM48.1718 22.6H50.1158V31H48.1718V22.6ZM55.9013 24.448C56.7013 24.448 57.3453 24.688 57.8333 25.168C58.3293 25.648 58.5773 26.36 58.5773 27.304V31H56.7053V27.592C56.7053 27.08 56.5933 26.7 56.3693 26.452C56.1453 26.196 55.8213 26.068 55.3973 26.068C54.9253 26.068 54.5493 26.216 54.2693 26.512C53.9893 26.8 53.8493 27.232 53.8493 27.808V31H51.9773V24.544H53.7653V25.3C54.0133 25.028 54.3213 24.82 54.6893 24.676C55.0573 24.524 55.4613 24.448 55.9013 24.448ZM66.9205 22.096V31H65.1325V30.256C64.6685 30.816 63.9965 31.096 63.1165 31.096C62.5085 31.096 61.9565 30.96 61.4605 30.688C60.9725 30.416 60.5885 30.028 60.3085 29.524C60.0285 29.02 59.8885 28.436 59.8885 27.772C59.8885 27.108 60.0285 26.524 60.3085 26.02C60.5885 25.516 60.9725 25.128 61.4605 24.856C61.9565 24.584 62.5085 24.448 63.1165 24.448C63.9405 24.448 64.5845 24.708 65.0485 25.228V22.096H66.9205ZM63.4405 29.56C63.9125 29.56 64.3045 29.4 64.6165 29.08C64.9285 28.752 65.0845 28.316 65.0845 27.772C65.0845 27.228 64.9285 26.796 64.6165 26.476C64.3045 26.148 63.9125 25.984 63.4405 25.984C62.9605 25.984 62.5645 26.148 62.2525 26.476C61.9405 26.796 61.7845 27.228 61.7845 27.772C61.7845 28.316 61.9405 28.752 62.2525 29.08C62.5645 29.4 62.9605 29.56 63.4405 29.56ZM75.1571 24.544V31H73.3811V30.232C73.1331 30.512 72.8371 30.728 72.4931 30.88C72.1491 31.024 71.7771 31.096 71.3771 31.096C70.5291 31.096 69.8571 30.852 69.3611 30.364C68.8651 29.876 68.6171 29.152 68.6171 28.192V24.544H70.4891V27.916C70.4891 28.956 70.9251 29.476 71.7971 29.476C72.2451 29.476 72.6051 29.332 72.8771 29.044C73.1491 28.748 73.2851 28.312 73.2851 27.736V24.544H75.1571ZM79.0633 31.096C78.5273 31.096 78.0033 31.032 77.4913 30.904C76.9793 30.768 76.5713 30.6 76.2673 30.4L76.8913 29.056C77.1793 29.24 77.5273 29.392 77.9353 29.512C78.3433 29.624 78.7433 29.68 79.1353 29.68C79.9273 29.68 80.3233 29.484 80.3233 29.092C80.3233 28.908 80.2153 28.776 79.9993 28.696C79.7833 28.616 79.4513 28.548 79.0033 28.492C78.4753 28.412 78.0393 28.32 77.6953 28.216C77.3513 28.112 77.0513 27.928 76.7953 27.664C76.5473 27.4 76.4233 27.024 76.4233 26.536C76.4233 26.128 76.5393 25.768 76.7713 25.456C77.0113 25.136 77.3553 24.888 77.8033 24.712C78.2593 24.536 78.7953 24.448 79.4113 24.448C79.8673 24.448 80.3193 24.5 80.7673 24.604C81.2233 24.7 81.5993 24.836 81.8953 25.012L81.2713 26.344C80.7033 26.024 80.0833 25.864 79.4113 25.864C79.0113 25.864 78.7113 25.92 78.5113 26.032C78.3113 26.144 78.2113 26.288 78.2113 26.464C78.2113 26.664 78.3193 26.804 78.5353 26.884C78.7513 26.964 79.0953 27.04 79.5673 27.112C80.0953 27.2 80.5273 27.296 80.8633 27.4C81.1993 27.496 81.4913 27.676 81.7393 27.94C81.9873 28.204 82.1113 28.572 82.1113 29.044C82.1113 29.444 81.9913 29.8 81.7513 30.112C81.5113 30.424 81.1593 30.668 80.6953 30.844C80.2393 31.012 79.6953 31.096 79.0633 31.096ZM87.4303 30.688C87.2463 30.824 87.0183 30.928 86.7463 31C86.4823 31.064 86.2023 31.096 85.9063 31.096C85.1383 31.096 84.5423 30.9 84.1183 30.508C83.7023 30.116 83.4943 29.54 83.4943 28.78V26.128H82.4983V24.688H83.4943V23.116H85.3663V24.688H86.9743V26.128H85.3663V28.756C85.3663 29.028 85.4343 29.24 85.5703 29.392C85.7143 29.536 85.9143 29.608 86.1703 29.608C86.4663 29.608 86.7183 29.528 86.9263 29.368L87.4303 30.688ZM90.2692 25.396C90.4932 25.084 90.7932 24.848 91.1692 24.688C91.5532 24.528 91.9932 24.448 92.4892 24.448V26.176C92.2812 26.16 92.1412 26.152 92.0692 26.152C91.5332 26.152 91.1132 26.304 90.8092 26.608C90.5052 26.904 90.3532 27.352 90.3532 27.952V31H88.4812V24.544H90.2692V25.396ZM93.6023 24.544H95.4743V31H93.6023V24.544ZM94.5383 23.644C94.1943 23.644 93.9143 23.544 93.6983 23.344C93.4823 23.144 93.3743 22.896 93.3743 22.6C93.3743 22.304 93.4823 22.056 93.6983 21.856C93.9143 21.656 94.1943 21.556 94.5383 21.556C94.8823 21.556 95.1623 21.652 95.3783 21.844C95.5943 22.036 95.7023 22.276 95.7023 22.564C95.7023 22.876 95.5943 23.136 95.3783 23.344C95.1623 23.544 94.8823 23.644 94.5383 23.644ZM99.8157 24.448C100.816 24.448 101.584 24.688 102.12 25.168C102.656 25.64 102.924 26.356 102.924 27.316V31H101.172V30.196C100.82 30.796 100.164 31.096 99.2037 31.096C98.7077 31.096 98.2757 31.012 97.9077 30.844C97.5477 30.676 97.2717 30.444 97.0797 30.148C96.8877 29.852 96.7917 29.516 96.7917 29.14C96.7917 28.54 97.0157 28.068 97.4637 27.724C97.9197 27.38 98.6197 27.208 99.5637 27.208H101.052C101.052 26.8 100.928 26.488 100.68 26.272C100.432 26.048 100.06 25.936 99.5637 25.936C99.2197 25.936 98.8797 25.992 98.5437 26.104C98.2157 26.208 97.9357 26.352 97.7037 26.536L97.0317 25.228C97.3837 24.98 97.8037 24.788 98.2917 24.652C98.7877 24.516 99.2957 24.448 99.8157 24.448ZM99.6717 29.836C99.9917 29.836 100.276 29.764 100.524 29.62C100.772 29.468 100.948 29.248 101.052 28.96V28.3H99.7677C98.9997 28.3 98.6157 28.552 98.6157 29.056C98.6157 29.296 98.7077 29.488 98.8917 29.632C99.0837 29.768 99.3437 29.836 99.6717 29.836ZM104.618 22.096H106.49V31H104.618V22.096ZM115.394 22.6C116.138 22.6 116.782 22.724 117.326 22.972C117.878 23.22 118.302 23.572 118.598 24.028C118.894 24.484 119.042 25.024 119.042 25.648C119.042 26.264 118.894 26.804 118.598 27.268C118.302 27.724 117.878 28.076 117.326 28.324C116.782 28.564 116.138 28.684 115.394 28.684H113.702V31H111.758V22.6H115.394ZM115.286 27.1C115.87 27.1 116.314 26.976 116.618 26.728C116.922 26.472 117.074 26.112 117.074 25.648C117.074 25.176 116.922 24.816 116.618 24.568C116.314 24.312 115.87 24.184 115.286 24.184H113.702V27.1H115.286ZM122.843 24.448C123.843 24.448 124.611 24.688 125.147 25.168C125.683 25.64 125.951 26.356 125.951 27.316V31H124.199V30.196C123.847 30.796 123.191 31.096 122.231 31.096C121.735 31.096 121.303 31.012 120.935 30.844C120.575 30.676 120.299 30.444 120.107 30.148C119.915 29.852 119.819 29.516 119.819 29.14C119.819 28.54 120.043 28.068 120.491 27.724C120.947 27.38 121.647 27.208 122.591 27.208H124.079C124.079 26.8 123.955 26.488 123.707 26.272C123.459 26.048 123.087 25.936 122.591 25.936C122.247 25.936 121.907 25.992 121.571 26.104C121.243 26.208 120.963 26.352 120.731 26.536L120.059 25.228C120.411 24.98 120.831 24.788 121.319 24.652C121.815 24.516 122.323 24.448 122.843 24.448ZM122.699 29.836C123.019 29.836 123.303 29.764 123.551 29.62C123.799 29.468 123.975 29.248 124.079 28.96V28.3H122.795C122.027 28.3 121.643 28.552 121.643 29.056C121.643 29.296 121.735 29.488 121.919 29.632C122.111 29.768 122.371 29.836 122.699 29.836ZM129.433 25.396C129.657 25.084 129.957 24.848 130.333 24.688C130.717 24.528 131.157 24.448 131.653 24.448V26.176C131.445 26.16 131.305 26.152 131.233 26.152C130.697 26.152 130.277 26.304 129.973 26.608C129.669 26.904 129.517 27.352 129.517 27.952V31H127.645V24.544H129.433V25.396ZM135.538 28.468L134.638 29.356V31H132.766V22.096H134.638V27.136L137.374 24.544H139.606L136.918 27.28L139.846 31H137.578L135.538 28.468Z" fill="#00394C"/>
<path d="M27.3232 25.3335L27.2891 25.3015V22.9159L30.625 23.6253L27.3232 25.3335ZM31.738 23.0495L27.2891 22.1035V19.1105L35.8381 20.9284L31.738 23.0496V23.0495ZM36.9514 20.3526L27.2891 18.298V15.3643L41.1845 18.1624L36.9514 20.3526Z" fill="#139B47"/>
<path d="M13.8955 38.0004V22.1895L17.6917 22.9011V34.4181L13.8955 38.0004ZM18.7661 33.4042V23.1026L22.8488 23.8678V29.5514L18.7661 33.4042ZM23.9231 28.5377V24.0694L26.4932 24.551L27.3205 25.3315L23.9231 28.5376V28.5377Z" fill="#00394C"/>
<path d="M27.2893 25.3331L23.9229 22.1576V3.17673L27.2893 0V25.3331ZM22.7769 21.0765L18.7658 17.2928V8.04327L22.7769 4.25821V21.0762V21.0765ZM17.6914 16.279L13.8643 12.6687L17.6914 9.05712V16.279Z" fill="#00394C"/>
<path d="M27.2895 25.3336L0 19.8381L3.8234 17.8602L23.8903 22.1273L27.2895 25.3336ZM22.7784 21.0784L4.93632 17.2843L8.94609 15.2099L18.7722 17.2993L22.7781 21.0781L22.7784 21.0784ZM17.6602 16.2506L10.0594 14.6343L13.8614 12.667L17.66 16.2502L17.6602 16.2506Z" fill="#139B47"/>
</svg>
