<svg width="101" height="100" viewBox="0 0 101 100" fill="none" xmlns="http://www.w3.org/2000/svg">
<path d="M88.7685 70.6376C88.2183 70.4096 87.585 70.5356 87.1637 70.9566L71.0719 87.0485C70.6508 87.4697 70.5248 88.103 70.7529 88.6532C70.9806 89.2036 71.5178 89.5622 72.1133 89.5622H88.2051C89.0185 89.5622 89.6776 88.903 89.6776 88.0897V71.9979C89.6774 71.4024 89.3187 70.8655 88.7685 70.6376ZM75.6677 86.6174L86.7322 75.5528V86.6174H75.6677Z" fill="#B8D1E6"/>
<path d="M99.4128 47.035C98.8626 46.8069 98.2293 46.9329 97.808 47.354L93.398 51.7641V21.779C93.398 20.9657 92.7386 20.3065 91.9255 20.3065H80.6116L84.7186 16.1996C84.7192 16.199 84.7197 16.1982 84.7203 16.1976L88.6776 12.2404C89.5254 11.3926 89.9923 10.2648 89.9923 9.0656C89.9923 7.86644 89.5254 6.739 88.6776 5.89077L84.1015 1.31476C83.2537 0.466927 82.1259 0 80.9267 0C79.7276 0 78.5999 0.466927 77.7519 1.31476L73.7927 5.27394L69.0086 10.058L58.7603 20.3063H13.0536V5.73911C13.0536 4.92576 12.3942 4.26661 11.5811 4.26661C5.19537 4.267 0 9.46199 0 15.8481V78.3897C0 78.4984 0.0125402 78.6042 0.0348775 78.7061C0.238264 81.4158 1.41058 83.9334 3.36979 85.8446C5.46401 87.8871 8.22854 89.012 11.1543 89.012H56.1498L47.6756 97.4863C47.2545 97.9075 47.1285 98.5406 47.3564 99.091C47.5842 99.6412 48.1213 100 48.7168 100H98.8492C99.6624 100 100.322 99.3409 100.322 98.5275V48.3954C100.322 47.8 99.9628 47.2629 99.4128 47.035ZM79.8347 3.39742C80.4367 2.7951 81.4174 2.7951 82.0193 3.39742L86.5955 7.97362C87.1978 8.57574 87.1978 9.55604 86.5955 10.1584L83.6777 13.0763L76.9166 6.31537L79.8347 3.39742ZM74.8341 8.39783L81.5951 15.1586L78.8932 17.8604L72.1327 11.0997L74.8341 8.39783ZM97.3771 64.9411H94.6604C93.8471 64.9411 93.1879 65.6002 93.1879 66.4136C93.1879 67.2269 93.8471 67.8861 94.6604 67.8861H97.3771V72.3233H94.6604C93.8471 72.3233 93.1879 72.9825 93.1879 73.7958C93.1879 74.6092 93.8471 75.2683 94.6604 75.2683H97.3771V79.7054H94.6604C93.8471 79.7054 93.1879 80.3646 93.1879 81.1779C93.1879 81.9913 93.8471 82.6504 94.6604 82.6504H97.3771V87.0877H94.6604C93.8471 87.0877 93.1879 87.747 93.1879 88.5602C93.1879 89.3735 93.8471 90.0327 94.6604 90.0327H97.3771V97.0556H52.2715L67.145 82.1823C67.7201 81.607 67.7201 80.6749 67.145 80.0998C67.079 80.0338 67.0081 79.9766 66.9338 79.9257C66.3605 79.533 65.5716 79.5908 65.0624 80.0998L59.0948 86.0674H11.1545C6.68864 86.0674 3.09351 82.5808 2.95205 78.123C2.96047 77.8432 2.98222 77.5657 3.0171 77.2914C3.01729 77.2899 3.01749 77.2883 3.01769 77.2867C3.03414 77.1564 3.05393 77.0267 3.07647 76.8978C3.07902 76.8831 3.08176 76.8684 3.08431 76.8537C3.10488 76.7387 3.128 76.6242 3.15328 76.5102C3.16033 76.4785 3.16778 76.4467 3.17522 76.4152C3.19756 76.3188 3.22166 76.223 3.24752 76.1275C3.26163 76.0758 3.27633 76.0247 3.29141 75.9731C3.31297 75.8983 3.33531 75.8236 3.35901 75.7498C3.38272 75.6759 3.408 75.6028 3.43367 75.5297C3.4515 75.4786 3.46913 75.4274 3.48834 75.3767C3.52419 75.2803 3.56221 75.1849 3.60139 75.0902C3.61256 75.063 3.62353 75.0354 3.6351 75.0081C3.68545 74.8906 3.73777 74.7744 3.79302 74.6596C3.79537 74.6547 3.79753 74.6497 3.79988 74.6449C4.95162 72.2614 7.16673 70.4844 9.82506 69.9331C9.83251 69.9315 9.83996 69.9297 9.8474 69.9282C9.96928 69.9033 10.0923 69.8819 10.2162 69.8621C10.2367 69.8588 10.2573 69.8547 10.2783 69.8515C10.3902 69.8345 10.5032 69.8212 10.6163 69.8084C10.648 69.8049 10.6796 69.8 10.7115 69.7969C10.8206 69.7859 10.9308 69.7787 11.0409 69.7718C11.0758 69.7696 11.1106 69.7659 11.1455 69.7642C11.2897 69.7569 11.4351 69.7532 11.5811 69.7532C12.3942 69.7532 13.0536 69.094 13.0536 68.2807V57.6041C13.0536 56.7907 12.3942 56.1316 11.5811 56.1316C10.7679 56.1316 10.1086 56.7907 10.1086 57.6041V66.9009C7.6221 67.2154 5.31411 68.3244 3.49421 70.1016C3.30278 70.2885 3.12134 70.4829 2.9446 70.6804V15.8481C2.9446 11.5881 6.04556 8.03828 10.1084 7.3372V21.779V51.7143V51.7145C10.1084 52.5276 10.7677 53.187 11.5809 53.187C12.394 53.187 13.0534 52.5276 13.0534 51.7145V51.7143V23.2515H55.8155L47.6754 31.3917C47.1003 31.967 47.1003 32.8991 47.6754 33.4741C48.2504 34.049 49.1827 34.049 49.7576 33.4741L60.4115 22.8203C60.4119 22.8199 60.4121 22.8195 60.4125 22.8193L70.0498 13.1819L76.8104 19.9429L76.0172 20.736C76.0166 20.7366 76.0159 20.7372 76.0153 20.7378L46.3247 50.4287L39.564 43.668L45.4164 37.8156C45.9914 37.2403 45.9914 36.3082 45.4164 35.7332C44.8413 35.1583 43.909 35.1583 43.3341 35.7332L36.4403 42.6267C36.4035 42.6636 36.369 42.7026 36.3367 42.7425C36.3259 42.7559 36.3163 42.7702 36.3061 42.7841C36.2853 42.8117 36.2649 42.8395 36.2459 42.8685C36.2351 42.8854 36.2254 42.9026 36.2152 42.9201C36.1989 42.9475 36.1832 42.9753 36.1689 43.0037C36.1595 43.0222 36.1511 43.0408 36.1425 43.06C36.1293 43.0888 36.1172 43.1182 36.106 43.1476C36.1021 43.1579 36.097 43.1677 36.0933 43.1781L33.2245 51.3048L31.2686 56.8458C31.2428 56.9195 31.2242 56.9943 31.2102 57.0697H26.3133C25.5001 57.0697 24.8408 57.7289 24.8408 58.5422C24.8408 59.3556 25.5001 60.0147 26.3133 60.0147H67.0913C67.9047 60.0147 68.5638 59.3556 68.5638 58.5422C68.5638 57.7289 67.9047 57.0697 67.0913 57.0697H37.8348L46.8148 53.8998C46.8222 53.8971 46.8293 53.8933 46.8367 53.8906C46.8716 53.8777 46.9059 53.8632 46.9398 53.8477C46.9533 53.8414 46.9668 53.8355 46.98 53.8291C47.0152 53.8114 47.0499 53.792 47.084 53.7713C47.095 53.7646 47.1063 53.7585 47.1171 53.7517C47.1526 53.7289 47.1871 53.7041 47.221 53.6778C47.2294 53.6713 47.2382 53.6657 47.2464 53.659C47.2874 53.6261 47.3276 53.5906 47.3656 53.5526L77.6667 23.2517H90.4528V54.7092L69.3899 75.7723C68.8148 76.3476 68.8148 77.2797 69.3899 77.8548C69.4258 77.8906 69.4632 77.9243 69.5018 77.9559C69.7718 78.1759 70.1016 78.286 70.4311 78.286C70.7607 78.286 71.0907 78.1759 71.3605 77.9559C71.3991 77.9245 71.4365 77.8906 71.4724 77.8548C71.473 77.8542 71.4724 77.8548 71.473 77.8542L97.3771 51.9498V64.9411ZM43.6315 51.9L39.4137 53.389L36.6035 50.5788L38.0925 46.361L43.6315 51.9Z" fill="#B8D1E6"/>
</svg>
