<svg width="52" height="52" viewBox="0 0 52 52" fill="none" xmlns="http://www.w3.org/2000/svg">
<path d="M49.6637 24.3933C50.7847 22.6866 51.3729 20.7195 51.3729 18.6512C51.3729 15.9051 50.3196 13.308 48.4071 11.3383C46.808 9.6914 44.7532 8.63088 42.5202 8.27948C42.6176 7.81666 42.6666 7.34317 42.6666 6.86248C42.6667 3.07856 39.5881 0 35.8041 0C32.02 0 28.9416 3.07856 28.9416 6.86248C28.9416 7.67284 29.0816 8.46381 29.3533 9.20898C24.0923 9.51742 19.9062 13.8953 19.9062 19.2323C19.9062 21.7211 20.7992 24.0569 22.4371 25.8946C21.7065 27.1942 21.3238 28.6534 21.3238 30.1607C21.3238 34.9749 25.2403 38.8914 30.0546 38.8914C32.1714 38.8914 34.187 38.1171 35.75 36.7728V49.9688H24.9844V46.208C26.1809 45.6649 27.0156 44.4597 27.0156 43.0625C27.0156 41.1584 25.4666 39.6094 23.5625 39.6094H3.45312C1.54903 39.6094 0 41.1584 0 43.0625C0 44.4598 0.834742 45.665 2.03125 46.208V50.9844C2.03125 51.5453 2.48605 52 3.04688 52H7.10938C7.6702 52 8.125 51.5453 8.125 50.9844V46.5156H18.8906V49.9688H17.9258C17.365 49.9688 16.9102 50.4234 16.9102 50.9844C16.9102 51.5453 17.365 52 17.9258 52H41.3359C41.8968 52 42.3516 51.5453 42.3516 50.9844C42.3516 50.4234 41.8968 49.9688 41.3359 49.9688H37.7812V36.8059C39.3201 38.1297 41.3037 38.8915 43.3943 38.8915C48.1396 38.8915 52 35.031 52 30.2858C52 28.0829 51.1582 25.9823 49.6637 24.3933ZM6.09375 49.9688H4.0625V46.5156H6.09375V49.9688ZM22.9531 49.9688H20.9219V46.5156H22.9531V49.9688ZM23.5625 44.4844H19.9062H7.10938H3.45312C2.66906 44.4844 2.03125 43.8466 2.03125 43.0625C2.03125 42.2784 2.66906 41.6406 3.45312 41.6406H23.5625C24.3466 41.6406 24.9844 42.2784 24.9844 43.0625C24.9844 43.8466 24.3466 44.4844 23.5625 44.4844ZM43.3943 36.8603C41.0997 36.8603 38.9732 35.6585 37.7812 33.7072V28.9759C37.7896 28.9682 37.7982 28.9613 37.8063 28.9532L43.5783 23.1812C43.9749 22.7846 43.9749 22.1415 43.5783 21.7448C43.1817 21.3483 42.5388 21.3482 42.1419 21.7448L37.7812 26.1056V16.6294C37.7812 16.0685 37.3265 15.6138 36.7656 15.6138C36.2048 15.6138 35.75 16.0685 35.75 16.6294V19.265L34.9408 18.4557C34.5443 18.0591 33.9014 18.0591 33.5044 18.4557C33.1077 18.8523 33.1077 19.4954 33.5044 19.892L35.75 22.1376V28.6513L32.9713 25.8726C32.9703 25.8717 32.9694 25.8707 32.9685 25.8698L30.514 23.4153C30.1173 23.0187 29.4745 23.0187 29.0777 23.4153C28.681 23.8119 28.681 24.455 29.0777 24.8516L30.5863 26.3601L27.829 27.8673C27.3369 28.1364 27.156 28.7535 27.425 29.2456C27.6095 29.5832 27.9577 29.7744 28.317 29.7744C28.4817 29.7744 28.6487 29.7342 28.8033 29.6496L32.083 27.8569L35.75 31.524V33.6856C34.5312 35.65 32.372 36.8602 30.0546 36.8602C26.3604 36.8602 23.355 33.8548 23.355 30.1607C23.355 28.7872 23.7691 27.4661 24.5523 26.3403C24.8383 25.9294 24.7822 25.3712 24.4199 25.0255C22.8192 23.4978 21.9375 21.4404 21.9375 19.2323C21.9375 14.8159 25.5305 11.223 29.9468 11.223C30.2667 11.223 30.5903 11.2437 30.9358 11.2862C31.3371 11.3354 31.7285 11.1428 31.934 10.7954C32.1396 10.4478 32.1199 10.0116 31.8836 9.68419C31.2878 8.85798 30.9727 7.88227 30.9727 6.86268C30.9727 4.1987 33.14 2.03145 35.804 2.03145C38.4679 2.03145 40.6353 4.1987 40.6353 6.86268C40.6353 7.52446 40.5034 8.16603 40.2436 8.76982C40.1108 9.07847 40.1392 9.43272 40.3194 9.71618C40.4996 9.99964 40.8083 10.1757 41.1442 10.1864C45.7408 10.333 49.3415 14.0512 49.3415 18.6512C49.3415 20.5701 48.7136 22.3809 47.526 23.8883C47.1887 24.3164 47.2493 24.9344 47.6635 25.2887C49.1286 26.5416 49.9688 28.3631 49.9688 30.2857C49.9688 33.911 47.0195 36.8603 43.3943 36.8603Z" fill="white"/>
<path d="M46.217 50.2663C46.0282 50.0774 45.7661 49.9688 45.499 49.9688C45.2318 49.9688 44.9698 50.0774 44.781 50.2663C44.5921 50.4552 44.4834 50.7173 44.4834 50.9844C44.4834 51.2515 44.592 51.5135 44.781 51.7024C44.9698 51.8913 45.2318 52 45.499 52C45.7661 52 46.0282 51.8913 46.217 51.7024C46.4059 51.5135 46.5146 51.2515 46.5146 50.9844C46.5146 50.7173 46.406 50.4552 46.217 50.2663Z" fill="white"/>
<path d="M10.6301 17.4678C9.12152 17.014 7.55106 17.4791 6.52284 18.5388C6.23319 18.2396 5.8958 17.9839 5.51849 17.781C4.55873 17.2651 3.45535 17.154 2.412 17.4678C1.87494 17.6294 1.57045 18.1958 1.73204 18.733C1.89352 19.2699 2.46014 19.5742 2.9972 19.4128C3.52106 19.2553 4.07499 19.3111 4.5568 19.5701C5.03871 19.829 5.39083 20.2602 5.54845 20.784C5.67754 21.2133 6.07282 21.5072 6.52102 21.5072C6.96921 21.5072 7.36449 21.2133 7.49358 20.7841C7.81898 19.7028 8.96349 19.0876 10.0449 19.4129C10.5821 19.5745 11.1484 19.2702 11.3101 18.733C11.4717 18.1958 11.1672 17.6294 10.6301 17.4678Z" fill="white"/>
<path d="M17.1089 9.97571C16.0658 9.66188 14.9624 9.77299 14.0025 10.2888C13.6259 10.4912 13.2892 10.7465 12.9999 11.0449C12.7107 10.7465 12.3739 10.4912 11.9973 10.2888C11.0374 9.77289 9.93384 9.66178 8.89089 9.97571C8.35373 10.1373 8.04934 10.7037 8.21093 11.241C8.37252 11.7781 8.93934 12.0823 9.47609 11.9209C9.99965 11.7634 10.5537 11.8191 11.0356 12.0782C11.5175 12.3371 11.8697 12.7683 12.0273 13.2922C12.1564 13.7214 12.5517 14.0153 12.9999 14.0153C13.4481 14.0153 13.8434 13.7214 13.9725 13.2922C14.1301 12.7684 14.4823 12.3372 14.9642 12.0782C15.446 11.8192 15.9999 11.7634 16.5237 11.9209C17.0608 12.0824 17.6271 11.778 17.7889 11.241C17.9505 10.7038 17.6461 10.1374 17.1089 9.97571Z" fill="white"/>
<path d="M29.9468 13.2871H29.9389C29.3781 13.2871 28.9272 13.7418 28.9272 14.3027C28.9272 14.8637 29.386 15.3184 29.9468 15.3184C30.5077 15.3184 30.9625 14.8637 30.9625 14.3027C30.9625 13.7418 30.5078 13.2871 29.9468 13.2871Z" fill="white"/>
<path d="M27.0795 15.0969C26.6736 14.7098 26.0306 14.7253 25.6436 15.1313C24.5853 16.2415 24.0026 17.6979 24.0026 19.2321C24.0026 19.793 24.4574 20.2477 25.0182 20.2477C25.579 20.2477 26.0338 19.793 26.0338 19.2321C26.0338 18.2221 26.4173 17.2635 27.1139 16.5328C27.501 16.1268 27.4855 15.4839 27.0795 15.0969Z" fill="white"/>
</svg>
