<svg width="50" height="52" viewBox="0 0 50 52" fill="none" xmlns="http://www.w3.org/2000/svg">
<path d="M14.7573 41.2816C15.7564 41.3421 16.6603 41.7768 17.3253 42.4447C18.048 43.1645 18.4942 44.1606 18.4942 45.2603V46.8092C19.7438 45.2057 20.4864 43.1875 20.4864 40.9966C20.4864 38.3796 19.4241 36.0074 17.7082 34.2915C15.9923 32.5756 13.623 31.5162 11.0032 31.5162C8.38622 31.5162 6.01687 32.5757 4.30107 34.2915C2.58517 36.0074 1.52293 38.3796 1.52293 40.9966C1.52293 43.1847 2.26566 45.2 3.51223 46.8063V45.2603C3.51223 44.1634 3.96145 43.1673 4.68122 42.4447C5.34909 41.7768 6.2531 41.342 7.25197 41.2816C7.07352 40.8267 6.97562 40.3344 6.97562 39.8191V37.372V36.3182C6.97562 35.6043 7.26639 34.9565 7.73561 34.4873C8.20483 34.0181 8.8527 33.7273 9.56658 33.7273H14.2708C14.6939 33.7273 15.0337 34.067 15.0337 34.4902V37.3721V39.8192C15.0338 40.3344 14.9359 40.8267 14.7573 41.2816ZM8.49855 36.6119H13.5108V35.2501H9.56668C9.27296 35.2501 9.00819 35.371 8.81238 35.5639C8.61951 35.7598 8.49855 36.0245 8.49855 36.3182V36.6119ZM13.5108 38.1348H8.49855V39.819C8.49855 41.1952 9.62711 42.3237 11.0032 42.3237C12.3822 42.3237 13.5107 41.1952 13.5107 39.819V38.1348H13.5108ZM40.7485 9.00829C39.8619 9.1062 38.5432 9.03703 37.4176 8.09565C37.0145 8.31441 36.433 8.53328 35.7362 8.51317V9.82871C35.7362 10.5168 36.0183 11.1416 36.4732 11.5964C36.9281 12.0513 37.5528 12.3334 38.2439 12.3334C38.9319 12.3334 39.5567 12.0513 40.0115 11.5964C40.4664 11.1415 40.7485 10.5168 40.7485 9.82871V9.00829ZM35.7362 6.99298C36.1882 7.02183 36.6719 6.84623 37.0087 6.54672C37.3253 6.27321 37.8061 6.30774 38.0796 6.62452C38.9289 7.59759 40.0892 7.58895 40.7484 7.48241V6.32511C40.7484 6.03434 40.6275 5.76662 40.4346 5.57375C40.2417 5.37794 39.974 5.25992 39.6803 5.25992H36.8042C36.5105 5.25992 36.2457 5.37794 36.0499 5.57375C35.8572 5.76662 35.7361 6.03434 35.7361 6.32511V6.99298H35.7362ZM8.29705 42.7959H7.49958C6.82307 42.7959 6.20689 43.0752 5.76063 43.5215C5.31152 43.9677 5.03527 44.5838 5.03527 45.2603V48.364C5.69451 48.8966 6.42576 49.3457 7.21459 49.6882V46.671C7.21459 46.2478 7.55432 45.9081 7.97459 45.9081C8.39495 45.9081 8.73752 46.2478 8.73752 46.671V50.2036C9.46309 50.3821 10.2231 50.4771 11.0033 50.4771C11.7864 50.4771 12.5463 50.382 13.272 50.2036V46.671C13.272 46.2478 13.6146 45.9081 14.0349 45.9081C14.4553 45.9081 14.7948 46.2478 14.7948 46.671V49.6882C15.5838 49.3457 16.3178 48.8966 16.9771 48.3611V45.2604C16.9771 44.5868 16.6978 43.9707 16.2487 43.5216C15.8025 43.0753 15.1863 42.796 14.5098 42.796H13.7124C12.9985 43.4496 12.0455 43.8497 11.0033 43.8497C9.96399 43.8496 9.01103 43.4495 8.29705 42.7959ZM42.2714 9.82871C42.2714 10.3413 42.1735 10.8364 41.995 11.2884C42.994 11.3517 43.898 11.7836 44.5659 12.4515C45.2857 13.1742 45.7319 14.1703 45.7319 15.27V16.819C46.9814 15.2125 47.7241 13.1944 47.7241 11.0034C47.7241 8.38632 46.6618 6.01697 44.946 4.30107C43.2301 2.58517 40.8607 1.52283 38.2439 1.52283C35.624 1.52283 33.2546 2.58517 31.5387 4.30107C29.8228 6.01697 28.7606 8.38642 28.7606 11.0034C28.7606 13.1943 29.5034 15.2096 30.75 16.8132V15.27C30.75 14.1703 31.1991 13.1742 31.9217 12.4515C32.5867 11.7836 33.4907 11.3517 34.4897 11.2884C34.3112 10.8364 34.2133 10.3413 34.2133 9.82871V6.32511C34.2133 5.61407 34.504 4.9662 34.9733 4.49698C35.4426 4.02766 36.0903 3.73689 36.8042 3.73689H39.6803C40.3943 3.73689 41.042 4.02766 41.5112 4.49698C41.9805 4.9662 42.2712 5.61407 42.2712 6.32511V9.82871H42.2714ZM40.95 12.8056C40.236 13.4563 39.2831 13.8566 38.2438 13.8566C37.2015 13.8566 36.2515 13.4564 35.5346 12.8056H34.7371C34.0606 12.8056 33.4444 13.0822 32.9983 13.5283C32.5492 13.9774 32.2727 14.5935 32.2727 15.27V18.3706C32.9319 18.9061 33.6632 19.3523 34.452 19.6977V16.6778C34.452 16.2575 34.7919 15.9148 35.2121 15.9148C35.6324 15.9148 35.9751 16.2575 35.9751 16.6778V20.2132C36.7005 20.3917 37.4605 20.4867 38.2437 20.4867C39.0239 20.4867 39.7839 20.3916 40.5094 20.2132V16.6778C40.5094 16.2575 40.852 15.9148 41.2724 15.9148C41.6927 15.9148 42.0324 16.2575 42.0324 16.6778V19.6977C42.824 19.3523 43.5553 18.9032 44.2145 18.3677V15.2699C44.2145 14.5934 43.9352 13.9772 43.4861 13.5282C43.0399 13.082 42.4239 12.8055 41.7473 12.8055H40.95V12.8056ZM19.9712 34.6139C20.6275 34.4873 21.3271 34.3836 22.0469 34.303C22.6486 34.2397 23.2589 34.1937 23.8606 34.1735V26.763H16.2457C16.263 27.526 16.3032 28.2773 16.3666 29.0115C16.4444 29.904 16.5538 30.7591 16.6891 31.574C17.4549 32.0345 18.1573 32.5872 18.785 33.2149C19.2169 33.6465 19.6143 34.1158 19.9712 34.6139ZM25.3865 34.1705C27.6493 34.2396 29.7855 34.6196 31.6914 35.2415C32.4629 32.7656 32.935 29.8692 33.0013 26.7628H25.3865V34.1705ZM33.1164 35.7712C34.6134 36.3989 35.9262 37.1876 36.9972 38.1004C38.0653 37.0092 38.9893 35.7742 39.7408 34.4326C39.9453 34.0669 40.4059 33.9346 40.7744 34.1389C41.1401 34.3403 41.2725 34.8039 41.0681 35.1696C39.43 38.1032 37.0347 40.5475 34.1415 42.2461C31.3459 43.8871 28.0927 44.8286 24.6236 44.8286C23.9759 44.8286 23.3224 44.794 22.6689 44.7278C22.2485 44.6818 21.8311 44.6271 21.4193 44.5552C20.8723 46.1615 19.9626 47.6041 18.7852 48.7786C16.7957 50.7677 14.0434 52 11.0033 52C8.06965 52 5.28856 50.8426 3.22441 48.7784C1.23226 46.7861 0 44.0338 0 40.9965C0 37.9562 1.23226 35.2069 3.22441 33.2147C4.15137 32.2849 5.24834 31.5219 6.46029 30.972C6.27027 30.2811 6.12056 29.5756 6.01118 28.8558C5.87011 27.9231 5.79526 26.9702 5.79526 26C5.79526 24.9204 5.88738 23.8552 6.06592 22.8158C6.24721 21.7563 6.51503 20.7257 6.86623 19.7325C7.0073 19.3352 7.44199 19.1279 7.83646 19.269C8.23367 19.4072 8.44096 19.842 8.29989 20.2393C7.98038 21.149 7.72992 22.0962 7.5657 23.0723C7.44484 23.7775 7.36714 24.5001 7.33535 25.2401H14.7227C14.7888 21.9465 15.2956 18.869 16.1305 16.2289C14.6334 15.6012 13.3206 14.8125 12.2497 13.9028C11.268 14.9046 10.4071 16.0274 9.69312 17.2452C9.48005 17.605 9.01662 17.7259 8.65384 17.5158C8.29116 17.3027 8.1702 16.8364 8.38327 16.4766C10.0474 13.6436 12.431 11.2828 15.2812 9.65047C18.0366 8.07259 21.2235 7.17153 24.6235 7.17153C25.2713 7.17153 25.9247 7.20606 26.5783 7.27523C26.9987 7.31839 27.4161 7.37598 27.8278 7.44504C28.3748 5.83873 29.2874 4.39918 30.4619 3.22441C32.4514 1.23226 35.2036 0 38.2438 0C41.281 0 44.0333 1.23226 46.0226 3.22441C48.0149 5.21391 49.247 7.96616 49.247 11.0035C49.247 14.0438 48.0149 16.796 46.0226 18.7853C45.0956 19.7151 43.9987 20.478 42.7868 21.0309C42.9768 21.7219 43.1265 22.4272 43.2359 23.1442C43.3769 24.0769 43.4518 25.0298 43.4518 26C43.4518 27.0048 43.3712 28.0009 43.2128 28.9826C43.0544 29.9816 42.8183 30.9489 42.5132 31.8789C42.3837 32.2791 41.9547 32.498 41.5545 32.3683C41.1543 32.2388 40.9384 31.8098 41.068 31.4096C41.3501 30.5431 41.5689 29.6534 41.7158 28.7436C41.8165 28.1017 41.8827 27.4395 41.9116 26.7629H34.5242C34.4579 30.0536 33.9513 33.1312 33.1164 35.7712ZM35.8802 39.1454C34.9733 38.3997 33.8707 37.7433 32.6155 37.2107C32.3535 37.8843 32.0713 38.5206 31.7691 39.1194C31.0494 40.5417 30.2088 41.7451 29.2787 42.675C30.7298 42.2691 32.103 41.6819 33.3726 40.9362C34.2622 40.4151 35.1028 39.8133 35.8802 39.1454ZM31.1904 36.6781C29.4429 36.111 27.4765 35.7626 25.3864 35.6935V43.2307C27.3066 42.8594 29.0657 41.0945 30.413 38.4342C30.6923 37.8843 30.9515 37.297 31.1904 36.6781ZM23.8606 35.6964C23.3049 35.7165 22.7493 35.7569 22.2051 35.8144C21.7359 35.8663 21.2695 35.9324 20.8146 36.0073C21.5776 37.5043 22.0094 39.2002 22.0094 40.9965C22.0094 41.4572 21.9806 41.9121 21.9259 42.3583C22.3089 42.6318 22.7003 42.8535 23.1034 43.0118C23.3539 43.1097 23.6044 43.1846 23.8606 43.2335V35.6964ZM13.3668 12.8546C14.2738 13.6032 15.3793 14.2567 16.6345 14.7922C16.8936 14.1184 17.1757 13.4793 17.4781 12.8833C18.1978 11.4611 19.0356 10.2577 19.9684 9.3278C18.5779 9.71638 17.2622 10.2721 16.0387 10.9716C15.0856 11.5159 14.1932 12.1464 13.3668 12.8546ZM18.0567 15.3219C19.8042 15.8919 21.7705 16.2374 23.8606 16.3065V8.76941C21.9403 9.14073 20.1813 10.9055 18.834 13.5686C18.5548 14.1157 18.2956 14.703 18.0567 15.3219ZM25.3865 16.3066C25.968 16.2893 26.5352 16.249 27.0851 16.1886C27.5457 16.1396 27.9948 16.0763 28.4353 16.0014C27.6695 14.5014 27.2376 12.8028 27.2376 11.0035C27.2376 10.5428 27.2665 10.0908 27.3211 9.64458C26.9412 9.36812 26.5467 9.14936 26.1436 8.99102C25.8932 8.89312 25.6426 8.81827 25.3865 8.76931V16.3066ZM29.2787 17.389C28.6166 17.5215 27.94 17.6251 27.2462 17.7C26.633 17.7662 26.0112 17.8122 25.3864 17.8295V25.24H33.0012C32.9839 24.4742 32.9436 23.7228 32.8804 22.9887C32.8026 22.0962 32.6932 21.2411 32.5579 20.4292C31.795 19.9686 31.0896 19.4158 30.4619 18.7853C30.0301 18.3535 29.6329 17.887 29.2787 17.389ZM23.8606 17.8295C21.5978 17.7604 19.4616 17.3804 17.5557 16.7585C16.7841 19.2373 16.3121 22.1307 16.2458 25.24H23.8607V17.8295H23.8606ZM34.2189 21.2496C34.291 21.7823 34.3514 22.3179 34.3975 22.8591C34.4636 23.6363 34.5069 24.431 34.5241 25.2399H41.9115C41.8856 24.6066 41.8251 23.9818 41.7301 23.3714C41.638 22.7554 41.5113 22.1536 41.3557 21.5633C40.3683 21.8542 39.3233 22.0097 38.2437 22.0097C36.8215 22.0098 35.4656 21.7391 34.2189 21.2496ZM15.028 30.7503C14.956 30.2176 14.8955 29.682 14.8495 29.1438C14.7832 28.3636 14.7401 27.569 14.7228 26.7629H7.33545C7.36145 27.3963 7.42473 28.0181 7.51684 28.6314C7.60896 29.2446 7.73561 29.8492 7.8911 30.4395C8.87859 30.1487 9.92367 29.9931 11.0033 29.9931C12.4255 29.993 13.7814 30.2609 15.028 30.7503Z" fill="white"/>
</svg>
