<svg width="100" height="100" viewBox="0 0 100 100" fill="none" xmlns="http://www.w3.org/2000/svg">
<path d="M11.5385 0H2.88457C1.2916 0 0 1.2916 0 2.88457V11.5385C0 13.1316 1.2916 14.423 2.88457 14.423C4.47754 14.423 5.76914 13.1314 5.76914 11.5385V5.76914H11.5383C13.1314 5.76914 14.4228 4.47754 14.4228 2.88457C14.4228 1.2916 13.1314 0 11.5385 0Z" fill="#B8D1E6"/>
<path d="M97.1156 0H88.4617C86.8686 0 85.5771 1.2916 85.5771 2.88457C85.5771 4.47754 86.8688 5.76914 88.4617 5.76914H94.2309V11.5383C94.2309 13.1314 95.5225 14.4228 97.1154 14.4228C98.7084 14.4228 100 13.1314 100 11.5385V2.88457C100 1.2916 98.7086 0 97.1156 0Z" fill="#B8D1E6"/>
<path d="M11.5385 94.2309H5.76914V88.4617C5.76914 86.8686 4.47754 85.5771 2.88457 85.5771C1.2916 85.5771 0 86.8686 0 88.4615V97.1154C0 98.7084 1.2916 100 2.88457 100H11.5385C13.1316 100 14.423 98.7084 14.423 97.1154C14.423 95.5225 13.1314 94.2309 11.5385 94.2309Z" fill="#B8D1E6"/>
<path d="M97.1154 85.5771C95.5223 85.5771 94.2309 86.8688 94.2309 88.4617V94.2309H88.4617C86.8686 94.2309 85.5771 95.5225 85.5771 97.1154C85.5771 98.7084 86.8686 100 88.4615 100H97.1154C98.7086 100 100 98.7086 100 97.1156V88.4617C100 86.8688 98.7084 85.5771 97.1154 85.5771Z" fill="#B8D1E6"/>
<path d="M2.88457 20.1924C1.2916 20.1924 0 21.4838 0 23.077V29.4117C0 31.0051 1.2916 32.2963 2.88457 32.2963C4.47754 32.2963 5.76914 31.0047 5.76914 29.4117V23.077C5.76914 21.4838 4.47773 20.1924 2.88457 20.1924Z" fill="#B8D1E6"/>
<path d="M2.88457 36.0293C1.2916 36.0293 0 37.3207 0 38.9139V45.2486C0 46.8418 1.2916 48.1332 2.88457 48.1332C4.47754 48.1332 5.76914 46.8416 5.76914 45.2486V38.9139C5.76914 37.3207 4.47773 36.0293 2.88457 36.0293Z" fill="#B8D1E6"/>
<path d="M2.88457 51.8672C1.2916 51.8672 0 53.1586 0 54.7518V61.0865C0 62.6797 1.2916 63.9711 2.88457 63.9711C4.47754 63.9711 5.76914 62.6795 5.76914 61.0865V54.7518C5.76914 53.1586 4.47773 51.8672 2.88457 51.8672Z" fill="#B8D1E6"/>
<path d="M2.88457 67.7031C1.2916 67.7031 0 68.9945 0 70.5877V76.9225C0 78.5156 1.2916 79.807 2.88457 79.807C4.47754 79.807 5.76914 78.5154 5.76914 76.9225V70.5877C5.76914 68.9945 4.47773 67.7031 2.88457 67.7031Z" fill="#B8D1E6"/>
<path d="M29.4117 94.2305H23.077C21.4838 94.2305 20.1924 95.5221 20.1924 97.115C20.1924 98.708 21.4838 99.9996 23.077 99.9996H29.4117C31.0049 99.9996 32.2963 98.708 32.2963 97.115C32.2963 95.5221 31.0051 94.2305 29.4117 94.2305Z" fill="#B8D1E6"/>
<path d="M45.2486 94.2305H38.9139C37.3207 94.2305 36.0293 95.5221 36.0293 97.115C36.0293 98.708 37.3207 99.9996 38.9139 99.9996H45.2486C46.8418 99.9996 48.1332 98.708 48.1332 97.115C48.1332 95.5221 46.8418 94.2305 45.2486 94.2305Z" fill="#B8D1E6"/>
<path d="M61.0855 94.2305H54.7508C53.1576 94.2305 51.8662 95.5221 51.8662 97.115C51.8662 98.708 53.1576 99.9996 54.7508 99.9996H61.0855C62.6787 99.9996 63.9701 98.708 63.9701 97.115C63.9701 95.5221 62.6789 94.2305 61.0855 94.2305Z" fill="#B8D1E6"/>
<path d="M76.9229 94.2305H70.5882C68.995 94.2305 67.7036 95.5221 67.7036 97.115C67.7036 98.708 68.995 99.9996 70.5882 99.9996H76.9229C78.5161 99.9996 79.8075 98.708 79.8075 97.115C79.8075 95.5221 78.5161 94.2305 76.9229 94.2305Z" fill="#B8D1E6"/>
<path d="M29.4117 47.1162H23.077C21.4838 47.1162 20.1924 48.4078 20.1924 50.0008C20.1924 51.5937 21.484 52.8854 23.077 52.8854H29.4117C31.0049 52.8854 32.2963 51.5937 32.2963 50.0008C32.2963 48.4078 31.0051 47.1162 29.4117 47.1162Z" fill="#B8D1E6"/>
<path d="M45.2486 47.1162H38.9139C37.3207 47.1162 36.0293 48.4078 36.0293 50.0008C36.0293 51.5937 37.3207 52.8854 38.9139 52.8854H45.2486C46.8418 52.8854 48.1332 51.5937 48.1332 50.0008C48.1332 48.4078 46.8418 47.1162 45.2486 47.1162Z" fill="#B8D1E6"/>
<path d="M90.1584 47.1162H85.7469C84.1537 47.1162 82.8623 48.4078 82.8623 50.0008C82.8623 51.5937 84.1539 52.8854 85.7469 52.8854H90.1584C91.7516 52.8854 93.043 51.5937 93.043 50.0008C93.043 48.4078 91.7516 47.1162 90.1584 47.1162Z" fill="#B8D1E6"/>
<path d="M14.2531 47.1162H9.8416C8.24844 47.1162 6.95703 48.4078 6.95703 50.0008C6.95703 51.5937 8.24863 52.8854 9.8416 52.8854H14.2531C15.8463 52.8854 17.1377 51.5937 17.1377 50.0008C17.1377 48.4078 15.8461 47.1162 14.2531 47.1162Z" fill="#B8D1E6"/>
<path d="M61.0855 47.1162H54.7508C53.1576 47.1162 51.8662 48.4078 51.8662 50.0008C51.8662 51.5937 53.1578 52.8854 54.7508 52.8854H61.0855C62.6787 52.8854 63.9701 51.5937 63.9701 50.0008C63.9701 48.4078 62.6789 47.1162 61.0855 47.1162Z" fill="#B8D1E6"/>
<path d="M76.9229 47.1162H70.5882C68.995 47.1162 67.7036 48.4078 67.7036 50.0008C67.7036 51.5937 68.9952 52.8854 70.5882 52.8854H76.9229C78.5161 52.8854 79.8075 51.5937 79.8075 50.0008C79.8075 48.4078 78.5161 47.1162 76.9229 47.1162Z" fill="#B8D1E6"/>
<path d="M49.9998 67.7031C48.4066 67.7031 47.1152 68.9947 47.1152 70.5877V76.9225C47.1152 78.5156 48.4068 79.807 49.9998 79.807C51.5928 79.807 52.8844 78.5154 52.8844 76.9225V70.5877C52.8844 68.9943 51.593 67.7031 49.9998 67.7031Z" fill="#B8D1E6"/>
<path d="M49.9998 53.79C48.4066 53.79 47.1152 55.0816 47.1152 56.6746V61.0863C47.1152 62.6795 48.4068 63.9709 49.9998 63.9709C51.5928 63.9709 52.8844 62.6793 52.8844 61.0863V56.6746C52.8844 55.0816 51.593 53.79 49.9998 53.79Z" fill="#B8D1E6"/>
<path d="M49.9998 6.95703C48.4066 6.95703 47.1152 8.24863 47.1152 9.8416V14.2533C47.1152 15.8465 48.4068 17.1379 49.9998 17.1379C51.5928 17.1379 52.8844 15.8463 52.8844 14.2533V9.8418C52.8844 8.24863 51.593 6.95703 49.9998 6.95703Z" fill="#B8D1E6"/>
<path d="M49.9998 82.8623C48.4066 82.8623 47.1152 84.1539 47.1152 85.7469V90.1586C47.1152 91.7518 48.4068 93.0432 49.9998 93.0432C51.5928 93.0432 52.8844 91.7516 52.8844 90.1586V85.7469C52.8844 84.1539 51.593 82.8623 49.9998 82.8623Z" fill="#B8D1E6"/>
<path d="M49.9998 36.0293C48.4066 36.0293 47.1152 37.3209 47.1152 38.9139V43.3256C47.1152 44.9187 48.4068 46.2102 49.9998 46.2102C51.5928 46.2102 52.8844 44.9186 52.8844 43.3256V38.9139C52.8844 37.3207 51.593 36.0293 49.9998 36.0293Z" fill="#B8D1E6"/>
<path d="M49.9998 20.1924C48.4066 20.1924 47.1152 21.484 47.1152 23.077V29.4117C47.1152 31.0049 48.4068 32.2963 49.9998 32.2963C51.5928 32.2963 52.8844 31.0047 52.8844 29.4117V23.077C52.8844 21.4838 51.593 20.1924 49.9998 20.1924Z" fill="#B8D1E6"/>
<path d="M29.4117 0H23.077C21.4838 0 20.1924 1.2916 20.1924 2.88457C20.1924 4.47754 21.484 5.76914 23.077 5.76914H29.4117C31.0049 5.76914 32.2963 4.47754 32.2963 2.88457C32.2963 1.2916 31.0051 0 29.4117 0Z" fill="#B8D1E6"/>
<path d="M45.2486 0H38.9139C37.3207 0 36.0293 1.2916 36.0293 2.88457C36.0293 4.47754 37.3207 5.76914 38.9139 5.76914H45.2486C46.8418 5.76914 48.1332 4.47754 48.1332 2.88457C48.1332 1.2916 46.8418 0 45.2486 0Z" fill="#B8D1E6"/>
<path d="M61.0855 0H54.7508C53.1576 0 51.8662 1.2916 51.8662 2.88457C51.8662 4.47754 53.1578 5.76914 54.7508 5.76914H61.0855C62.6787 5.76914 63.9701 4.47754 63.9701 2.88457C63.9701 1.2916 62.6789 0 61.0855 0Z" fill="#B8D1E6"/>
<path d="M76.9229 0H70.5882C68.995 0 67.7036 1.2916 67.7036 2.88457C67.7036 4.47754 68.9952 5.76914 70.5882 5.76914H76.9229C78.5161 5.76914 79.8075 4.47754 79.8075 2.88457C79.8075 1.2916 78.5161 0 76.9229 0Z" fill="#B8D1E6"/>
<path d="M97.1155 20.1924C95.5224 20.1924 94.231 21.484 94.231 23.077V29.4117C94.231 31.0049 95.5226 32.2963 97.1155 32.2963C98.7085 32.2963 100 31.0049 100 29.4117V23.077C100 21.4838 98.7085 20.1924 97.1155 20.1924Z" fill="#B8D1E6"/>
<path d="M97.1155 36.0293C95.5224 36.0293 94.231 37.3209 94.231 38.9139V45.2486C94.231 46.8418 95.5226 48.1332 97.1155 48.1332C98.7085 48.1332 100 46.8418 100 45.2486V38.9139C100 37.3207 98.7085 36.0293 97.1155 36.0293Z" fill="#B8D1E6"/>
<path d="M97.1155 51.8672C95.5224 51.8672 94.231 53.1588 94.231 54.7518V61.0865C94.231 62.6797 95.5226 63.9711 97.1155 63.9711C98.7085 63.9711 100 62.6797 100 61.0865V54.7518C100 53.1586 98.7085 51.8672 97.1155 51.8672Z" fill="#B8D1E6"/>
<path d="M97.1155 67.7031C95.5224 67.7031 94.231 68.9947 94.231 70.5877V76.9225C94.231 78.5156 95.5226 79.807 97.1155 79.807C98.7085 79.807 100 78.5156 100 76.9225V70.5877C100 68.9943 98.7085 67.7031 97.1155 67.7031Z" fill="#B8D1E6"/>
</svg>
