<svg width="43" height="52" viewBox="0 0 43 52" fill="none" xmlns="http://www.w3.org/2000/svg">
<path d="M38.5938 24.6797C38.5938 24.1187 38.1391 23.6641 37.5781 23.6641C37.0172 23.6641 36.5625 24.1187 36.5625 24.6797C36.5625 28.04 33.829 30.7734 30.4688 30.7734C29.9078 30.7734 29.4531 31.2281 29.4531 31.7891C29.4531 32.35 29.9078 32.8047 30.4688 32.8047C34.949 32.8047 38.5938 29.1599 38.5938 24.6797Z" fill="white"/>
<path d="M17.4346 34.5793C16.8979 35.389 12.1875 42.5785 12.1875 45.6016C12.1875 49.0698 14.9781 52 18.2812 52C21.5844 52 24.375 49.0698 24.375 45.6016C24.375 42.5785 19.6646 35.389 19.1279 34.5793C18.9394 34.2956 18.6216 34.125 18.2812 34.125C17.9409 34.125 17.6231 34.2956 17.4346 34.5793ZM22.3438 45.6016C22.3438 47.928 20.4454 49.9688 18.2812 49.9688C16.1171 49.9688 14.2188 47.928 14.2188 45.6016C14.2188 44.0365 16.4496 39.9518 18.2812 37.0191C20.1129 39.9518 22.3438 44.0365 22.3438 45.6016Z" fill="white"/>
<path d="M7.10938 16.8594C6.77573 16.8594 6.4635 17.0232 6.27386 17.2978C5.63156 18.2273 0 26.4836 0 30.0625C0 33.9826 3.1893 37.1719 7.10938 37.1719C11.0294 37.1719 14.2188 33.9826 14.2188 30.0625C14.2188 26.4836 8.58719 18.2273 7.94489 17.2978C7.75525 17.0232 7.44302 16.8594 7.10938 16.8594ZM7.10938 35.1406C4.30927 35.1406 2.03125 32.8626 2.03125 30.0625C2.03125 28.0983 4.87143 23.1118 7.10938 19.696C9.34732 23.1114 12.1875 28.0971 12.1875 30.0625C12.1875 32.8626 9.90948 35.1406 7.10938 35.1406Z" fill="white"/>
<path d="M20.3125 23.6641C20.3125 24.225 19.8578 24.6797 19.2969 24.6797C18.7359 24.6797 18.2812 24.225 18.2812 23.6641C18.2812 23.1031 18.7359 22.6484 19.2969 22.6484C19.8578 22.6484 20.3125 23.1031 20.3125 23.6641Z" fill="white"/>
<path d="M31.3249 0.468933C31.1381 0.176941 30.8155 0 30.4688 0C30.1221 0 29.7995 0.176941 29.6127 0.468933C29.3203 0.927154 22.4168 11.7737 19.535 19.4207C19.337 19.9455 19.6024 20.5315 20.1273 20.7291C20.6517 20.927 21.2377 20.662 21.4357 20.1371C23.655 14.2473 28.505 6.12509 30.4716 2.93063C33.9437 8.54553 40.625 20.2625 40.625 24.6797C40.625 30.2799 36.069 34.8359 30.4688 34.8359C25.9346 34.8359 21.9133 31.791 20.6894 27.431C20.5379 26.8911 19.9773 26.576 19.437 26.7276C18.897 26.8792 18.5824 27.4401 18.7336 27.9801C20.2027 33.2125 25.0285 36.8672 30.4688 36.8672C37.189 36.8672 42.6563 31.3999 42.6563 24.6797C42.6563 19.0815 34.2218 4.99838 31.3249 0.468933Z" fill="white"/>
</svg>
