<svg width="52" height="44" viewBox="0 0 52 44" fill="none" xmlns="http://www.w3.org/2000/svg">
<path d="M51.9986 17.0929C51.9778 16.6176 51.7131 15.7367 50.1729 15.1762L9.10977 0.245134C7.00488 -0.52075 4.66894 0.568205 3.90275 2.67319L2.79115 5.72708C2.79115 5.72708 2.79104 5.72739 2.79094 5.72759L0.290165 12.5986C-0.475923 14.7037 0.613235 17.0394 2.71853 17.8057L14.6863 22.1566C14.4589 23.5399 14.8382 24.9066 15.6639 25.9522L13.1145 32.9562C12.9972 33.2786 12.6876 33.4952 12.3442 33.4952H4.87501V31.0577C4.87501 29.7137 3.78158 28.6202 2.4375 28.6202H0.812501C0.363797 28.6202 0 28.984 0 29.4327V42.4327C0 42.8815 0.363797 43.2452 0.812501 43.2452H2.4375C3.78158 43.2452 4.87501 42.1517 4.87501 40.8077V38.3702H12.3442C14.7297 38.3702 16.8802 36.8643 17.6955 34.623L20.1913 27.7661C21.6195 27.5656 22.9175 26.7317 23.688 25.4292L37.6735 30.5137C38.1306 30.68 38.5984 30.7589 39.0589 30.7589C40.4555 30.7588 41.7825 30.0329 42.5256 28.8211L44.1305 29.4052C44.3118 29.4711 44.4997 29.504 44.6871 29.504C44.921 29.504 45.1541 29.4528 45.3723 29.3511C45.7655 29.1677 46.0637 28.8422 46.2119 28.4348L48.4359 22.3246C48.7063 21.5814 48.3977 20.767 47.7423 20.3758L50.347 19.1613C51.8324 18.4686 52.0193 17.5681 51.9986 17.0929ZM3.25001 40.8077C3.25001 41.2557 2.8855 41.6202 2.4375 41.6202H1.625V30.2452H2.4375C2.8855 30.2452 3.25001 30.6097 3.25001 31.0577V40.8077ZM16.1685 34.0673C15.5858 35.6691 14.049 36.7452 12.3442 36.7452H4.87501V35.1202H12.3442C13.3682 35.1202 14.2913 34.474 14.6415 33.5121L16.9739 27.1041C17.2415 27.2649 17.5282 27.4029 17.8327 27.5137C18.0488 27.5924 18.2669 27.6547 18.4853 27.7019L16.1685 34.0673ZM19.6122 26.1845C19.5934 26.1844 19.5747 26.1844 19.556 26.1856C19.169 26.1907 18.7743 26.1272 18.3884 25.9867C17.9368 25.8223 17.5429 25.5693 17.2203 25.2541C17.1907 25.2182 17.1579 25.1849 17.122 25.1543C16.5169 24.5098 16.193 23.6348 16.2543 22.7266L22.1204 24.8593C21.5268 25.6744 20.5977 26.1542 19.6122 26.1845ZM46.9091 21.7688L44.6866 27.8783L43.1585 27.3222L45.2665 21.5303L45.698 21.3291L46.9091 21.7688ZM49.6604 17.6885L45.3169 19.7139C45.3164 19.7141 45.3159 19.7143 45.3155 19.7145L44.2753 20.1996C44.2749 20.1998 44.2746 20.1999 44.2742 20.2001L43.0547 20.7687C41.6234 21.4361 39.1604 21.5435 37.6761 21.0033L14.1736 12.4638C13.752 12.3108 13.2857 12.5283 13.1325 12.95C12.9792 13.3718 13.1969 13.8379 13.6186 13.9912L37.1208 22.5305C37.9385 22.8282 38.9465 22.9731 39.9752 22.9731C41.0998 22.9731 42.248 22.799 43.1984 22.4617L41.3538 27.5297C40.8941 28.7928 39.4925 29.4462 38.2293 28.9865L3.27397 16.2786C2.01094 15.819 1.35749 14.4175 1.81716 13.1545L3.20735 9.33489C3.67098 10.0477 4.36049 10.6216 5.21931 10.9342L5.98306 11.2121C6.40434 11.3656 6.87092 11.1481 7.02438 10.7264C7.17784 10.3048 6.96039 9.83854 6.53871 9.68508L5.77506 9.40721C4.51223 8.94753 3.85867 7.54637 4.31804 6.28344L4.59612 5.51939C4.59612 5.51939 4.59622 5.51918 4.59622 5.51908L5.42974 3.22894C5.88952 1.96591 7.29098 1.31215 8.55422 1.77213L49.6173 16.7033C50.139 16.8931 50.3319 17.0909 50.3711 17.1639C50.3384 17.24 50.1635 17.4538 49.6604 17.6885Z" fill="white"/>
<path d="M11.1196 11.3533L9.59235 10.7973C9.17077 10.6437 8.70449 10.8613 8.55093 11.2829C8.39747 11.7045 8.61481 12.1708 9.0365 12.3243L10.5637 12.8803C10.6554 12.9137 10.7493 12.9294 10.8416 12.9294C11.1735 12.9294 11.485 12.7245 11.6051 12.3946C11.7587 11.9731 11.5412 11.5069 11.1196 11.3533Z" fill="white"/>
</svg>
