<svg width="39" height="52" viewBox="0 0 39 52" fill="none" xmlns="http://www.w3.org/2000/svg">
<path d="M4.01687 16.509C4.27752 16.509 4.53857 16.4095 4.73772 16.2103C5.13604 15.812 5.13604 15.1665 4.73772 14.7682C2.99807 13.0281 2.03958 10.7152 2.03958 8.25432C2.03958 5.79381 2.99807 3.48089 4.73772 1.74084C5.13604 1.34253 5.13604 0.697051 4.73772 0.298736C4.33941 -0.0995787 3.69354 -0.0995787 3.29562 0.298736C1.17035 2.42401 0 5.24911 0 8.25472C0 11.2599 1.17035 14.0854 3.29562 16.2107C3.49478 16.4095 3.75543 16.509 4.01687 16.509Z" fill="white"/>
<path d="M8.495 14.5436C8.75605 14.5436 9.0171 14.444 9.21626 14.2449C9.61457 13.8465 9.61457 13.2007 9.21626 12.8024C8.00148 11.5876 7.3322 9.9721 7.3322 8.25427C7.3322 6.53604 8.00148 4.92057 9.21626 3.70578C9.61457 3.30747 9.61457 2.6616 9.21626 2.26328C8.81794 1.86536 8.17207 1.86536 7.77375 2.26328C4.4706 5.56683 4.4706 10.9413 7.77375 14.2445C7.97291 14.444 8.23396 14.5436 8.495 14.5436Z" fill="white"/>
<path d="M12.9737 12.578C13.2347 12.578 13.4958 12.4784 13.6949 12.2792C14.0928 11.8809 14.0928 11.235 13.6949 10.8367C12.2703 9.41247 12.2703 7.09518 13.6949 5.67053C14.0928 5.27261 14.0928 4.62674 13.6949 4.22842C13.2966 3.83011 12.6507 3.83011 12.2524 4.22842C10.0327 6.44812 10.0327 10.0595 12.2524 12.2792C12.4516 12.4784 12.7126 12.578 12.9737 12.578Z" fill="white"/>
<path d="M20.894 12.1824C22.5043 11.6032 23.6588 10.0611 23.6588 8.25404C23.6588 5.95263 21.7866 4.08008 19.4852 4.08008C17.1834 4.08008 15.3113 5.95263 15.3113 8.25404C15.3113 10.0611 16.4657 11.6032 18.0761 12.1824L2.67989 50.5999C2.47041 51.1224 2.72432 51.7163 3.24721 51.9257C3.76969 52.1356 4.36359 51.8813 4.57307 51.3584L7.20892 44.7815H18.0058C18.5692 44.7815 19.0258 44.3248 19.0258 43.7615C19.0258 43.1985 18.5692 42.7419 18.0058 42.7419H10.9778L27.5229 34.2059L30.9439 42.7419H26.1883C25.625 42.7419 25.1687 43.1985 25.1687 43.7615C25.1687 44.3248 25.625 44.7815 26.1883 44.7815H31.7612L34.397 51.3584C34.5565 51.7567 34.9393 51.9991 35.344 51.9991C35.4701 51.9991 35.5987 51.9757 35.7229 51.9257C36.2458 51.7159 36.4997 51.1224 36.2902 50.5995L20.894 12.1824ZM16.0174 22.8024C16.09 22.8191 16.1658 22.8286 16.2436 22.8286H20.1363L13.5454 28.9699L16.0174 22.8024ZM16.8244 20.7886L19.4852 14.1494L22.1461 20.7886H16.8244ZM17.3508 8.25404C17.3508 7.07735 18.3085 6.11965 19.4852 6.11965C20.6619 6.11965 21.6192 7.07735 21.6192 8.25404C21.6192 9.43073 20.6619 10.388 19.4852 10.388C18.3085 10.388 17.3508 9.43073 17.3508 8.25404ZM8.41656 41.7683L11.6078 33.8048H23.8512L8.41656 41.7683ZM13.5375 31.7653L23.0082 22.9405L26.545 31.7653H13.5375Z" fill="white"/>
<path d="M34.2323 16.2107C34.4315 16.4095 34.6925 16.5094 34.9536 16.5094C35.2146 16.5094 35.4757 16.4095 35.6748 16.2107C37.7997 14.0854 38.9701 11.2599 38.9701 8.25472C38.9701 5.24911 37.7997 2.42401 35.6748 0.298736C35.2765 -0.0995787 34.6306 -0.0995787 34.2323 0.298736C33.834 0.697051 33.834 1.34253 34.2323 1.74124C35.9724 3.48089 36.9305 5.79421 36.9305 8.25472C36.9305 10.7152 35.9724 13.0285 34.2323 14.7682C33.834 15.1665 33.834 15.812 34.2323 16.2107Z" fill="white"/>
<path d="M29.754 14.2448C29.9532 14.4439 30.2142 14.5435 30.4749 14.5435C30.7359 14.5435 30.997 14.4439 31.1961 14.2448C34.4993 10.9412 34.4993 5.56674 31.1961 2.26358C30.7978 1.86527 30.152 1.86527 29.7536 2.26358C29.3557 2.66189 29.3557 3.30737 29.7536 3.70569C30.9688 4.92086 31.6377 6.53594 31.6377 8.25417C31.6377 9.9724 30.9688 11.5875 29.7536 12.8027C29.3557 13.2006 29.3557 13.8464 29.754 14.2448Z" fill="white"/>
<path d="M25.2754 12.2809C25.4746 12.48 25.7356 12.5796 25.9963 12.5796C26.2573 12.5796 26.5183 12.48 26.7175 12.2809C28.9372 10.0612 28.9372 6.44977 26.7175 4.23008C26.3192 3.83216 25.6737 3.83216 25.275 4.23008C24.8771 4.62839 24.8771 5.27427 25.275 5.67258C26.6997 7.09683 26.6997 9.41452 25.275 10.8388C24.8771 11.2367 24.8771 11.8826 25.2754 12.2809Z" fill="white"/>
<path d="M23.0402 43.3712C22.8744 42.9697 22.459 42.7134 22.0254 42.7448C21.6029 42.7749 21.2351 43.0748 21.1185 43.4815C21.0011 43.8901 21.1582 44.344 21.5053 44.5904C21.8489 44.8347 22.313 44.8415 22.6649 44.609C23.0672 44.3436 23.2231 43.814 23.0402 43.3712Z" fill="white"/>
</svg>
