<svg width="52" height="52" viewBox="0 0 52 52" fill="none" xmlns="http://www.w3.org/2000/svg">
<path d="M11.3763 40.5651C10.5635 39.7523 9.48283 39.3047 8.33355 39.3047C7.6546 39.3047 7.00013 39.4621 6.41015 39.7575C0.612648 31.5437 0.592539 20.288 6.45921 12.0543C6.78461 11.5975 6.67818 10.9633 6.22135 10.6378C5.76452 10.3123 5.13036 10.4187 4.80485 10.8756C1.56876 15.4173 -0.0913847 20.7807 0.00388114 26.3856C0.0945766 31.7196 1.76935 36.7794 4.85492 41.0748C3.62886 42.7567 3.77399 45.1335 5.29083 46.6505C6.12974 47.4893 7.23159 47.9088 8.33355 47.9088C9.4355 47.9088 10.5374 47.4893 11.3763 46.6505C13.054 44.9727 13.054 42.2429 11.3763 40.5651ZM9.93986 45.2141C9.05393 46.0998 7.61286 46.0998 6.72713 45.2141C5.8413 44.3283 5.8413 42.887 6.72713 42.0013C7.15623 41.5722 7.72671 41.3358 8.33345 41.3358C8.94018 41.3358 9.51076 41.5722 9.93976 42.0013C10.8257 42.8871 10.8257 44.3284 9.93986 45.2141Z" fill="white"/>
<path d="M41.4337 45.6183C41.1056 45.1637 40.4708 45.0613 40.0159 45.3899C37.1124 47.4879 33.8485 48.8778 30.3147 49.521C29.4959 49.6701 28.6609 49.4506 28.0238 48.919C27.3912 48.3913 27.0286 47.6159 27.0286 46.792V39.3476H27.1172C28.2932 39.3476 29.25 38.3909 29.25 37.2148V35.5001C32.6903 34.1869 35.1407 30.853 35.1407 26.9571V22.1486C36.7775 21.7015 37.9844 20.2023 37.9844 18.4258C37.9844 16.47 36.5216 14.8504 34.6329 14.6009V8.26954C34.6329 6.58949 33.266 5.22266 31.586 5.22266C29.9059 5.22266 28.5391 6.58949 28.5391 8.26954V14.5664H23.461V8.26954C23.461 6.58949 22.0941 5.22266 20.4141 5.22266C18.734 5.22266 17.3672 6.58949 17.3672 8.26954V14.6009C15.4784 14.8504 14.0156 16.4699 14.0156 18.4258C14.0156 20.2023 15.2226 21.7015 16.8594 22.1486V26.9571C16.8594 30.853 19.3098 34.1869 22.75 35.5001V37.2149C22.75 38.391 23.7068 39.3477 24.8828 39.3477H24.9973V46.7921C24.9973 48.2202 25.6261 49.5639 26.7223 50.4787C27.5973 51.2087 28.6877 51.5982 29.8077 51.5982C30.0971 51.5982 30.3883 51.5722 30.6784 51.5194C34.5126 50.8215 38.0544 49.3132 41.2053 47.0363C41.66 46.7078 41.7622 46.0729 41.4337 45.6183ZM30.5704 8.26954C30.5704 7.70952 31.0261 7.25391 31.5861 7.25391C32.1461 7.25391 32.6017 7.70952 32.6017 8.26954V14.5664H30.5704V8.26954ZM19.3986 8.26954C19.3986 7.70952 19.8542 7.25391 20.4142 7.25391C20.9742 7.25391 21.4298 7.70952 21.4298 8.26954V14.5664H19.3986V8.26954ZM16.047 18.4258C16.047 17.4178 16.8671 16.5977 17.8751 16.5977H34.1251C35.1332 16.5977 35.9533 17.4178 35.9533 18.4258C35.9533 19.4338 35.1332 20.2539 34.1251 20.2539H17.8751C16.8671 20.2539 16.047 19.4338 16.047 18.4258ZM18.8907 26.9571V22.2852H33.1095V26.9571C33.1095 30.8772 29.9202 34.0665 26.0001 34.0665C22.08 34.0665 18.8907 30.8772 18.8907 26.9571ZM26.0386 37.3165C26.0301 37.3163 26.0217 37.3152 26.0131 37.3152C26.0046 37.3152 25.9962 37.3163 25.9876 37.3165H24.8831C24.8269 37.3165 24.7814 37.2709 24.7814 37.2149V36.0163C25.1802 36.0697 25.587 36.0977 26.0001 36.0977C26.4133 36.0977 26.82 36.0697 27.2189 36.0163V37.2149C27.2189 37.2709 27.1734 37.3165 27.1173 37.3165H26.0386Z" fill="white"/>
<path d="M44.3596 42.8669C43.9571 42.4911 43.33 42.5056 42.945 42.8947C42.9372 42.9026 42.9294 42.9108 42.922 42.9186C42.5392 43.3287 42.5614 43.9713 42.9714 44.3541C43.1673 44.5368 43.416 44.6272 43.6642 44.6272C43.9265 44.6272 44.1883 44.5261 44.386 44.3262C44.3938 44.3183 44.4016 44.3102 44.4091 44.3024C44.7919 43.8923 44.7696 43.2497 44.3596 42.8669Z" fill="white"/>
<path d="M51.931 24.0436C51.4785 17.8261 48.7986 11.9712 44.3852 7.55761C40.0472 3.21936 34.2525 0.563903 28.0684 0.0805657C21.9597 -0.397084 15.8801 1.26062 10.9474 4.74788C10.4893 5.07166 10.3806 5.70552 10.7043 6.16346C11.028 6.62141 11.662 6.73039 12.1199 6.4065C21.5524 -0.261802 34.8059 0.850411 42.9489 8.99391C51.3641 17.4095 52.3816 30.4781 45.3682 40.068C45.0371 40.5208 45.1357 41.1562 45.5885 41.4874C45.7693 41.6196 45.9792 41.6833 46.1873 41.6833C46.5002 41.6833 46.809 41.5392 47.0079 41.2671C50.6305 36.3135 52.379 30.1968 51.931 24.0436Z" fill="white"/>
<path d="M8.92849 7.67516C8.53006 7.28039 7.88697 7.28303 7.49209 7.68156L7.47554 7.69842C7.08066 8.09675 7.08361 8.73984 7.48194 9.13472C7.67998 9.33094 7.93846 9.42895 8.19694 9.42895C8.45826 9.42895 8.71968 9.3286 8.91834 9.12832L8.93489 9.11146C9.32977 8.71313 9.32682 8.07004 8.92849 7.67516Z" fill="white"/>
<path d="M28.2902 26.581C28.1082 26.2688 27.7741 26.0768 27.4127 26.0768H26.687L28.0237 24.3882C28.3719 23.9485 28.2975 23.3096 27.8578 22.9616C27.418 22.6133 26.7792 22.6878 26.431 23.1274L23.7912 26.462C23.5495 26.7674 23.5037 27.1842 23.6733 27.5347C23.8429 27.8853 24.1981 28.1081 24.5875 28.1081H25.6702L24.4265 30.3041C24.15 30.7922 24.3217 31.4119 24.8096 31.6883C24.9678 31.7778 25.1395 31.8204 25.3093 31.8204C25.6634 31.8203 26.0072 31.6349 26.1941 31.3051L28.2965 27.5929C28.4747 27.2785 28.4722 26.8932 28.2902 26.581Z" fill="white"/>
</svg>
