<svg width="122" height="100" viewBox="0 0 122 100" fill="none" xmlns="http://www.w3.org/2000/svg">
<path d="M17.6469 48.4002C18.1185 48.4002 18.5706 48.2129 18.904 47.8795C19.2375 47.5461 19.4248 47.0939 19.4248 46.6224V37.9313C28.3598 38.0614 32.9975 39.1741 37.8902 40.3491C43.0686 41.5919 48.4234 42.8772 58.9632 42.8772C59.4347 42.8772 59.8869 42.6898 60.2203 42.3564C60.5537 42.023 60.741 41.5709 60.741 41.0993V10.015C60.741 9.54348 60.5537 9.09129 60.2203 8.75788C59.8869 8.42448 59.4347 8.23717 58.9632 8.23717C48.8449 8.23717 43.9272 7.05695 38.7199 5.8075C33.8413 4.63652 28.8045 3.4288 19.4248 3.29274V1.77781C19.4248 1.3063 19.2375 0.854111 18.904 0.520707C18.5706 0.187304 18.1185 0 17.6469 0C17.1754 0 16.7233 0.187304 16.3898 0.520707C16.0564 0.854111 15.8691 1.3063 15.8691 1.77781V46.6226C15.8691 47.0941 16.0564 47.5463 16.3898 47.8797C16.7233 48.2131 17.1754 48.4004 17.6469 48.4004V48.4002ZM35.4608 8.69158C36.2767 8.87837 37.0791 9.07085 37.8883 9.26498C42.7671 10.4357 47.8031 11.6444 57.1835 11.7802V16.0375C48.2487 15.9073 43.6108 14.7947 38.7192 13.6197C37.6672 13.3672 36.5875 13.1091 35.4618 12.8611L35.4608 8.69158ZM35.4608 16.5059C36.2878 16.6955 37.0964 16.888 37.8886 17.0781C42.7671 18.2491 47.8038 19.4568 57.1837 19.5929V24.003C48.2487 23.8729 43.611 22.7602 38.7182 21.5852C37.6546 21.3299 36.5827 21.0729 35.4608 20.8267V16.5059ZM19.4248 6.84811C24.8167 6.92681 28.644 7.36297 31.9061 7.95486V20.1264C28.6276 19.5661 24.7174 19.1482 19.4248 19.0714V6.84811ZM19.4248 22.6267C28.3598 22.7569 32.9975 23.8695 37.8902 25.0446C42.7688 26.2155 47.8057 27.4233 57.1854 27.5593V31.7232C48.2504 31.5931 43.6127 30.4804 38.7199 29.3054C33.8413 28.1344 28.8045 26.9267 19.4248 26.7906V22.6267ZM19.4248 30.346C28.3598 30.4761 32.9975 31.5888 37.8902 32.7638C42.7688 33.9348 47.8057 35.1425 57.1854 35.2786V39.3083C48.2504 39.1781 43.6127 38.0652 38.7199 36.8904C33.8413 35.7195 28.8045 34.5117 19.4248 34.3757V30.346Z" fill="#B8D1E6"/>
<path d="M69.5272 100H63.8595C63.6261 100.001 63.3948 99.9549 63.1792 99.8654C62.9635 99.7758 62.7678 99.6444 62.6032 99.4787L49.8599 86.7345H27.8348C27.6013 86.7349 27.3701 86.689 27.1544 86.5995C26.9388 86.51 26.743 86.3786 26.5785 86.213L0.521483 60.1593C0.35576 59.9949 0.224333 59.7991 0.134816 59.5835C0.0452983 59.3678 -0.000517823 59.1365 4.41472e-06 58.903V25.4739C0.000506385 25.0025 0.187986 24.5506 0.52128 24.2173C0.854575 23.884 1.30646 23.6966 1.77781 23.6961H10.536C11.0073 23.6966 11.4592 23.8841 11.7925 24.2174C12.1258 24.5507 12.3132 25.0025 12.3138 25.4739C12.3132 25.9452 12.1258 26.397 11.7925 26.7303C11.4592 27.0636 11.0073 27.2511 10.536 27.2517H3.55562V58.263L22.3212 76.9321L28.5701 83.1808H28.6021L28.6239 83.2026H50.8711C51.243 83.2602 51.5867 83.4351 51.8523 83.7018L64.5956 96.4461H68.7912L72.1652 93.0718L70.0452 90.951C69.7961 90.7027 69.6264 90.386 69.5578 90.041C69.4892 89.6961 69.5248 89.3385 69.66 89.0139L71.621 84.2785C71.738 83.9961 71.9258 83.7486 72.1662 83.5598C72.4046 83.373 72.6866 83.2501 72.9856 83.2026H94.3724L94.4013 83.1808H99.7507C99.9841 83.1803 100.215 83.2261 100.431 83.3157C100.647 83.4052 100.842 83.5366 101.007 83.7023L109.538 92.2334L112.11 89.661V86.3493L108.538 82.7764C108.205 82.4426 108.018 81.9912 108.016 81.5201C108.016 78.9411 108.016 77.5117 108.016 74.9166C108.016 74.6831 108.061 74.4518 108.151 74.2361C108.24 74.0205 108.372 73.8247 108.538 73.6602L113.175 69.0218L113.543 68.7445V68.6539L113.572 68.6243V60.6834H113.543V57.1278H113.572V40.6589C113.572 40.4254 113.618 40.1942 113.707 39.9785C113.797 39.7629 113.928 39.5671 114.094 39.4026L117.809 35.6832V30.3716L113.419 25.9823L97.4879 41.9134C97.3234 42.0791 97.1276 42.2105 96.912 42.3C96.6963 42.3896 96.465 42.4354 96.2315 42.4348H87.7929C87.655 42.435 87.5175 42.4191 87.3833 42.3874L74.3823 29.5929L72.074 27.2526H66.0475C65.5761 27.2521 65.1242 27.0646 64.791 26.7313C64.4577 26.398 64.2702 25.9461 64.2697 25.4748C64.2702 25.0035 64.4576 24.5515 64.7909 24.2183C65.1242 23.885 65.5761 23.6975 66.0475 23.697H72.8176C73.053 23.6976 73.2861 23.7447 73.5033 23.8355C73.7206 23.9263 73.9178 24.0591 74.0836 24.2263L88.5367 38.8795H95.4967L112.164 22.2119C112.329 22.0463 112.525 21.9149 112.74 21.8254C112.956 21.7359 113.187 21.69 113.421 21.6904C113.654 21.69 113.885 21.7358 114.101 21.8254C114.317 21.9149 114.512 22.0463 114.677 22.2119L120.845 28.379C121.01 28.5436 121.142 28.7393 121.231 28.955C121.321 29.1706 121.367 29.4019 121.366 29.6354V36.4197C121.367 36.6532 121.321 36.8845 121.231 37.1001C121.142 37.3158 121.01 37.5115 120.845 37.676L117.128 41.3924V69.3577C117.129 69.5912 117.083 69.8225 116.994 70.0382C116.904 70.2538 116.773 70.4495 116.607 70.614L111.572 75.65C111.572 77.5977 111.572 78.9401 111.572 80.7798L115.145 84.3529C115.311 84.5174 115.442 84.7132 115.531 84.9288C115.621 85.1445 115.667 85.3757 115.666 85.6092V90.3937C115.667 90.6272 115.621 90.8584 115.531 91.0741C115.442 91.2898 115.311 91.4855 115.145 91.65L110.795 96.0002C110.63 96.1659 110.434 96.2973 110.219 96.3868C110.003 96.4763 109.772 96.5221 109.538 96.5217C109.305 96.5221 109.074 96.4763 108.858 96.3867C108.642 96.2972 108.447 96.1658 108.282 96.0002L99.0137 86.7319H74.4506L73.3983 89.2722L75.9347 91.8102C76.1003 91.9748 76.2317 92.1705 76.3212 92.3862C76.4107 92.6018 76.4566 92.8331 76.4561 93.0666C76.4566 93.3 76.4107 93.5313 76.3212 93.7469C76.2317 93.9626 76.1003 94.1583 75.9347 94.3229L70.7828 99.4747C70.6187 99.6411 70.4233 99.7732 70.2077 99.8634C69.9922 99.9536 69.7609 100 69.5272 100Z" fill="#B8D1E6"/>
</svg>
