<svg width="575" height="576" viewBox="0 0 575 576" fill="none" xmlns="http://www.w3.org/2000/svg">
<path d="M381.476 384L381 383.515V347.354L427.574 358.107L381.476 384ZM443.113 349.379L381 335.039V289.671L500.357 317.227L443.113 349.38V349.379ZM515.9 308.5L381 277.356V232.886L575 275.3L515.9 308.5Z" fill="#139B47"/>
<path d="M194 576V336.338L247 347.125V521.7L194 576ZM262 506.331V350.179L319 361.779V447.931L262 506.331ZM334 432.565V364.834L369.881 372.134L381.432 383.965L334 432.563V432.565Z" fill="#00394C"/>
<path d="M381 384L334 335.865V48.153L381 0V384ZM318 319.478L262 262.124V121.92L318 64.546V319.474V319.478ZM247 246.757L193.567 192.032L247 137.288V246.757Z" fill="#00394C"/>
<path d="M381 384L0 300.7L53.38 270.718L333.542 335.4L381 384ZM318.018 319.5L68.918 261.989L124.9 230.545L262.087 262.217L318.015 319.495L318.018 319.5ZM246.562 246.32L140.443 221.82L193.524 192L246.559 246.315L246.562 246.32Z" fill="#139B47"/>
</svg>
