<svg width="26" height="24" viewBox="0 0 26 24" fill="none" xmlns="http://www.w3.org/2000/svg">
<path d="M3.84476 0C2.0036 0 0.799805 1.209 0.799805 2.79807C0.799805 4.35204 1.96774 5.59553 3.77411 5.59553H3.80906C5.68624 5.59553 6.85448 4.35204 6.85448 2.79807C6.81938 1.209 5.68624 0 3.84476 0Z" fill="white"/>
<path d="M1.11792 7.80664H6.50043V24.0001H1.11792V7.80664Z" fill="white"/>
<path d="M19.712 7.42578C16.8084 7.42578 14.8613 10.1543 14.8613 10.1543V7.80585H9.47864V23.9993H14.861V14.9563C14.861 14.4721 14.8961 13.9888 15.0383 13.6426C15.4274 12.6759 16.3129 11.6744 17.7999 11.6744C19.7476 11.6744 20.5266 13.1594 20.5266 15.3363V23.9993H25.9086V14.7143C25.9086 9.74034 23.2531 7.42578 19.712 7.42578Z" fill="white"/>
</svg>
