<svg width="52" height="42" viewBox="0 0 52 42" fill="none" xmlns="http://www.w3.org/2000/svg">
<path d="M51.1333 8.66667H39V4.31968C38.999 3.40421 38.6349 2.52652 37.9876 1.87918C37.3402 1.23183 36.4626 0.867699 35.5471 0.866667H32.9333C32.9333 0.636812 32.842 0.416372 32.6795 0.253841C32.517 0.0913094 32.2965 0 32.0667 0H19.9333C19.7035 0 19.483 0.0913094 19.3205 0.253841C19.158 0.416372 19.0667 0.636812 19.0667 0.866667H16.4529C15.5374 0.867699 14.6598 1.23183 14.0124 1.87918C13.3651 2.52652 13.001 3.40421 13 4.31968V8.66667H0.866667C0.636812 8.66667 0.416372 8.75797 0.253841 8.92051C0.0913092 9.08304 0 9.30348 0 9.53333V38.1513C0.0010609 39.0657 0.364759 39.9422 1.01131 40.5888C1.65785 41.2353 2.53445 41.599 3.44879 41.6H10.4V39.8667H3.44879C2.994 39.8661 2.55798 39.6853 2.23639 39.3637C1.91479 39.0421 1.73388 38.6061 1.73333 38.1513V23.6445C2.38275 24.3847 3.18268 24.9777 4.07965 25.3839C4.97662 25.7901 5.94997 26.0001 6.93463 26H9.53333C9.53333 26.9194 9.89857 27.8012 10.5487 28.4513C11.1988 29.1014 12.0806 29.4667 13 29.4667C13.9194 29.4667 14.8012 29.1014 15.4513 28.4513C16.1014 27.8012 16.4667 26.9194 16.4667 26H31.2V24.2667H16.4667V21.6667C16.4667 21.4368 16.3754 21.2164 16.2128 21.0538C16.0503 20.8913 15.8299 20.8 15.6 20.8H10.4C10.1701 20.8 9.94971 20.8913 9.78717 21.0538C9.62464 21.2164 9.53333 21.4368 9.53333 21.6667V24.2667H6.93463C5.55564 24.2651 4.23357 23.7166 3.25847 22.7415C2.28337 21.7664 1.73488 20.4444 1.73333 19.0654V10.4H50.2667V19.0654C50.2651 20.4444 49.7166 21.7664 48.7415 22.7415C47.7664 23.7166 46.4444 24.2651 45.0654 24.2667H42.4667V21.6667C42.4667 21.4368 42.3754 21.2164 42.2128 21.0538C42.0503 20.8913 41.8299 20.8 41.6 20.8H36.4C36.1701 20.8 35.9497 20.8913 35.7872 21.0538C35.6246 21.2164 35.5333 21.4368 35.5333 21.6667V24.2667H32.9333V26H35.5333C35.5333 26.9194 35.8986 27.8012 36.5487 28.4513C37.1988 29.1014 38.0806 29.4667 39 29.4667C39.9194 29.4667 40.8012 29.1014 41.4513 28.4513C42.1014 27.8012 42.4667 26.9194 42.4667 26H45.0654C46.05 26.0001 47.0234 25.7901 47.9204 25.3839C48.8173 24.9777 49.6172 24.3847 50.2667 23.6445V38.1513C50.2661 38.6061 50.0852 39.0421 49.7636 39.3637C49.442 39.6853 49.006 39.8661 48.5512 39.8667H12.1333V41.6H48.5512C49.4655 41.599 50.3421 41.2353 50.9887 40.5888C51.6352 39.9422 51.9989 39.0657 52 38.1513V9.53333C52 9.30348 51.9087 9.08304 51.7462 8.92051C51.5836 8.75797 51.3632 8.66667 51.1333 8.66667ZM11.2667 22.5333H14.7333V26C14.7333 26.4597 14.5507 26.9006 14.2257 27.2257C13.9006 27.5507 13.4597 27.7333 13 27.7333C12.5403 27.7333 12.0994 27.5507 11.7743 27.2257C11.4493 26.9006 11.2667 26.4597 11.2667 26V22.5333ZM35.5471 2.6C36.003 2.60054 36.4401 2.7819 36.7625 3.10429C37.0848 3.42668 37.2662 3.86377 37.2667 4.31968V8.66667H35.5333V5.2C35.5333 4.97015 35.442 4.74971 35.2795 4.58717C35.117 4.42464 34.8965 4.33333 34.6667 4.33333H32.9333V2.6H35.5471ZM20.8 1.73333H31.2V5.2H20.8V1.73333ZM32.0667 6.93333C32.2965 6.93333 32.517 6.84202 32.6795 6.67949C32.842 6.51696 32.9333 6.29652 32.9333 6.06667H33.8V8.66667H18.2V6.06667H19.0667C19.0667 6.29652 19.158 6.51696 19.3205 6.67949C19.483 6.84202 19.7035 6.93333 19.9333 6.93333H32.0667ZM14.7333 4.31968C14.7338 3.86377 14.9152 3.42668 15.2375 3.10429C15.5599 2.7819 15.997 2.60054 16.4529 2.6H19.0667V4.33333H17.3333C17.1035 4.33333 16.883 4.42464 16.7205 4.58717C16.558 4.74971 16.4667 4.97015 16.4667 5.2V8.66667H14.7333V4.31968ZM40.7333 26C40.7333 26.4597 40.5507 26.9006 40.2257 27.2257C39.9006 27.5507 39.4597 27.7333 39 27.7333C38.5403 27.7333 38.0994 27.5507 37.7743 27.2257C37.4493 26.9006 37.2667 26.4597 37.2667 26V22.5333H40.7333V26Z" fill="#129B46"/>
<path d="M30.3333 13.8672H21.6667C21.4368 13.8672 21.2164 13.9585 21.0538 14.121C20.8913 14.2836 20.8 14.504 20.8 14.7339V19.9339C20.8 20.1637 20.8913 20.3841 21.0538 20.5467C21.2164 20.7092 21.4368 20.8005 21.6667 20.8005H30.3333C30.5632 20.8005 30.7836 20.7092 30.9461 20.5467C31.1087 20.3841 31.2 20.1637 31.2 19.9339V14.7339C31.2 14.504 31.1087 14.2836 30.9461 14.121C30.7836 13.9585 30.5632 13.8672 30.3333 13.8672ZM29.4667 19.0672H22.5333V15.6005H29.4667V19.0672Z" fill="#129B46"/>
</svg>
