<svg width="25" height="24" viewBox="0 0 25 24" fill="none" xmlns="http://www.w3.org/2000/svg">
<path d="M22.8741 15.7533C21.4047 15.7533 19.9619 15.5234 18.5947 15.0716C17.9248 14.8431 17.1012 15.0528 16.6924 15.4727L13.9938 17.5098C10.8642 15.8393 8.93649 13.9121 7.28874 10.8061L9.26593 8.17781C9.77962 7.66481 9.96387 6.91544 9.74312 6.21231C9.28937 4.83794 9.05887 3.39587 9.05887 1.92587C9.05893 0.863937 8.19499 0 7.13312 0H2.72562C1.66374 0 0.799805 0.863937 0.799805 1.92581C0.799805 14.0977 10.7022 24 22.8741 24C23.9359 24 24.7999 23.1361 24.7999 22.0742V17.679C24.7998 16.6172 23.9359 15.7533 22.8741 15.7533Z" fill="white"/>
</svg>
