<svg width="52" height="52" viewBox="0 0 52 52" fill="none" xmlns="http://www.w3.org/2000/svg">
<path d="M30.7761 6.25314C30.2299 6.12162 29.6822 6.45728 29.5508 7.00247C29.4194 7.54775 29.7548 8.09639 30.3001 8.22781C38.5319 10.2122 44.281 17.52 44.281 25.999C44.281 36.0792 36.0802 44.2802 25.9999 44.2802C15.9196 44.2802 7.71874 36.0792 7.71874 25.999C7.71874 17.5203 13.4675 10.2125 21.6989 8.22791C22.2442 8.09639 22.5797 7.54775 22.4483 7.00257C22.3167 6.45728 21.7679 6.12203 21.2229 6.25324C16.8679 7.30329 12.9224 9.82071 10.1131 13.3418C7.21783 16.9705 5.6875 21.3473 5.6875 25.999C5.6875 37.1993 14.7996 46.3114 25.9999 46.3114C37.2001 46.3114 46.3123 37.1994 46.3123 25.999C46.3123 21.3472 44.7819 16.9703 41.8865 13.3415C39.0771 9.82051 35.1313 7.30309 30.7761 6.25314Z" fill="#129B46"/>
<path d="M51.3879 23.5571L50.1998 21.3403L50.3979 18.5997C50.5884 16.8431 49.8878 15.1288 48.5211 14.0108L46.5488 12.3957L45.773 10.0586C45.3385 8.27161 43.9813 6.83532 42.2205 6.30344L39.7859 5.56793L37.9214 3.41278C36.8183 2.11513 35.1485 1.44015 33.4545 1.60661L30.9277 1.85838L28.4438 0.612317C26.913 -0.203733 25.088 -0.204444 23.557 0.612215L21.3403 1.80029L18.5999 1.60204C16.8426 1.41151 15.1288 2.11228 14.0109 3.4788L12.3958 5.45113L10.0587 6.22696C8.27166 6.66145 6.83537 8.01862 6.30349 9.7794L5.56808 12.2139L3.41294 14.0785C2.11538 15.1817 1.44 16.8512 1.60666 18.5454L1.85843 21.0723L0.612368 23.5562C-0.203784 25.087 -0.204393 26.912 0.612164 28.443L1.80034 30.6597L1.60209 33.4003C1.41166 35.1569 2.11233 36.8711 3.47885 37.9892L5.45118 39.6043L6.22701 41.9414C6.66139 43.7284 8.01857 45.1647 9.77955 45.6966L12.214 46.432L14.0786 48.5872C15.1818 49.8848 16.8509 50.5602 18.5455 50.3934L21.0722 50.1416L23.5559 51.3875C24.3216 51.7958 25.1609 52 26.0002 52C26.8389 52 27.6776 51.7961 28.4429 51.3879L30.6597 50.1998L33.4001 50.3981C35.1566 50.5882 36.871 49.8878 37.9892 48.5213L39.6042 46.549L41.9415 45.7732C43.7283 45.3388 45.1645 43.9816 45.6964 42.2207L46.4319 39.7863L48.5872 37.9217C49.8847 36.8185 50.5601 35.1491 50.3934 33.4547L50.1416 30.928L51.3875 28.4441C52.2037 26.9132 52.2045 25.0881 51.3879 23.5571ZM49.5908 27.4963C49.5863 27.5046 49.582 27.5129 49.5778 27.5212L48.1939 30.2802C48.1077 30.452 48.072 30.6449 48.091 30.8363L48.3721 33.6547C48.4734 34.6852 48.062 35.7019 47.2648 36.3797L44.8804 38.4426C44.7349 38.5684 44.6283 38.7329 44.5727 38.9169L43.752 41.6332C43.4249 42.7162 42.5361 43.5489 41.4326 43.8062C41.4025 43.8132 41.3726 43.8216 41.3433 43.8314L38.685 44.7136C38.5025 44.7743 38.3409 44.8854 38.2191 45.0342L36.4174 47.2346C35.7331 48.0711 34.6818 48.4982 33.6061 48.3772C33.5927 48.3757 33.5792 48.3744 33.5659 48.3734L30.5127 48.1526C30.3204 48.1388 30.1291 48.1796 29.9597 48.2704L27.4852 49.5966C26.5521 50.0943 25.4376 50.0923 24.5037 49.5909C24.4954 49.5865 24.487 49.5821 24.4787 49.5779L21.7199 48.1941C21.5781 48.123 21.4221 48.0862 21.2645 48.0862C21.231 48.0862 21.1973 48.0878 21.1637 48.0912L18.3454 48.372C17.3149 48.4738 16.2982 48.0619 15.6204 47.2649L13.5574 44.8804C13.4317 44.735 13.2672 44.6282 13.0831 44.5727L10.3668 43.7522C9.28362 43.425 8.45102 42.5363 8.19376 41.4327C8.18675 41.4025 8.17832 41.3728 8.16857 41.3433L7.2863 38.6849C7.22577 38.5024 7.11467 38.3409 6.96588 38.2192L4.76554 36.4174C3.92907 35.733 3.50191 34.6821 3.62297 33.6061C3.62449 33.5927 3.62571 33.5793 3.62672 33.5658L3.84752 30.5125C3.86143 30.3208 3.8205 30.1291 3.72971 29.9595L2.40341 27.4853C1.90576 26.5521 1.90789 25.4376 2.4091 24.5037C2.41357 24.4955 2.41783 24.4872 2.422 24.4789L3.80588 21.7199C3.89211 21.5481 3.92775 21.3552 3.90866 21.1639L3.62784 18.3453C3.52648 17.3148 3.93791 16.2981 4.73507 15.6203L7.11954 13.5574C7.26498 13.4316 7.37162 13.2671 7.42727 13.0831L8.24789 10.3667C8.57502 9.28367 9.46379 8.45107 10.5674 8.19371C10.5975 8.1867 10.6273 8.17827 10.6567 8.16852L13.3149 7.28615C13.4974 7.22562 13.6589 7.11451 13.7807 6.96572L15.5826 4.76528C16.2669 3.92892 17.3182 3.50196 18.3938 3.62281C18.4072 3.62434 18.4206 3.62556 18.434 3.62657L21.4872 3.84737C21.6784 3.86098 21.8707 3.82035 22.0402 3.72956L24.5146 2.40336C25.4476 1.90571 26.5622 1.90774 27.496 2.40905C27.5042 2.41342 27.5126 2.41778 27.521 2.42195L30.2799 3.80583C30.4518 3.89206 30.6446 3.92781 30.836 3.90861L33.6544 3.62779C34.6849 3.52623 35.7016 3.93786 36.3794 4.73502L38.4423 7.11949C38.5681 7.26493 38.7326 7.37157 38.9167 7.42722L41.633 8.24784C42.7161 8.57497 43.5487 9.46384 43.806 10.5673C43.813 10.5975 43.8215 10.6272 43.8312 10.6567L44.7136 13.3149C44.7742 13.4974 44.8852 13.6589 45.034 13.7806L47.2345 15.5824C48.0709 16.2668 48.498 17.3176 48.3769 18.3937C48.3754 18.4071 48.3742 18.4205 48.3733 18.434L48.1525 21.4872C48.1386 21.679 48.1795 21.8707 48.2702 22.0403L49.5965 24.5146C50.0942 25.448 50.0921 26.5625 49.5908 27.4963Z" fill="#129B46"/>
<path d="M21.5925 20.4661C21.4296 20.1229 21.0808 19.8849 20.6755 19.8849H15.3093C14.7484 19.8849 14.2937 20.3396 14.2937 20.9005V36.2735C14.2937 36.8345 14.7484 37.2892 15.3093 37.2892H20.6755C21.0965 37.2892 21.4576 37.0331 21.6115 36.6682C22.3857 36.7769 23.1833 36.9971 24.0137 37.227C25.2621 37.5726 26.5528 37.93 27.894 37.93H33.757C35.5695 37.93 37.0382 36.9691 37.6858 35.3595C38.0013 34.5752 38.0565 33.7613 37.8722 33.0799C38.2094 32.7768 38.4944 32.3994 38.7099 31.9587C39.1467 31.0657 39.234 30.0616 38.9863 29.2159C39.4478 28.77 39.7921 28.1813 39.9721 27.4871C40.1404 26.8381 40.1374 26.1978 39.9877 25.643C40.9038 25.1041 41.5208 24.125 41.5208 23.0218C41.5208 22.1566 41.1839 21.3594 40.5721 20.777C39.9847 20.2178 39.2023 19.9098 38.369 19.9098L30.1049 19.91C29.477 19.1224 29.2816 18.0535 29.6391 17.1932C30.3728 15.4274 30.3273 13.9328 29.4919 12.347C28.8718 11.17 27.2044 9.99815 25.8029 10.1982C24.9558 10.3193 24.3428 10.918 24.1631 11.8C24.1102 12.0594 24.0956 12.3398 24.0789 12.6644C24.0374 13.4651 23.9806 14.5617 23.2893 15.886C22.8208 16.7837 22.6645 17.707 22.5266 18.5216C22.3291 19.6886 22.2333 20.2507 21.5925 20.4661ZM16.3249 21.9161H19.6599V35.2579H16.3249V21.9161ZM24.5294 18.8606C24.6477 18.1618 24.77 17.4391 25.0901 16.826C25.9862 15.1092 26.0621 13.6445 26.1075 12.7695C26.1196 12.5364 26.1309 12.3162 26.1535 12.2055C26.1536 12.2048 26.1538 12.204 26.154 12.2033C26.5063 12.2081 27.3734 12.6838 27.6948 13.2939C28.2512 14.3498 28.2696 15.1955 27.7634 16.414C27.3069 17.5127 27.3413 18.7876 27.7928 19.9212C27.2987 19.9899 26.918 20.4129 26.918 20.9259C26.918 21.4867 27.3728 21.9415 27.9337 21.9415L38.369 21.9412C38.6785 21.9412 38.9636 22.0503 39.1716 22.2483C39.3167 22.3864 39.4896 22.6328 39.4896 23.0219C39.4896 23.5667 38.9902 24.0378 38.399 24.0507L35.7849 24.1075C35.2242 24.1197 34.7794 24.5842 34.7916 25.145C34.8037 25.6983 35.2559 26.1386 35.8066 26.1386C35.8141 26.1386 35.8216 26.1386 35.8292 26.1384L38.0063 26.091C38.0773 26.2922 38.1142 26.676 37.9647 27.1157C37.8375 27.4897 37.4959 28.1169 36.6367 28.1169C36.0759 28.1169 35.6211 28.5716 35.6211 29.1325C35.6211 29.6934 36.0759 30.1481 36.6367 30.1481C36.7907 30.1481 36.9418 30.1386 37.0897 30.1198C37.1023 30.4072 37.0432 30.7439 36.8854 31.0663C36.699 31.4473 36.3304 31.9017 35.6335 31.9017C35.0727 31.9017 34.6179 32.3564 34.6179 32.9173C34.6179 33.4782 35.0727 33.9329 35.6335 33.9329C35.7386 33.9329 35.8426 33.9283 35.9453 33.919C35.9426 34.1139 35.903 34.3576 35.7922 34.6241C35.633 35.0074 35.1157 35.8988 33.7572 35.8988H27.8942C26.8291 35.8988 25.7249 35.5931 24.5559 35.2694C23.6257 35.0118 22.6719 34.748 21.6914 34.6302V22.5216C23.9779 22.1073 24.2932 20.2562 24.5294 18.8606Z" fill="#129B46"/>
<path d="M26.0003 7.71875C26.5612 7.71875 27.0159 7.26405 27.0159 6.70312C27.0159 6.14219 26.5612 5.6875 26.0003 5.6875H25.9996C25.4387 5.6875 24.9844 6.14219 24.9844 6.70312C24.9844 7.26405 25.4394 7.71875 26.0003 7.71875Z" fill="#129B46"/>
</svg>
