<svg width="52" height="49" viewBox="0 0 52 49" fill="none" xmlns="http://www.w3.org/2000/svg">
<path d="M25.1225 18.1005C25.4613 18.4222 26.0247 18.3572 26.2821 17.9688L31.3519 10.3175C31.5844 9.96675 31.4884 9.49385 31.1377 9.26137C30.7874 9.02929 30.3145 9.12529 30.082 9.4756L25.5133 16.3707L22.9746 13.9602C22.6695 13.6706 22.1875 13.6833 21.8975 13.9884C21.6079 14.2935 21.6206 14.7755 21.9257 15.0651C21.9253 15.0651 25.1197 18.0981 25.1225 18.1005Z" fill="#129B46"/>
<path d="M25.6423 29.7189C25.7879 29.7856 25.9489 29.8209 26.1092 29.8209H26.1156C26.2786 29.8201 26.4421 29.7828 26.5881 29.713C38.1709 24.2044 40.134 12.3192 40.4593 8.80777C40.5339 8.00598 40.0824 7.25934 39.3361 6.94989C37.0303 5.99258 35.4629 3.85184 35.2455 1.36316C35.1784 0.597076 34.5238 0 33.7526 0H33.7435L18.1385 0.0916443C17.3518 0.0960082 16.7127 0.693878 16.6524 1.48218C16.4604 3.97165 14.9159 6.12787 12.6216 7.10938C11.8829 7.42517 11.4425 8.17578 11.5267 8.97717C11.8932 12.4846 13.9955 24.3464 25.6423 29.7189ZM13.2207 8.50983C16.0339 7.30695 17.9291 4.66592 18.1699 1.61469L33.73 1.52344C34.0065 4.56793 35.9286 7.18475 38.7521 8.35669C38.8783 8.40945 38.9549 8.53403 38.9426 8.66733C38.6371 11.9582 36.8094 23.0543 26.1064 28.2542C15.342 23.1808 13.3857 12.1062 13.0414 8.81888C13.0275 8.68597 13.0997 8.5618 13.2207 8.50983Z" fill="#129B46"/>
<path d="M15.1227 12.7318C15.2147 13.0706 15.6444 13.3808 16.0578 13.2669C16.4632 13.1551 16.7032 12.7381 16.5929 12.3322C16.3989 11.6173 16.2359 10.8925 16.1077 10.1744C18.1771 8.82596 19.7128 6.81335 20.4662 4.46274L31.4667 4.39807C32.2475 6.73917 33.8066 8.73431 35.8918 10.0582C35.7724 10.7783 35.6177 11.5055 35.4316 12.2231C35.3261 12.6306 35.5708 13.0464 35.9779 13.1519C36.3857 13.2574 36.8011 13.0126 36.9066 12.6052C37.1248 11.7625 37.3026 10.9072 37.4343 10.063C37.5081 9.59125 37.2923 9.12747 36.8852 8.8815C34.9428 7.70837 33.5071 5.86795 32.8425 3.69943C32.693 3.21185 32.2332 2.87305 31.723 2.87305H31.7158L20.1988 2.94049C19.6854 2.94366 19.226 3.28922 19.082 3.78036C18.4433 5.95642 17.0289 7.81351 15.1005 9.00964C14.6962 9.25998 14.4863 9.72614 14.5653 10.1974C14.7073 11.0397 14.8945 11.8923 15.1227 12.7318Z" fill="#129B46"/>
<path d="M35.3667 14.9917C34.978 14.8306 34.5328 15.0163 34.3721 15.405C32.6119 19.6715 29.8252 22.9151 26.0873 25.0499C22.3203 22.9564 19.4932 19.7401 17.6834 15.4872C17.5183 15.1004 17.0708 14.9202 16.684 15.0849C16.2968 15.2495 16.1167 15.697 16.2813 16.0838C18.2566 20.7248 21.3686 24.2235 25.5307 26.4821C25.706 26.5777 25.898 26.6249 26.0896 26.6249C26.286 26.6249 26.482 26.5753 26.6605 26.4758C30.7913 24.1712 33.8596 20.6419 35.7805 15.9859C35.9412 15.5971 35.7559 15.1519 35.3667 14.9917Z" fill="#129B46"/>
<path d="M4.88718 38.9766C3.40143 38.9766 2.1922 40.1854 2.1922 41.6715C2.1922 43.1577 3.40143 44.3665 4.88718 44.3665C6.37332 44.3665 7.58255 43.1577 7.58255 41.6715C7.58255 40.1854 6.37372 38.9766 4.88718 38.9766ZM4.88718 42.8431C4.2413 42.8431 3.71564 42.3178 3.71564 41.6715C3.71564 41.0257 4.2413 40.5 4.88718 40.5C5.53345 40.5 6.05911 41.0257 6.05911 41.6715C6.05911 42.3178 5.53345 42.8431 4.88718 42.8431Z" fill="#129B46"/>
<path d="M51.4537 31.5191C50.4774 30.0845 48.5116 29.7044 47.0718 30.6717L37.114 37.3363L34.9883 37.2169L34.9339 36.6726C34.7221 34.541 33.0927 32.8426 30.9718 32.5426C30.9583 32.5406 30.9452 32.5391 30.9317 32.5379L20.2018 31.5976C19.8388 31.5409 18.6768 31.2072 15.4839 29.3759C13.8244 28.4242 11.9546 27.887 10.0551 27.814V25.8213C10.0551 24.8211 9.24179 24.0078 8.24164 24.0078H1.81345C0.81369 24.0078 0 24.8215 0 25.8213V45.4478C0 46.4476 0.81369 47.2613 1.81345 47.2613H8.24164C9.24139 47.2613 10.0551 46.4476 10.0551 45.4478V44.9071L19.4345 48.459C19.4552 48.4669 20.2169 48.7518 21.6173 48.6197C21.6213 48.6193 37.202 46.373 37.202 46.373C37.206 46.3726 37.2096 46.3718 37.2135 46.371C38.545 46.1588 39.8006 45.5958 40.8452 44.744C40.8547 44.7361 40.8638 44.7281 40.873 44.7202L50.9384 35.6673C52.1246 34.614 52.3463 32.8307 51.4537 31.5191ZM49.9231 34.5314L39.8684 43.5749C39.0361 44.2497 38.0371 44.696 36.9787 44.8658L21.4055 47.1109C21.4019 47.1113 21.3968 47.1121 21.392 47.1129C21.3896 47.1133 21.3868 47.1137 21.3845 47.1141C20.9187 47.1875 20.4335 47.1565 19.942 47.022L10.0551 43.2781V34.579C10.0551 34.1581 9.7139 33.8173 9.29337 33.8173C8.87244 33.8173 8.53165 34.1581 8.53165 34.579V45.4478C8.53165 45.6077 8.40152 45.7378 8.24164 45.7378H1.81345C1.65356 45.7378 1.52344 45.6077 1.52344 45.4478V25.8213C1.52344 25.6614 1.65356 25.5312 1.81345 25.5312H8.24164C8.40152 25.5312 8.53165 25.6614 8.53165 25.8213V31.1382C8.53165 31.5591 8.87283 31.8999 9.29337 31.8999C9.71429 31.8999 10.0551 31.5587 10.0551 31.1382V29.3391C11.6892 29.4113 13.2968 29.8778 14.7258 30.6978C18.5768 32.9064 19.6523 33.0588 20.0058 33.1088C20.0193 33.1107 20.0324 33.1119 20.0459 33.1135L30.777 34.0538C32.1917 34.2628 33.2764 35.3991 33.418 36.8233L33.4585 37.2292L19.0918 38.1163C19.0818 38.1155 19.0719 38.1147 19.0632 38.1139C18.5974 38.0718 18.1769 37.8517 17.8782 37.4938C17.6088 37.1705 17.1284 37.1268 16.8054 37.3966C16.4821 37.666 16.4384 38.1464 16.7082 38.4694C17.2672 39.1398 18.0559 39.5409 18.9275 39.6314C19.398 39.6806 34.2964 38.7038 34.2964 38.7038L37.283 38.8716C37.448 38.8812 37.6118 38.8359 37.7491 38.7439L47.9204 31.9368C48.6675 31.435 49.6875 31.6317 50.1941 32.376C50.6571 33.0568 50.542 33.982 49.9231 34.5314Z" fill="#129B46"/>
</svg>
