<svg width="24" height="22" viewBox="0 0 24 22" fill="none" xmlns="http://www.w3.org/2000/svg">
<path d="M4.8 9.45455C6.66667 12.8485 9.86667 15.6364 13.6 17.4545L16.5333 14.7879C16.9333 14.4243 17.4667 14.3031 17.8667 14.5455C19.3333 15.0303 20.9333 15.2727 22.6667 15.2727C23.4667 15.2727 24 15.7576 24 16.4848V20.6061C24 21.3333 23.4667 21.8182 22.6667 21.8182C10.1333 21.8182 0 12.6061 0 1.21212C0 0.484848 0.533333 0 1.33333 0H6C6.8 0 7.33333 0.484848 7.33333 1.21212C7.33333 2.66667 7.6 4.12121 8.13333 5.57576C8.26667 5.93939 8.13333 6.42424 7.86667 6.78788L4.8 9.45455Z" fill="#00394C"/>
</svg>
