<svg width="52" height="52" viewBox="0 0 52 52" fill="none" xmlns="http://www.w3.org/2000/svg">
<path d="M51.8854 50.5159L43.3902 34.1631L44.9327 32.8726C45.1636 32.6794 45.2969 32.3941 45.2969 32.0934V7.56642C45.2969 3.39442 41.9025 0 37.7305 0H14.2695C10.0975 0 6.70309 3.39442 6.70309 7.56642V11.0703C6.70309 11.6309 7.15814 12.086 7.71872 12.086C8.27969 12.086 8.73434 11.6309 8.73434 11.0703V7.56642C8.73434 4.51438 11.2175 2.03125 14.2695 2.03125H37.7305C40.7825 2.03125 43.2657 4.51438 43.2657 7.56642V31.6189L35.2946 38.2887H32.3984V36.8161C32.3984 36.2555 31.9438 35.8004 31.3828 35.8004C30.8218 35.8004 30.3672 36.2555 30.3672 36.8161V38.2887H27.2822V36.8161C27.2822 36.2555 26.8276 35.8004 26.267 35.8004C25.706 35.8004 25.2514 36.2555 25.2514 36.8161V38.2887H22.1664V36.8161C22.1664 36.2555 21.7118 35.8004 21.1508 35.8004C20.5902 35.8004 20.1352 36.2555 20.1352 36.8161V38.2887H16.7054L8.73434 31.6189V20.6172C8.73434 20.0562 8.27969 19.6016 7.71872 19.6016C7.15814 19.6016 6.70309 20.0562 6.70309 20.6172V32.0938C6.70309 32.3945 6.83639 32.6798 7.06729 32.8726L8.60977 34.1631L0.114608 50.5159C-0.144059 51.0134 0.0499416 51.6268 0.54744 51.8854C0.697404 51.9632 0.857285 51.9997 1.01479 51.9997C1.38176 51.9997 1.73644 51.8005 1.91695 51.4522L10.205 35.4981L11.6086 36.6725L6.26272 50.6207C6.06198 51.1443 6.32382 51.7315 6.8475 51.9326C6.96731 51.9783 7.0899 52.0001 7.2109 52.0001C7.61914 52.0001 8.00436 51.7517 8.15948 51.3475L9.23303 48.5466H35.0391C35.5997 48.5466 36.0547 48.0919 36.0547 47.5309C36.0547 46.97 35.5997 46.5153 35.0391 46.5153H10.0114L10.7938 44.4745C10.837 44.4801 10.8803 44.4841 10.9251 44.4841H41.0396C41.0959 44.4841 41.1507 44.4785 41.2043 44.4698L43.8405 51.3475C43.9956 51.7517 44.3805 52.0001 44.7891 52.0001C44.9101 52.0001 45.0327 51.9783 45.1525 51.9326C45.6762 51.7315 45.938 51.1443 45.7373 50.6207L40.3913 36.6725L41.795 35.4981L50.083 51.4522C50.264 51.8005 50.6182 51.9997 50.9852 51.9997C51.1427 51.9997 51.303 51.9632 51.4526 51.8854C51.9501 51.6268 52.1441 51.0138 51.8854 50.5159ZM40.4314 42.4528H11.5686L13.2559 38.0507L15.685 40.0835C15.8675 40.2363 16.0984 40.32 16.3369 40.32H35.6635C35.902 40.32 36.1325 40.2363 36.315 40.0835L38.7441 38.0507L40.4314 42.4528Z" fill="#129B46"/>
<path d="M39.2032 46.5156C38.9359 46.5156 38.674 46.6243 38.4852 46.8132C38.2963 47.0024 38.1876 47.2643 38.1876 47.5313C38.1876 47.7986 38.2959 48.0605 38.4852 48.2493C38.674 48.4382 38.9359 48.5469 39.2032 48.5469C39.4702 48.5469 39.7321 48.4382 39.9209 48.2493C40.1102 48.0605 40.2189 47.7986 40.2189 47.5313C40.2189 47.2643 40.1102 47.0024 39.9209 46.8132C39.7321 46.6243 39.4702 46.5156 39.2032 46.5156Z" fill="#129B46"/>
<path d="M40.4219 10.3594C40.4219 8.67923 39.0552 7.3125 37.375 7.3125H14.625C12.9453 7.3125 11.5781 8.67923 11.5781 10.3594V19.2969C11.5781 20.977 12.9453 22.3438 14.625 22.3438H37.375C39.0552 22.3438 40.4219 20.977 40.4219 19.2969V10.3594ZM13.6094 19.2969V10.3594C13.6094 9.7992 14.0652 9.34375 14.625 9.34375H24.9844V20.3125H14.625C14.0652 20.3125 13.6094 19.8567 13.6094 19.2969ZM38.3907 19.2969C38.3907 19.8567 37.9348 20.3125 37.375 20.3125H27.0157V9.34375H37.375C37.9348 9.34375 38.3907 9.7992 38.3907 10.3594V19.2969Z" fill="#129B46"/>
<path d="M14.9977 31.8906C16.9016 31.8906 18.4508 30.3414 18.4508 28.4375C18.4508 26.5332 16.9016 24.9844 14.9977 24.9844C13.0938 24.9844 11.5446 26.5332 11.5446 28.4375C11.5446 30.3414 13.0938 31.8906 14.9977 31.8906ZM14.9977 27.0156C15.7816 27.0156 16.4196 27.6532 16.4196 28.4375C16.4196 29.2214 15.7816 29.8594 14.9977 29.8594C14.2137 29.8594 13.5758 29.2214 13.5758 28.4375C13.5758 27.6532 14.2137 27.0156 14.9977 27.0156Z" fill="#129B46"/>
<path d="M36.9688 24.9844C35.0645 24.9844 33.5156 26.5332 33.5156 28.4375C33.5156 30.3414 35.0645 31.8906 36.9688 31.8906C38.8727 31.8906 40.4219 30.3414 40.4219 28.4375C40.4219 26.5332 38.8727 24.9844 36.9688 24.9844ZM36.9688 29.8594C36.1844 29.8594 35.5469 29.2214 35.5469 28.4375C35.5469 27.6532 36.1844 27.0156 36.9688 27.0156C37.7527 27.0156 38.3906 27.6532 38.3906 28.4375C38.3906 29.2214 37.7527 29.8594 36.9688 29.8594Z" fill="#129B46"/>
<path d="M31.3828 24.9961H21.1508C20.5902 24.9961 20.1351 25.4507 20.1351 26.0117C20.1351 26.5727 20.5902 27.0273 21.1508 27.0273H31.3828C31.9438 27.0273 32.3984 26.5727 32.3984 26.0117C32.3984 25.4507 31.9438 24.9961 31.3828 24.9961Z" fill="#129B46"/>
<path d="M31.3828 29.8594H21.1508C20.5902 29.8594 20.1351 30.314 20.1351 30.875C20.1351 31.4356 20.5902 31.8906 21.1508 31.8906H31.3828C31.9438 31.8906 32.3984 31.4356 32.3984 30.875C32.3984 30.314 31.9438 29.8594 31.3828 29.8594Z" fill="#129B46"/>
<path d="M7.71875 16.6895C7.98615 16.6895 8.24799 16.5819 8.43683 16.3919C8.62567 16.2031 8.73438 15.942 8.73438 15.6738C8.73438 15.4068 8.62567 15.145 8.43683 14.9561C8.24799 14.7669 7.98615 14.6582 7.71875 14.6582C7.45175 14.6582 7.18991 14.7669 7.00067 14.9561C6.81183 15.145 6.70312 15.4068 6.70312 15.6738C6.70312 15.942 6.81183 16.2031 7.00067 16.3919C7.18991 16.5819 7.45175 16.6895 7.71875 16.6895Z" fill="#129B46"/>
</svg>
