<svg width="25" height="24" viewBox="0 0 25 24" fill="none" xmlns="http://www.w3.org/2000/svg">
<path d="M12.8028 0H12.7968C6.18031 0 0.799805 5.382 0.799805 12C0.799805 14.625 1.6458 17.058 3.0843 19.0335L1.5888 23.4915L6.2013 22.017C8.0988 23.274 10.3623 24 12.8028 24C19.4193 24 24.7998 18.6165 24.7998 12C24.7998 5.3835 19.4193 0 12.8028 0ZM19.7853 16.9455C19.4958 17.763 18.3468 18.441 17.4303 18.639C16.8033 18.7725 15.9843 18.879 13.2273 17.736C9.7008 16.275 7.4298 12.6915 7.2528 12.459C7.0833 12.2265 5.8278 10.5615 5.8278 8.8395C5.8278 7.1175 6.7023 6.279 7.0548 5.919C7.34431 5.6235 7.8228 5.4885 8.2818 5.4885C8.4303 5.4885 8.5638 5.496 8.6838 5.502C9.0363 5.517 9.2133 5.538 9.4458 6.0945C9.7353 6.792 10.4403 8.514 10.5243 8.691C10.6098 8.868 10.6953 9.108 10.5753 9.3405C10.4628 9.5805 10.3638 9.687 10.1868 9.891C10.0098 10.095 9.8418 10.251 9.6648 10.47C9.5028 10.6605 9.3198 10.8645 9.5238 11.217C9.72781 11.562 10.4328 12.7125 11.4708 13.6365C12.8103 14.829 13.8963 15.21 14.2848 15.372C14.5743 15.492 14.9193 15.4635 15.1308 15.2385C15.3993 14.949 15.7308 14.469 16.0683 13.9965C16.3083 13.6575 16.6113 13.6155 16.9293 13.7355C17.2533 13.848 18.9678 14.6955 19.3203 14.871C19.6728 15.048 19.9053 15.132 19.9908 15.2805C20.0748 15.429 20.0748 16.1265 19.7853 16.9455Z" fill="white"/>
</svg>
