<svg width="978" height="727" viewBox="0 0 978 727" fill="none" xmlns="http://www.w3.org/2000/svg">
<ellipse cx="489" cy="350" rx="433" ry="328" fill="#5F7D95" fill-opacity="0.1"/>
<ellipse cx="489" cy="363.5" rx="489" ry="363.5" fill="#5F7D95" fill-opacity="0.1"/>
<ellipse cx="489" cy="270.5" rx="53" ry="42.5" fill="#5F7D95" fill-opacity="0.1"/>
<ellipse cx="489" cy="275" rx="105" ry="80" fill="#5F7D95" fill-opacity="0.1"/>
<ellipse cx="489" cy="281.5" rx="158" ry="119.5" fill="#5F7D95" fill-opacity="0.1"/>
<ellipse cx="489" cy="291" rx="211" ry="160" fill="#5F7D95" fill-opacity="0.1"/>
<ellipse cx="489" cy="302.5" rx="265" ry="200.5" fill="#5F7D95" fill-opacity="0.1"/>
<ellipse cx="489" cy="316" rx="320" ry="241" fill="#5F7D95" fill-opacity="0.1"/>
<ellipse cx="489" cy="331.5" rx="377" ry="286.5" fill="#5F7D95" fill-opacity="0.1"/>
<path d="M555.456 290.556C559.008 290.556 561.636 291.252 563.34 292.644C565.044 294.012 565.896 295.884 565.896 298.26C565.896 299.772 565.524 301.14 564.78 302.364C564.036 303.588 562.92 304.56 561.432 305.28C559.944 306 558.108 306.36 555.924 306.36C554.124 306.36 552.384 306.108 550.704 305.604C549.024 305.076 547.608 304.356 546.456 303.444L548.436 299.808C549.372 300.576 550.488 301.188 551.784 301.644C553.104 302.076 554.46 302.292 555.852 302.292C557.508 302.292 558.804 301.956 559.74 301.284C560.7 300.588 561.18 299.64 561.18 298.44C561.18 297.144 560.664 296.172 559.632 295.524C558.624 294.852 556.884 294.516 554.412 294.516H548.328L549.624 280.8H564.42V284.724H553.584L553.044 290.556H555.456Z" fill="#00394C"/>
<path d="M596.189 305.8V331H591.509V309.724H586.181V305.8H596.189ZM610.98 331.36C608.964 331.36 607.164 330.856 605.58 329.848C603.996 328.816 602.748 327.328 601.836 325.384C600.924 323.416 600.468 321.088 600.468 318.4C600.468 315.712 600.924 313.396 601.836 311.452C602.748 309.484 603.996 307.996 605.58 306.988C607.164 305.956 608.964 305.44 610.98 305.44C612.996 305.44 614.796 305.956 616.38 306.988C617.988 307.996 619.248 309.484 620.16 311.452C621.072 313.396 621.528 315.712 621.528 318.4C621.528 321.088 621.072 323.416 620.16 325.384C619.248 327.328 617.988 328.816 616.38 329.848C614.796 330.856 612.996 331.36 610.98 331.36ZM610.98 327.292C612.78 327.292 614.196 326.548 615.228 325.06C616.284 323.572 616.812 321.352 616.812 318.4C616.812 315.448 616.284 313.228 615.228 311.74C614.196 310.252 612.78 309.508 610.98 309.508C609.204 309.508 607.788 310.252 606.732 311.74C605.7 313.228 605.184 315.448 605.184 318.4C605.184 321.352 605.7 323.572 606.732 325.06C607.788 326.548 609.204 327.292 610.98 327.292Z" fill="#00394C"/>
<path d="M646.789 335.8V361H642.109V339.724H636.781V335.8H646.789ZM658.952 345.556C662.504 345.556 665.132 346.252 666.836 347.644C668.54 349.012 669.392 350.884 669.392 353.26C669.392 354.772 669.02 356.14 668.276 357.364C667.532 358.588 666.416 359.56 664.928 360.28C663.44 361 661.604 361.36 659.42 361.36C657.62 361.36 655.88 361.108 654.2 360.604C652.52 360.076 651.104 359.356 649.952 358.444L651.932 354.808C652.868 355.576 653.984 356.188 655.28 356.644C656.6 357.076 657.956 357.292 659.348 357.292C661.004 357.292 662.3 356.956 663.236 356.284C664.196 355.588 664.676 354.64 664.676 353.44C664.676 352.144 664.16 351.172 663.128 350.524C662.12 349.852 660.38 349.516 657.908 349.516H651.824L653.12 335.8H667.916V339.724H657.08L656.54 345.556H658.952Z" fill="#00394C"/>
<path d="M697.161 390.04V394H678.585V390.868L688.593 381.364C689.721 380.284 690.477 379.348 690.861 378.556C691.269 377.74 691.473 376.936 691.473 376.144C691.473 374.968 691.077 374.068 690.285 373.444C689.493 372.82 688.329 372.508 686.793 372.508C684.225 372.508 682.257 373.384 680.889 375.136L677.613 372.616C678.597 371.296 679.917 370.276 681.573 369.556C683.253 368.812 685.125 368.44 687.189 368.44C689.925 368.44 692.109 369.088 693.741 370.384C695.373 371.68 696.189 373.444 696.189 375.676C696.189 377.044 695.901 378.328 695.325 379.528C694.749 380.728 693.645 382.096 692.013 383.632L685.281 390.04H697.161ZM709.549 394.36C707.533 394.36 705.733 393.856 704.149 392.848C702.565 391.816 701.317 390.328 700.405 388.384C699.493 386.416 699.037 384.088 699.037 381.4C699.037 378.712 699.493 376.396 700.405 374.452C701.317 372.484 702.565 370.996 704.149 369.988C705.733 368.956 707.533 368.44 709.549 368.44C711.565 368.44 713.365 368.956 714.949 369.988C716.557 370.996 717.817 372.484 718.729 374.452C719.641 376.396 720.097 378.712 720.097 381.4C720.097 384.088 719.641 386.416 718.729 388.384C717.817 390.328 716.557 391.816 714.949 392.848C713.365 393.856 711.565 394.36 709.549 394.36ZM709.549 390.292C711.349 390.292 712.765 389.548 713.797 388.06C714.853 386.572 715.381 384.352 715.381 381.4C715.381 378.448 714.853 376.228 713.797 374.74C712.765 373.252 711.349 372.508 709.549 372.508C707.773 372.508 706.357 373.252 705.301 374.74C704.269 376.228 703.753 378.448 703.753 381.4C703.753 384.352 704.269 386.572 705.301 388.06C706.357 389.548 707.773 390.292 709.549 390.292Z" fill="#00394C"/>
<path d="M747.708 417.04V421H729.132V417.868L739.14 408.364C740.268 407.284 741.024 406.348 741.408 405.556C741.816 404.74 742.02 403.936 742.02 403.144C742.02 401.968 741.624 401.068 740.832 400.444C740.04 399.82 738.876 399.508 737.34 399.508C734.772 399.508 732.804 400.384 731.436 402.136L728.16 399.616C729.144 398.296 730.464 397.276 732.12 396.556C733.8 395.812 735.672 395.44 737.736 395.44C740.472 395.44 742.656 396.088 744.288 397.384C745.92 398.68 746.736 400.444 746.736 402.676C746.736 404.044 746.448 405.328 745.872 406.528C745.296 407.728 744.192 409.096 742.56 410.632L735.828 417.04H747.708ZM757.573 405.556C761.125 405.556 763.753 406.252 765.457 407.644C767.161 409.012 768.013 410.884 768.013 413.26C768.013 414.772 767.641 416.14 766.897 417.364C766.153 418.588 765.037 419.56 763.549 420.28C762.061 421 760.225 421.36 758.041 421.36C756.241 421.36 754.501 421.108 752.821 420.604C751.141 420.076 749.725 419.356 748.573 418.444L750.553 414.808C751.489 415.576 752.605 416.188 753.901 416.644C755.221 417.076 756.577 417.292 757.969 417.292C759.625 417.292 760.921 416.956 761.857 416.284C762.817 415.588 763.297 414.64 763.297 413.44C763.297 412.144 762.781 411.172 761.749 410.524C760.741 409.852 759.001 409.516 756.529 409.516H750.445L751.741 395.8H766.537V399.724H755.701L755.161 405.556H757.573Z" fill="#00394C"/>
<path d="M791.584 436.204C793.912 436.492 795.688 437.284 796.912 438.58C798.136 439.876 798.748 441.496 798.748 443.44C798.748 444.904 798.376 446.236 797.632 447.436C796.888 448.636 795.76 449.596 794.248 450.316C792.76 451.012 790.936 451.36 788.776 451.36C786.976 451.36 785.236 451.108 783.556 450.604C781.9 450.076 780.484 449.356 779.308 448.444L781.324 444.808C782.236 445.576 783.34 446.188 784.636 446.644C785.956 447.076 787.312 447.292 788.704 447.292C790.36 447.292 791.656 446.956 792.592 446.284C793.552 445.588 794.032 444.652 794.032 443.476C794.032 442.3 793.576 441.388 792.664 440.74C791.776 440.068 790.408 439.732 788.56 439.732H786.256V436.528L791.98 429.724H780.532V425.8H797.704V428.932L791.584 436.204ZM811.601 451.36C809.585 451.36 807.785 450.856 806.201 449.848C804.617 448.816 803.369 447.328 802.457 445.384C801.545 443.416 801.089 441.088 801.089 438.4C801.089 435.712 801.545 433.396 802.457 431.452C803.369 429.484 804.617 427.996 806.201 426.988C807.785 425.956 809.585 425.44 811.601 425.44C813.617 425.44 815.417 425.956 817.001 426.988C818.609 427.996 819.869 429.484 820.781 431.452C821.693 433.396 822.149 435.712 822.149 438.4C822.149 441.088 821.693 443.416 820.781 445.384C819.869 447.328 818.609 448.816 817.001 449.848C815.417 450.856 813.617 451.36 811.601 451.36ZM811.601 447.292C813.401 447.292 814.817 446.548 815.849 445.06C816.905 443.572 817.433 441.352 817.433 438.4C817.433 435.448 816.905 433.228 815.849 431.74C814.817 430.252 813.401 429.508 811.601 429.508C809.825 429.508 808.409 430.252 807.353 431.74C806.321 433.228 805.805 435.448 805.805 438.4C805.805 441.352 806.321 443.572 807.353 445.06C808.409 446.548 809.825 447.292 811.601 447.292Z" fill="#00394C"/>
<path d="M845.36 472.204C847.688 472.492 849.464 473.284 850.688 474.58C851.912 475.876 852.524 477.496 852.524 479.44C852.524 480.904 852.152 482.236 851.408 483.436C850.664 484.636 849.536 485.596 848.024 486.316C846.536 487.012 844.712 487.36 842.552 487.36C840.752 487.36 839.012 487.108 837.332 486.604C835.676 486.076 834.26 485.356 833.084 484.444L835.1 480.808C836.012 481.576 837.116 482.188 838.412 482.644C839.732 483.076 841.088 483.292 842.48 483.292C844.136 483.292 845.432 482.956 846.368 482.284C847.328 481.588 847.808 480.652 847.808 479.476C847.808 478.3 847.352 477.388 846.44 476.74C845.552 476.068 844.184 475.732 842.336 475.732H840.032V472.528L845.756 465.724H834.308V461.8H851.48V464.932L845.36 472.204ZM862.397 471.556C865.949 471.556 868.577 472.252 870.281 473.644C871.985 475.012 872.837 476.884 872.837 479.26C872.837 480.772 872.465 482.14 871.721 483.364C870.977 484.588 869.861 485.56 868.373 486.28C866.885 487 865.049 487.36 862.865 487.36C861.065 487.36 859.325 487.108 857.645 486.604C855.965 486.076 854.549 485.356 853.397 484.444L855.377 480.808C856.313 481.576 857.429 482.188 858.725 482.644C860.045 483.076 861.401 483.292 862.793 483.292C864.449 483.292 865.745 482.956 866.681 482.284C867.641 481.588 868.121 480.64 868.121 479.44C868.121 478.144 867.605 477.172 866.573 476.524C865.565 475.852 863.825 475.516 861.353 475.516H855.269L856.565 461.8H871.361V465.724H860.525L859.985 471.556H862.397Z" fill="#00394C"/>
<path d="M905.58 512.276H901.116V518H896.58V512.276H882.756V509.036L895.176 492.8H900.18L888.48 508.316H896.724V503.24H901.116V508.316H905.58V512.276ZM917.341 518.36C915.325 518.36 913.525 517.856 911.941 516.848C910.357 515.816 909.109 514.328 908.197 512.384C907.285 510.416 906.829 508.088 906.829 505.4C906.829 502.712 907.285 500.396 908.197 498.452C909.109 496.484 910.357 494.996 911.941 493.988C913.525 492.956 915.325 492.44 917.341 492.44C919.357 492.44 921.157 492.956 922.741 493.988C924.349 494.996 925.609 496.484 926.521 498.452C927.433 500.396 927.889 502.712 927.889 505.4C927.889 508.088 927.433 510.416 926.521 512.384C925.609 514.328 924.349 515.816 922.741 516.848C921.157 517.856 919.357 518.36 917.341 518.36ZM917.341 514.292C919.141 514.292 920.557 513.548 921.589 512.06C922.645 510.572 923.173 508.352 923.173 505.4C923.173 502.448 922.645 500.228 921.589 498.74C920.557 497.252 919.141 496.508 917.341 496.508C915.565 496.508 914.149 497.252 913.093 498.74C912.061 500.228 911.545 502.448 911.545 505.4C911.545 508.352 912.061 510.572 913.093 512.06C914.149 513.548 915.565 514.292 917.341 514.292Z" fill="#00394C"/>
<g filter="url(#filter0_d)">
<path d="M510.136 101.726V104.708H514.868V106.248H510.136V110H508.316V100.2H515.47V101.726H510.136ZM518.311 103.616C518.815 102.832 519.702 102.44 520.971 102.44V104.106C520.822 104.078 520.687 104.064 520.565 104.064C519.884 104.064 519.352 104.265 518.969 104.666C518.587 105.058 518.395 105.627 518.395 106.374V110H516.645V102.524H518.311V103.616ZM524.991 102.44C526.092 102.44 526.932 102.706 527.511 103.238C528.099 103.761 528.393 104.554 528.393 105.618V110H526.741V109.09C526.526 109.417 526.218 109.669 525.817 109.846C525.425 110.014 524.949 110.098 524.389 110.098C523.829 110.098 523.339 110.005 522.919 109.818C522.499 109.622 522.172 109.356 521.939 109.02C521.715 108.675 521.603 108.287 521.603 107.858C521.603 107.186 521.85 106.649 522.345 106.248C522.849 105.837 523.638 105.632 524.711 105.632H526.643V105.52C526.643 104.997 526.484 104.596 526.167 104.316C525.859 104.036 525.397 103.896 524.781 103.896C524.361 103.896 523.946 103.961 523.535 104.092C523.134 104.223 522.793 104.405 522.513 104.638L521.827 103.364C522.219 103.065 522.69 102.837 523.241 102.678C523.792 102.519 524.375 102.44 524.991 102.44ZM524.753 108.824C525.192 108.824 525.579 108.726 525.915 108.53C526.26 108.325 526.503 108.035 526.643 107.662V106.794H524.837C523.829 106.794 523.325 107.125 523.325 107.788C523.325 108.105 523.451 108.357 523.703 108.544C523.955 108.731 524.305 108.824 524.753 108.824ZM534.601 102.44C535.543 102.44 536.299 102.715 536.869 103.266C537.438 103.817 537.723 104.633 537.723 105.716V110H535.973V105.94C535.973 105.287 535.819 104.797 535.511 104.47C535.203 104.134 534.764 103.966 534.195 103.966C533.551 103.966 533.042 104.162 532.669 104.554C532.295 104.937 532.109 105.492 532.109 106.22V110H530.359V102.524H532.025V103.49C532.314 103.145 532.678 102.883 533.117 102.706C533.555 102.529 534.05 102.44 534.601 102.44ZM543.161 110.098C542.386 110.098 541.691 109.935 541.075 109.608C540.459 109.281 539.978 108.829 539.633 108.25C539.288 107.662 539.115 106.999 539.115 106.262C539.115 105.525 539.288 104.867 539.633 104.288C539.978 103.709 540.454 103.257 541.061 102.93C541.677 102.603 542.377 102.44 543.161 102.44C543.898 102.44 544.542 102.589 545.093 102.888C545.653 103.187 546.073 103.616 546.353 104.176L545.009 104.96C544.794 104.615 544.524 104.358 544.197 104.19C543.88 104.013 543.53 103.924 543.147 103.924C542.494 103.924 541.952 104.139 541.523 104.568C541.094 104.988 540.879 105.553 540.879 106.262C540.879 106.971 541.089 107.541 541.509 107.97C541.938 108.39 542.484 108.6 543.147 108.6C543.53 108.6 543.88 108.516 544.197 108.348C544.524 108.171 544.794 107.909 545.009 107.564L546.353 108.348C546.064 108.908 545.639 109.342 545.079 109.65C544.528 109.949 543.889 110.098 543.161 110.098ZM547.586 102.524H549.336V110H547.586V102.524ZM548.468 101.292C548.151 101.292 547.885 101.194 547.67 100.998C547.455 100.793 547.348 100.541 547.348 100.242C547.348 99.9433 547.455 99.696 547.67 99.5C547.885 99.2947 548.151 99.192 548.468 99.192C548.785 99.192 549.051 99.29 549.266 99.486C549.481 99.6727 549.588 99.9107 549.588 100.2C549.588 100.508 549.481 100.769 549.266 100.984C549.061 101.189 548.795 101.292 548.468 101.292ZM553.663 110.098C553.056 110.098 552.463 110.019 551.885 109.86C551.306 109.701 550.844 109.501 550.499 109.258L551.171 107.928C551.507 108.152 551.908 108.334 552.375 108.474C552.851 108.605 553.317 108.67 553.775 108.67C554.82 108.67 555.343 108.395 555.343 107.844C555.343 107.583 555.207 107.401 554.937 107.298C554.675 107.195 554.251 107.097 553.663 107.004C553.047 106.911 552.543 106.803 552.151 106.682C551.768 106.561 551.432 106.351 551.143 106.052C550.863 105.744 550.723 105.319 550.723 104.778C550.723 104.069 551.017 103.504 551.605 103.084C552.202 102.655 553.005 102.44 554.013 102.44C554.526 102.44 555.039 102.501 555.553 102.622C556.066 102.734 556.486 102.888 556.813 103.084L556.141 104.414C555.506 104.041 554.792 103.854 553.999 103.854C553.485 103.854 553.093 103.933 552.823 104.092C552.561 104.241 552.431 104.442 552.431 104.694C552.431 104.974 552.571 105.175 552.851 105.296C553.14 105.408 553.583 105.515 554.181 105.618C554.778 105.711 555.268 105.819 555.651 105.94C556.033 106.061 556.36 106.267 556.631 106.556C556.911 106.845 557.051 107.256 557.051 107.788C557.051 108.488 556.747 109.048 556.141 109.468C555.534 109.888 554.708 110.098 553.663 110.098ZM561.708 110.098C560.933 110.098 560.238 109.935 559.622 109.608C559.006 109.281 558.525 108.829 558.18 108.25C557.835 107.662 557.662 106.999 557.662 106.262C557.662 105.525 557.835 104.867 558.18 104.288C558.525 103.709 559.001 103.257 559.608 102.93C560.224 102.603 560.924 102.44 561.708 102.44C562.445 102.44 563.089 102.589 563.64 102.888C564.2 103.187 564.62 103.616 564.9 104.176L563.556 104.96C563.341 104.615 563.071 104.358 562.744 104.19C562.427 104.013 562.077 103.924 561.694 103.924C561.041 103.924 560.499 104.139 560.07 104.568C559.641 104.988 559.426 105.553 559.426 106.262C559.426 106.971 559.636 107.541 560.056 107.97C560.485 108.39 561.031 108.6 561.694 108.6C562.077 108.6 562.427 108.516 562.744 108.348C563.071 108.171 563.341 107.909 563.556 107.564L564.9 108.348C564.611 108.908 564.186 109.342 563.626 109.65C563.075 109.949 562.436 110.098 561.708 110.098ZM569.383 110.098C568.627 110.098 567.946 109.935 567.339 109.608C566.733 109.281 566.257 108.829 565.911 108.25C565.575 107.662 565.407 106.999 565.407 106.262C565.407 105.525 565.575 104.867 565.911 104.288C566.257 103.709 566.733 103.257 567.339 102.93C567.946 102.603 568.627 102.44 569.383 102.44C570.149 102.44 570.835 102.603 571.441 102.93C572.048 103.257 572.519 103.709 572.855 104.288C573.201 104.867 573.373 105.525 573.373 106.262C573.373 106.999 573.201 107.662 572.855 108.25C572.519 108.829 572.048 109.281 571.441 109.608C570.835 109.935 570.149 110.098 569.383 110.098ZM569.383 108.6C570.027 108.6 570.559 108.385 570.979 107.956C571.399 107.527 571.609 106.962 571.609 106.262C571.609 105.562 571.399 104.997 570.979 104.568C570.559 104.139 570.027 103.924 569.383 103.924C568.739 103.924 568.207 104.139 567.787 104.568C567.377 104.997 567.171 105.562 567.171 106.262C567.171 106.962 567.377 107.527 567.787 107.956C568.207 108.385 568.739 108.6 569.383 108.6ZM578.524 100.2H580.344V110H578.524V100.2ZM595.306 110L595.292 103.504L592.072 108.88H591.26L588.04 103.588V110H586.304V100.2H587.802L591.694 106.696L595.516 100.2H597.014L597.028 110H595.306ZM602.083 102.44C603.184 102.44 604.024 102.706 604.603 103.238C605.191 103.761 605.485 104.554 605.485 105.618V110H603.833V109.09C603.618 109.417 603.31 109.669 602.909 109.846C602.517 110.014 602.041 110.098 601.481 110.098C600.921 110.098 600.431 110.005 600.011 109.818C599.591 109.622 599.264 109.356 599.031 109.02C598.807 108.675 598.695 108.287 598.695 107.858C598.695 107.186 598.942 106.649 599.437 106.248C599.941 105.837 600.729 105.632 601.803 105.632H603.735V105.52C603.735 104.997 603.576 104.596 603.259 104.316C602.951 104.036 602.489 103.896 601.873 103.896C601.453 103.896 601.037 103.961 600.627 104.092C600.225 104.223 599.885 104.405 599.605 104.638L598.919 103.364C599.311 103.065 599.782 102.837 600.333 102.678C600.883 102.519 601.467 102.44 602.083 102.44ZM601.845 108.824C602.283 108.824 602.671 108.726 603.007 108.53C603.352 108.325 603.595 108.035 603.735 107.662V106.794H601.929C600.921 106.794 600.417 107.125 600.417 107.788C600.417 108.105 600.543 108.357 600.795 108.544C601.047 108.731 601.397 108.824 601.845 108.824ZM614.841 99.612V110H613.161V109.034C612.872 109.389 612.512 109.655 612.083 109.832C611.663 110.009 611.196 110.098 610.683 110.098C609.964 110.098 609.316 109.939 608.737 109.622C608.168 109.305 607.72 108.857 607.393 108.278C607.066 107.69 606.903 107.018 606.903 106.262C606.903 105.506 607.066 104.839 607.393 104.26C607.72 103.681 608.168 103.233 608.737 102.916C609.316 102.599 609.964 102.44 610.683 102.44C611.178 102.44 611.63 102.524 612.041 102.692C612.452 102.86 612.802 103.112 613.091 103.448V99.612H614.841ZM610.893 108.6C611.313 108.6 611.691 108.507 612.027 108.32C612.363 108.124 612.629 107.849 612.825 107.494C613.021 107.139 613.119 106.729 613.119 106.262C613.119 105.795 613.021 105.385 612.825 105.03C612.629 104.675 612.363 104.405 612.027 104.218C611.691 104.022 611.313 103.924 610.893 103.924C610.473 103.924 610.095 104.022 609.759 104.218C609.423 104.405 609.157 104.675 608.961 105.03C608.765 105.385 608.667 105.795 608.667 106.262C608.667 106.729 608.765 107.139 608.961 107.494C609.157 107.849 609.423 108.124 609.759 108.32C610.095 108.507 610.473 108.6 610.893 108.6ZM623.878 106.304C623.878 106.425 623.869 106.598 623.85 106.822H617.984C618.087 107.373 618.353 107.811 618.782 108.138C619.221 108.455 619.762 108.614 620.406 108.614C621.228 108.614 621.904 108.343 622.436 107.802L623.374 108.88C623.038 109.281 622.614 109.585 622.1 109.79C621.587 109.995 621.008 110.098 620.364 110.098C619.543 110.098 618.82 109.935 618.194 109.608C617.569 109.281 617.084 108.829 616.738 108.25C616.402 107.662 616.234 106.999 616.234 106.262C616.234 105.534 616.398 104.881 616.724 104.302C617.06 103.714 617.522 103.257 618.11 102.93C618.698 102.603 619.361 102.44 620.098 102.44C620.826 102.44 621.475 102.603 622.044 102.93C622.623 103.247 623.071 103.7 623.388 104.288C623.715 104.867 623.878 105.539 623.878 106.304ZM620.098 103.84C619.538 103.84 619.062 104.008 618.67 104.344C618.288 104.671 618.054 105.109 617.97 105.66H622.212C622.138 105.119 621.909 104.68 621.526 104.344C621.144 104.008 620.668 103.84 620.098 103.84ZM626.945 103.616C627.449 102.832 628.336 102.44 629.605 102.44V104.106C629.456 104.078 629.321 104.064 629.199 104.064C628.518 104.064 627.986 104.265 627.603 104.666C627.221 105.058 627.029 105.627 627.029 106.374V110H625.279V102.524H626.945V103.616ZM634.102 110.098C633.346 110.098 632.664 109.935 632.058 109.608C631.451 109.281 630.975 108.829 630.63 108.25C630.294 107.662 630.126 106.999 630.126 106.262C630.126 105.525 630.294 104.867 630.63 104.288C630.975 103.709 631.451 103.257 632.058 102.93C632.664 102.603 633.346 102.44 634.102 102.44C634.867 102.44 635.553 102.603 636.16 102.93C636.766 103.257 637.238 103.709 637.574 104.288C637.919 104.867 638.092 105.525 638.092 106.262C638.092 106.999 637.919 107.662 637.574 108.25C637.238 108.829 636.766 109.281 636.16 109.608C635.553 109.935 634.867 110.098 634.102 110.098ZM634.102 108.6C634.746 108.6 635.278 108.385 635.698 107.956C636.118 107.527 636.328 106.962 636.328 106.262C636.328 105.562 636.118 104.997 635.698 104.568C635.278 104.139 634.746 103.924 634.102 103.924C633.458 103.924 632.926 104.139 632.506 104.568C632.095 104.997 631.89 105.562 631.89 106.262C631.89 106.962 632.095 107.527 632.506 107.956C632.926 108.385 633.458 108.6 634.102 108.6Z" fill="#00394C"/>
</g>
<g filter="url(#filter1_d)">
<circle cx="509" cy="87" r="7" fill="#00394C"/>
<circle cx="509" cy="87" r="6" stroke="white" stroke-width="2"/>
</g>
<g filter="url(#filter2_d)">
<path d="M375.304 268.74H372.056V267.2H380.372V268.74H377.124V277H375.304V268.74ZM383.884 277.098C383.128 277.098 382.447 276.935 381.84 276.608C381.234 276.281 380.758 275.829 380.412 275.25C380.076 274.662 379.908 273.999 379.908 273.262C379.908 272.525 380.076 271.867 380.412 271.288C380.758 270.709 381.234 270.257 381.84 269.93C382.447 269.603 383.128 269.44 383.884 269.44C384.65 269.44 385.336 269.603 385.942 269.93C386.549 270.257 387.02 270.709 387.356 271.288C387.702 271.867 387.874 272.525 387.874 273.262C387.874 273.999 387.702 274.662 387.356 275.25C387.02 275.829 386.549 276.281 385.942 276.608C385.336 276.935 384.65 277.098 383.884 277.098ZM383.884 275.6C384.528 275.6 385.06 275.385 385.48 274.956C385.9 274.527 386.11 273.962 386.11 273.262C386.11 272.562 385.9 271.997 385.48 271.568C385.06 271.139 384.528 270.924 383.884 270.924C383.24 270.924 382.708 271.139 382.288 271.568C381.878 271.997 381.672 272.562 381.672 273.262C381.672 273.962 381.878 274.527 382.288 274.956C382.708 275.385 383.24 275.6 383.884 275.6ZM390.934 270.616C391.438 269.832 392.324 269.44 393.594 269.44V271.106C393.444 271.078 393.309 271.064 393.188 271.064C392.506 271.064 391.974 271.265 391.592 271.666C391.209 272.058 391.018 272.627 391.018 273.374V277H389.268V269.524H390.934V270.616ZM396.464 270.616C396.968 269.832 397.855 269.44 399.124 269.44V271.106C398.975 271.078 398.84 271.064 398.718 271.064C398.037 271.064 397.505 271.265 397.122 271.666C396.74 272.058 396.548 272.627 396.548 273.374V277H394.798V269.524H396.464V270.616ZM407.288 273.304C407.288 273.425 407.279 273.598 407.26 273.822H401.394C401.497 274.373 401.763 274.811 402.192 275.138C402.631 275.455 403.172 275.614 403.816 275.614C404.638 275.614 405.314 275.343 405.846 274.802L406.784 275.88C406.448 276.281 406.024 276.585 405.51 276.79C404.997 276.995 404.418 277.098 403.774 277.098C402.953 277.098 402.23 276.935 401.604 276.608C400.979 276.281 400.494 275.829 400.148 275.25C399.812 274.662 399.644 273.999 399.644 273.262C399.644 272.534 399.808 271.881 400.134 271.302C400.47 270.714 400.932 270.257 401.52 269.93C402.108 269.603 402.771 269.44 403.508 269.44C404.236 269.44 404.885 269.603 405.454 269.93C406.033 270.247 406.481 270.7 406.798 271.288C407.125 271.867 407.288 272.539 407.288 273.304ZM403.508 270.84C402.948 270.84 402.472 271.008 402.08 271.344C401.698 271.671 401.464 272.109 401.38 272.66H405.622C405.548 272.119 405.319 271.68 404.936 271.344C404.554 271.008 404.078 270.84 403.508 270.84ZM412.049 277.098C411.293 277.098 410.612 276.935 410.005 276.608C409.399 276.281 408.923 275.829 408.577 275.25C408.241 274.662 408.073 273.999 408.073 273.262C408.073 272.525 408.241 271.867 408.577 271.288C408.923 270.709 409.399 270.257 410.005 269.93C410.612 269.603 411.293 269.44 412.049 269.44C412.815 269.44 413.501 269.603 414.107 269.93C414.714 270.257 415.185 270.709 415.521 271.288C415.867 271.867 416.039 272.525 416.039 273.262C416.039 273.999 415.867 274.662 415.521 275.25C415.185 275.829 414.714 276.281 414.107 276.608C413.501 276.935 412.815 277.098 412.049 277.098ZM412.049 275.6C412.693 275.6 413.225 275.385 413.645 274.956C414.065 274.527 414.275 273.962 414.275 273.262C414.275 272.562 414.065 271.997 413.645 271.568C413.225 271.139 412.693 270.924 412.049 270.924C411.405 270.924 410.873 271.139 410.453 271.568C410.043 271.997 409.837 272.562 409.837 273.262C409.837 273.962 410.043 274.527 410.453 274.956C410.873 275.385 411.405 275.6 412.049 275.6ZM412.749 266.584H414.807L412.371 268.502H410.859L412.749 266.584ZM421.675 269.44C422.618 269.44 423.374 269.715 423.943 270.266C424.512 270.817 424.797 271.633 424.797 272.716V277H423.047V272.94C423.047 272.287 422.893 271.797 422.585 271.47C422.277 271.134 421.838 270.966 421.269 270.966C420.625 270.966 420.116 271.162 419.743 271.554C419.37 271.937 419.183 272.492 419.183 273.22V277H417.433V269.524H419.099V270.49C419.388 270.145 419.752 269.883 420.191 269.706C420.63 269.529 421.124 269.44 421.675 269.44Z" fill="#00394C"/>
</g>
<g filter="url(#filter3_d)">
<circle cx="374" cy="257" r="7" fill="#00394C"/>
<circle cx="374" cy="257" r="6" stroke="white" stroke-width="2"/>
</g>
<g filter="url(#filter4_d)">
<path d="M771.354 118.14C770.598 118.14 769.865 118.033 769.156 117.818C768.456 117.603 767.901 117.319 767.49 116.964L768.12 115.55C768.521 115.867 769.011 116.129 769.59 116.334C770.178 116.53 770.766 116.628 771.354 116.628C772.082 116.628 772.623 116.511 772.978 116.278C773.342 116.045 773.524 115.737 773.524 115.354C773.524 115.074 773.421 114.845 773.216 114.668C773.02 114.481 772.768 114.337 772.46 114.234C772.152 114.131 771.732 114.015 771.2 113.884C770.453 113.707 769.847 113.529 769.38 113.352C768.923 113.175 768.526 112.899 768.19 112.526C767.863 112.143 767.7 111.63 767.7 110.986C767.7 110.445 767.845 109.955 768.134 109.516C768.433 109.068 768.876 108.713 769.464 108.452C770.061 108.191 770.789 108.06 771.648 108.06C772.245 108.06 772.833 108.135 773.412 108.284C773.991 108.433 774.49 108.648 774.91 108.928L774.336 110.342C773.907 110.09 773.459 109.899 772.992 109.768C772.525 109.637 772.073 109.572 771.634 109.572C770.915 109.572 770.379 109.693 770.024 109.936C769.679 110.179 769.506 110.501 769.506 110.902C769.506 111.182 769.604 111.411 769.8 111.588C770.005 111.765 770.262 111.905 770.57 112.008C770.878 112.111 771.298 112.227 771.83 112.358C772.558 112.526 773.155 112.703 773.622 112.89C774.089 113.067 774.485 113.343 774.812 113.716C775.148 114.089 775.316 114.593 775.316 115.228C775.316 115.769 775.167 116.259 774.868 116.698C774.579 117.137 774.135 117.487 773.538 117.748C772.941 118.009 772.213 118.14 771.354 118.14ZM779.529 110.44C780.63 110.44 781.47 110.706 782.049 111.238C782.637 111.761 782.931 112.554 782.931 113.618V118H781.279V117.09C781.064 117.417 780.756 117.669 780.355 117.846C779.963 118.014 779.487 118.098 778.927 118.098C778.367 118.098 777.877 118.005 777.457 117.818C777.037 117.622 776.71 117.356 776.477 117.02C776.253 116.675 776.141 116.287 776.141 115.858C776.141 115.186 776.388 114.649 776.883 114.248C777.387 113.837 778.175 113.632 779.249 113.632H781.181V113.52C781.181 112.997 781.022 112.596 780.705 112.316C780.397 112.036 779.935 111.896 779.319 111.896C778.899 111.896 778.483 111.961 778.073 112.092C777.671 112.223 777.331 112.405 777.051 112.638L776.365 111.364C776.757 111.065 777.228 110.837 777.779 110.678C778.329 110.519 778.913 110.44 779.529 110.44ZM779.291 116.824C779.729 116.824 780.117 116.726 780.453 116.53C780.798 116.325 781.041 116.035 781.181 115.662V114.794H779.375C778.367 114.794 777.863 115.125 777.863 115.788C777.863 116.105 777.989 116.357 778.241 116.544C778.493 116.731 778.843 116.824 779.291 116.824ZM789.139 110.44C790.081 110.44 790.837 110.715 791.407 111.266C791.976 111.817 792.261 112.633 792.261 113.716V118H790.511V113.94C790.511 113.287 790.357 112.797 790.049 112.47C789.741 112.134 789.302 111.966 788.733 111.966C788.089 111.966 787.58 112.162 787.207 112.554C786.833 112.937 786.647 113.492 786.647 114.22V118H784.897V110.524H786.563V111.49C786.852 111.145 787.216 110.883 787.655 110.706C788.093 110.529 788.588 110.44 789.139 110.44ZM801.99 108.2C802.839 108.2 803.576 108.34 804.202 108.62C804.836 108.9 805.322 109.301 805.658 109.824C805.994 110.347 806.162 110.967 806.162 111.686C806.162 112.395 805.994 113.016 805.658 113.548C805.322 114.071 804.836 114.472 804.202 114.752C803.576 115.032 802.839 115.172 801.99 115.172H799.778V118H797.958V108.2H801.99ZM801.906 113.632C802.699 113.632 803.301 113.464 803.712 113.128C804.122 112.792 804.328 112.311 804.328 111.686C804.328 111.061 804.122 110.58 803.712 110.244C803.301 109.908 802.699 109.74 801.906 109.74H799.778V113.632H801.906ZM814.532 114.304C814.532 114.425 814.523 114.598 814.504 114.822H808.638C808.741 115.373 809.007 115.811 809.436 116.138C809.875 116.455 810.416 116.614 811.06 116.614C811.881 116.614 812.558 116.343 813.09 115.802L814.028 116.88C813.692 117.281 813.267 117.585 812.754 117.79C812.241 117.995 811.662 118.098 811.018 118.098C810.197 118.098 809.473 117.935 808.848 117.608C808.223 117.281 807.737 116.829 807.392 116.25C807.056 115.662 806.888 114.999 806.888 114.262C806.888 113.534 807.051 112.881 807.378 112.302C807.714 111.714 808.176 111.257 808.764 110.93C809.352 110.603 810.015 110.44 810.752 110.44C811.48 110.44 812.129 110.603 812.698 110.93C813.277 111.247 813.725 111.7 814.042 112.288C814.369 112.867 814.532 113.539 814.532 114.304ZM810.752 111.84C810.192 111.84 809.716 112.008 809.324 112.344C808.941 112.671 808.708 113.109 808.624 113.66H812.866C812.791 113.119 812.563 112.68 812.18 112.344C811.797 112.008 811.321 111.84 810.752 111.84ZM823.255 107.612V118H821.575V117.034C821.286 117.389 820.926 117.655 820.497 117.832C820.077 118.009 819.61 118.098 819.097 118.098C818.378 118.098 817.73 117.939 817.151 117.622C816.582 117.305 816.134 116.857 815.807 116.278C815.48 115.69 815.317 115.018 815.317 114.262C815.317 113.506 815.48 112.839 815.807 112.26C816.134 111.681 816.582 111.233 817.151 110.916C817.73 110.599 818.378 110.44 819.097 110.44C819.592 110.44 820.044 110.524 820.455 110.692C820.866 110.86 821.216 111.112 821.505 111.448V107.612H823.255ZM819.307 116.6C819.727 116.6 820.105 116.507 820.441 116.32C820.777 116.124 821.043 115.849 821.239 115.494C821.435 115.139 821.533 114.729 821.533 114.262C821.533 113.795 821.435 113.385 821.239 113.03C821.043 112.675 820.777 112.405 820.441 112.218C820.105 112.022 819.727 111.924 819.307 111.924C818.887 111.924 818.509 112.022 818.173 112.218C817.837 112.405 817.571 112.675 817.375 113.03C817.179 113.385 817.081 113.795 817.081 114.262C817.081 114.729 817.179 115.139 817.375 115.494C817.571 115.849 817.837 116.124 818.173 116.32C818.509 116.507 818.887 116.6 819.307 116.6ZM826.93 111.616C827.434 110.832 828.321 110.44 829.59 110.44V112.106C829.441 112.078 829.306 112.064 829.184 112.064C828.503 112.064 827.971 112.265 827.588 112.666C827.206 113.058 827.014 113.627 827.014 114.374V118H825.264V110.524H826.93V111.616ZM834.086 118.098C833.33 118.098 832.649 117.935 832.042 117.608C831.436 117.281 830.96 116.829 830.614 116.25C830.278 115.662 830.11 114.999 830.11 114.262C830.11 113.525 830.278 112.867 830.614 112.288C830.96 111.709 831.436 111.257 832.042 110.93C832.649 110.603 833.33 110.44 834.086 110.44C834.852 110.44 835.538 110.603 836.144 110.93C836.751 111.257 837.222 111.709 837.558 112.288C837.904 112.867 838.076 113.525 838.076 114.262C838.076 114.999 837.904 115.662 837.558 116.25C837.222 116.829 836.751 117.281 836.144 117.608C835.538 117.935 834.852 118.098 834.086 118.098ZM834.086 116.6C834.73 116.6 835.262 116.385 835.682 115.956C836.102 115.527 836.312 114.962 836.312 114.262C836.312 113.562 836.102 112.997 835.682 112.568C835.262 112.139 834.73 111.924 834.086 111.924C833.442 111.924 832.91 112.139 832.49 112.568C832.08 112.997 831.874 113.562 831.874 114.262C831.874 114.962 832.08 115.527 832.49 115.956C832.91 116.385 833.442 116.6 834.086 116.6Z" fill="#00394C"/>
</g>
<g filter="url(#filter5_d)">
<circle cx="769" cy="94" r="7" fill="#00394C"/>
<circle cx="769" cy="94" r="6" stroke="white" stroke-width="2"/>
</g>
<g filter="url(#filter6_d)">
<path d="M303.008 231.988H304.73V235.894C304.226 236.295 303.638 236.603 302.966 236.818C302.294 237.033 301.603 237.14 300.894 237.14C299.895 237.14 298.995 236.925 298.192 236.496C297.389 236.057 296.759 235.455 296.302 234.69C295.845 233.925 295.616 233.061 295.616 232.1C295.616 231.139 295.845 230.275 296.302 229.51C296.759 228.745 297.389 228.147 298.192 227.718C299.004 227.279 299.914 227.06 300.922 227.06C301.743 227.06 302.49 227.195 303.162 227.466C303.834 227.737 304.399 228.133 304.856 228.656L303.708 229.776C302.961 229.029 302.061 228.656 301.006 228.656C300.315 228.656 299.699 228.801 299.158 229.09C298.626 229.379 298.206 229.785 297.898 230.308C297.599 230.831 297.45 231.428 297.45 232.1C297.45 232.753 297.599 233.341 297.898 233.864C298.206 234.387 298.626 234.797 299.158 235.096C299.699 235.395 300.311 235.544 300.992 235.544C301.757 235.544 302.429 235.376 303.008 235.04V231.988ZM310.042 237.098C309.286 237.098 308.605 236.935 307.998 236.608C307.392 236.281 306.916 235.829 306.57 235.25C306.234 234.662 306.066 233.999 306.066 233.262C306.066 232.525 306.234 231.867 306.57 231.288C306.916 230.709 307.392 230.257 307.998 229.93C308.605 229.603 309.286 229.44 310.042 229.44C310.808 229.44 311.494 229.603 312.1 229.93C312.707 230.257 313.178 230.709 313.514 231.288C313.86 231.867 314.032 232.525 314.032 233.262C314.032 233.999 313.86 234.662 313.514 235.25C313.178 235.829 312.707 236.281 312.1 236.608C311.494 236.935 310.808 237.098 310.042 237.098ZM310.042 235.6C310.686 235.6 311.218 235.385 311.638 234.956C312.058 234.527 312.268 233.962 312.268 233.262C312.268 232.562 312.058 231.997 311.638 231.568C311.218 231.139 310.686 230.924 310.042 230.924C309.398 230.924 308.866 231.139 308.446 231.568C308.036 231.997 307.83 232.562 307.83 233.262C307.83 233.962 308.036 234.527 308.446 234.956C308.866 235.385 309.398 235.6 310.042 235.6ZM310.742 226.584H312.8L310.364 228.502H308.852L310.742 226.584ZM324.862 229.44C325.805 229.44 326.551 229.715 327.102 230.266C327.653 230.807 327.928 231.624 327.928 232.716V237H326.178V232.94C326.178 232.287 326.033 231.797 325.744 231.47C325.455 231.134 325.039 230.966 324.498 230.966C323.91 230.966 323.439 231.162 323.084 231.554C322.729 231.937 322.552 232.487 322.552 233.206V237H320.802V232.94C320.802 232.287 320.657 231.797 320.368 231.47C320.079 231.134 319.663 230.966 319.122 230.966C318.525 230.966 318.049 231.157 317.694 231.54C317.349 231.923 317.176 232.478 317.176 233.206V237H315.426V229.524H317.092V230.476C317.372 230.14 317.722 229.883 318.142 229.706C318.562 229.529 319.029 229.44 319.542 229.44C320.102 229.44 320.597 229.547 321.026 229.762C321.465 229.967 321.81 230.275 322.062 230.686C322.37 230.294 322.767 229.991 323.252 229.776C323.737 229.552 324.274 229.44 324.862 229.44ZM336.981 233.304C336.981 233.425 336.971 233.598 336.953 233.822H331.087C331.189 234.373 331.455 234.811 331.885 235.138C332.323 235.455 332.865 235.614 333.509 235.614C334.33 235.614 335.007 235.343 335.539 234.802L336.477 235.88C336.141 236.281 335.716 236.585 335.203 236.79C334.689 236.995 334.111 237.098 333.467 237.098C332.645 237.098 331.922 236.935 331.297 236.608C330.671 236.281 330.186 235.829 329.841 235.25C329.505 234.662 329.337 233.999 329.337 233.262C329.337 232.534 329.5 231.881 329.827 231.302C330.163 230.714 330.625 230.257 331.213 229.93C331.801 229.603 332.463 229.44 333.201 229.44C333.929 229.44 334.577 229.603 335.147 229.93C335.725 230.247 336.173 230.7 336.491 231.288C336.817 231.867 336.981 232.539 336.981 233.304ZM333.201 230.84C332.641 230.84 332.165 231.008 331.773 231.344C331.39 231.671 331.157 232.109 331.073 232.66H335.315C335.24 232.119 335.011 231.68 334.629 231.344C334.246 231.008 333.77 230.84 333.201 230.84ZM344.151 235.6V237H337.697V235.894L341.799 230.924H337.781V229.524H344.039V230.63L339.923 235.6H344.151ZM353.273 227.2C354.123 227.2 354.86 227.34 355.485 227.62C356.12 227.9 356.605 228.301 356.941 228.824C357.277 229.347 357.445 229.967 357.445 230.686C357.445 231.395 357.277 232.016 356.941 232.548C356.605 233.071 356.12 233.472 355.485 233.752C354.86 234.032 354.123 234.172 353.273 234.172H351.061V237H349.241V227.2H353.273ZM353.189 232.632C353.983 232.632 354.585 232.464 354.995 232.128C355.406 231.792 355.611 231.311 355.611 230.686C355.611 230.061 355.406 229.58 354.995 229.244C354.585 228.908 353.983 228.74 353.189 228.74H351.061V232.632H353.189ZM361.603 229.44C362.704 229.44 363.544 229.706 364.123 230.238C364.711 230.761 365.005 231.554 365.005 232.618V237H363.353V236.09C363.138 236.417 362.83 236.669 362.429 236.846C362.037 237.014 361.561 237.098 361.001 237.098C360.441 237.098 359.951 237.005 359.531 236.818C359.111 236.622 358.784 236.356 358.551 236.02C358.327 235.675 358.215 235.287 358.215 234.858C358.215 234.186 358.462 233.649 358.957 233.248C359.461 232.837 360.249 232.632 361.323 232.632H363.255V232.52C363.255 231.997 363.096 231.596 362.779 231.316C362.471 231.036 362.009 230.896 361.393 230.896C360.973 230.896 360.557 230.961 360.147 231.092C359.745 231.223 359.405 231.405 359.125 231.638L358.439 230.364C358.831 230.065 359.302 229.837 359.853 229.678C360.403 229.519 360.987 229.44 361.603 229.44ZM361.365 235.824C361.803 235.824 362.191 235.726 362.527 235.53C362.872 235.325 363.115 235.035 363.255 234.662V233.794H361.449C360.441 233.794 359.937 234.125 359.937 234.788C359.937 235.105 360.063 235.357 360.315 235.544C360.567 235.731 360.917 235.824 361.365 235.824ZM366.971 226.612H368.721V237H366.971V226.612ZM373.593 229.44C374.695 229.44 375.535 229.706 376.113 230.238C376.701 230.761 376.995 231.554 376.995 232.618V237H375.343V236.09C375.129 236.417 374.821 236.669 374.419 236.846C374.027 237.014 373.551 237.098 372.991 237.098C372.431 237.098 371.941 237.005 371.521 236.818C371.101 236.622 370.775 236.356 370.541 236.02C370.317 235.675 370.205 235.287 370.205 234.858C370.205 234.186 370.453 233.649 370.947 233.248C371.451 232.837 372.24 232.632 373.313 232.632H375.245V232.52C375.245 231.997 375.087 231.596 374.769 231.316C374.461 231.036 373.999 230.896 373.383 230.896C372.963 230.896 372.548 230.961 372.137 231.092C371.736 231.223 371.395 231.405 371.115 231.638L370.429 230.364C370.821 230.065 371.293 229.837 371.843 229.678C372.394 229.519 372.977 229.44 373.593 229.44ZM373.355 235.824C373.794 235.824 374.181 235.726 374.517 235.53C374.863 235.325 375.105 235.035 375.245 234.662V233.794H373.439C372.431 233.794 371.927 234.125 371.927 234.788C371.927 235.105 372.053 235.357 372.305 235.544C372.557 235.731 372.907 235.824 373.355 235.824ZM382.46 237.098C381.685 237.098 380.99 236.935 380.374 236.608C379.758 236.281 379.277 235.829 378.932 235.25C378.586 234.662 378.414 233.999 378.414 233.262C378.414 232.525 378.586 231.867 378.932 231.288C379.277 230.709 379.753 230.257 380.36 229.93C380.976 229.603 381.676 229.44 382.46 229.44C383.197 229.44 383.841 229.589 384.392 229.888C384.952 230.187 385.372 230.616 385.652 231.176L384.308 231.96C384.093 231.615 383.822 231.358 383.496 231.19C383.178 231.013 382.828 230.924 382.446 230.924C381.792 230.924 381.251 231.139 380.822 231.568C380.392 231.988 380.178 232.553 380.178 233.262C380.178 233.971 380.388 234.541 380.808 234.97C381.237 235.39 381.783 235.6 382.446 235.6C382.828 235.6 383.178 235.516 383.496 235.348C383.822 235.171 384.093 234.909 384.308 234.564L385.652 235.348C385.362 235.908 384.938 236.342 384.378 236.65C383.827 236.949 383.188 237.098 382.46 237.098ZM386.884 229.524H388.634V237H386.884V229.524ZM387.766 228.292C387.449 228.292 387.183 228.194 386.968 227.998C386.754 227.793 386.646 227.541 386.646 227.242C386.646 226.943 386.754 226.696 386.968 226.5C387.183 226.295 387.449 226.192 387.766 226.192C388.084 226.192 388.35 226.29 388.564 226.486C388.779 226.673 388.886 226.911 388.886 227.2C388.886 227.508 388.779 227.769 388.564 227.984C388.359 228.189 388.093 228.292 387.766 228.292ZM394.011 237.098C393.255 237.098 392.574 236.935 391.967 236.608C391.361 236.281 390.885 235.829 390.539 235.25C390.203 234.662 390.035 233.999 390.035 233.262C390.035 232.525 390.203 231.867 390.539 231.288C390.885 230.709 391.361 230.257 391.967 229.93C392.574 229.603 393.255 229.44 394.011 229.44C394.777 229.44 395.463 229.603 396.069 229.93C396.676 230.257 397.147 230.709 397.483 231.288C397.829 231.867 398.001 232.525 398.001 233.262C398.001 233.999 397.829 234.662 397.483 235.25C397.147 235.829 396.676 236.281 396.069 236.608C395.463 236.935 394.777 237.098 394.011 237.098ZM394.011 235.6C394.655 235.6 395.187 235.385 395.607 234.956C396.027 234.527 396.237 233.962 396.237 233.262C396.237 232.562 396.027 231.997 395.607 231.568C395.187 231.139 394.655 230.924 394.011 230.924C393.367 230.924 392.835 231.139 392.415 231.568C392.005 231.997 391.799 232.562 391.799 233.262C391.799 233.962 392.005 234.527 392.415 234.956C392.835 235.385 393.367 235.6 394.011 235.6Z" fill="#00394C"/>
</g>
<g filter="url(#filter7_d)">
<path d="M230.008 251.988H231.73V255.894C231.226 256.295 230.638 256.603 229.966 256.818C229.294 257.033 228.603 257.14 227.894 257.14C226.895 257.14 225.995 256.925 225.192 256.496C224.389 256.057 223.759 255.455 223.302 254.69C222.845 253.925 222.616 253.061 222.616 252.1C222.616 251.139 222.845 250.275 223.302 249.51C223.759 248.745 224.389 248.147 225.192 247.718C226.004 247.279 226.914 247.06 227.922 247.06C228.743 247.06 229.49 247.195 230.162 247.466C230.834 247.737 231.399 248.133 231.856 248.656L230.708 249.776C229.961 249.029 229.061 248.656 228.006 248.656C227.315 248.656 226.699 248.801 226.158 249.09C225.626 249.379 225.206 249.785 224.898 250.308C224.599 250.831 224.45 251.428 224.45 252.1C224.45 252.753 224.599 253.341 224.898 253.864C225.206 254.387 225.626 254.797 226.158 255.096C226.699 255.395 227.311 255.544 227.992 255.544C228.757 255.544 229.429 255.376 230.008 255.04V251.988ZM237.042 257.098C236.286 257.098 235.605 256.935 234.998 256.608C234.392 256.281 233.916 255.829 233.57 255.25C233.234 254.662 233.066 253.999 233.066 253.262C233.066 252.525 233.234 251.867 233.57 251.288C233.916 250.709 234.392 250.257 234.998 249.93C235.605 249.603 236.286 249.44 237.042 249.44C237.808 249.44 238.494 249.603 239.1 249.93C239.707 250.257 240.178 250.709 240.514 251.288C240.86 251.867 241.032 252.525 241.032 253.262C241.032 253.999 240.86 254.662 240.514 255.25C240.178 255.829 239.707 256.281 239.1 256.608C238.494 256.935 237.808 257.098 237.042 257.098ZM237.042 255.6C237.686 255.6 238.218 255.385 238.638 254.956C239.058 254.527 239.268 253.962 239.268 253.262C239.268 252.562 239.058 251.997 238.638 251.568C238.218 251.139 237.686 250.924 237.042 250.924C236.398 250.924 235.866 251.139 235.446 251.568C235.036 251.997 234.83 252.562 234.83 253.262C234.83 253.962 235.036 254.527 235.446 254.956C235.866 255.385 236.398 255.6 237.042 255.6ZM237.742 246.584H239.8L237.364 248.502H235.852L237.742 246.584ZM251.862 249.44C252.805 249.44 253.551 249.715 254.102 250.266C254.653 250.807 254.928 251.624 254.928 252.716V257H253.178V252.94C253.178 252.287 253.033 251.797 252.744 251.47C252.455 251.134 252.039 250.966 251.498 250.966C250.91 250.966 250.439 251.162 250.084 251.554C249.729 251.937 249.552 252.487 249.552 253.206V257H247.802V252.94C247.802 252.287 247.657 251.797 247.368 251.47C247.079 251.134 246.663 250.966 246.122 250.966C245.525 250.966 245.049 251.157 244.694 251.54C244.349 251.923 244.176 252.478 244.176 253.206V257H242.426V249.524H244.092V250.476C244.372 250.14 244.722 249.883 245.142 249.706C245.562 249.529 246.029 249.44 246.542 249.44C247.102 249.44 247.597 249.547 248.026 249.762C248.465 249.967 248.81 250.275 249.062 250.686C249.37 250.294 249.767 249.991 250.252 249.776C250.737 249.552 251.274 249.44 251.862 249.44ZM263.981 253.304C263.981 253.425 263.971 253.598 263.953 253.822H258.087C258.189 254.373 258.455 254.811 258.885 255.138C259.323 255.455 259.865 255.614 260.509 255.614C261.33 255.614 262.007 255.343 262.539 254.802L263.477 255.88C263.141 256.281 262.716 256.585 262.203 256.79C261.689 256.995 261.111 257.098 260.467 257.098C259.645 257.098 258.922 256.935 258.297 256.608C257.671 256.281 257.186 255.829 256.841 255.25C256.505 254.662 256.337 253.999 256.337 253.262C256.337 252.534 256.5 251.881 256.827 251.302C257.163 250.714 257.625 250.257 258.213 249.93C258.801 249.603 259.463 249.44 260.201 249.44C260.929 249.44 261.577 249.603 262.147 249.93C262.725 250.247 263.173 250.7 263.491 251.288C263.817 251.867 263.981 252.539 263.981 253.304ZM260.201 250.84C259.641 250.84 259.165 251.008 258.773 251.344C258.39 251.671 258.157 252.109 258.073 252.66H262.315C262.24 252.119 262.011 251.68 261.629 251.344C261.246 251.008 260.77 250.84 260.201 250.84ZM271.151 255.6V257H264.697V255.894L268.799 250.924H264.781V249.524H271.039V250.63L266.923 255.6H271.151ZM276.241 247.2H278.061V255.46H283.185V257H276.241V247.2ZM291.134 253.304C291.134 253.425 291.125 253.598 291.106 253.822H285.24C285.343 254.373 285.609 254.811 286.038 255.138C286.477 255.455 287.018 255.614 287.662 255.614C288.483 255.614 289.16 255.343 289.692 254.802L290.63 255.88C290.294 256.281 289.869 256.585 289.356 256.79C288.843 256.995 288.264 257.098 287.62 257.098C286.799 257.098 286.075 256.935 285.45 256.608C284.825 256.281 284.339 255.829 283.994 255.25C283.658 254.662 283.49 253.999 283.49 253.262C283.49 252.534 283.653 251.881 283.98 251.302C284.316 250.714 284.778 250.257 285.366 249.93C285.954 249.603 286.617 249.44 287.354 249.44C288.082 249.44 288.731 249.603 289.3 249.93C289.879 250.247 290.327 250.7 290.644 251.288C290.971 251.867 291.134 252.539 291.134 253.304ZM287.354 250.84C286.794 250.84 286.318 251.008 285.926 251.344C285.543 251.671 285.31 252.109 285.226 252.66H289.468C289.393 252.119 289.165 251.68 288.782 251.344C288.399 251.008 287.923 250.84 287.354 250.84ZM294.201 250.616C294.705 249.832 295.592 249.44 296.861 249.44V251.106C296.712 251.078 296.576 251.064 296.455 251.064C295.774 251.064 295.242 251.265 294.859 251.666C294.476 252.058 294.285 252.627 294.285 253.374V257H292.535V249.524H294.201V250.616ZM305.319 246.612V257H303.639V256.034C303.35 256.389 302.99 256.655 302.561 256.832C302.141 257.009 301.674 257.098 301.161 257.098C300.442 257.098 299.794 256.939 299.215 256.622C298.646 256.305 298.198 255.857 297.871 255.278C297.544 254.69 297.381 254.018 297.381 253.262C297.381 252.506 297.544 251.839 297.871 251.26C298.198 250.681 298.646 250.233 299.215 249.916C299.794 249.599 300.442 249.44 301.161 249.44C301.656 249.44 302.108 249.524 302.519 249.692C302.93 249.86 303.28 250.112 303.569 250.448V246.612H305.319ZM301.371 255.6C301.791 255.6 302.169 255.507 302.505 255.32C302.841 255.124 303.107 254.849 303.303 254.494C303.499 254.139 303.597 253.729 303.597 253.262C303.597 252.795 303.499 252.385 303.303 252.03C303.107 251.675 302.841 251.405 302.505 251.218C302.169 251.022 301.791 250.924 301.371 250.924C300.951 250.924 300.573 251.022 300.237 251.218C299.901 251.405 299.635 251.675 299.439 252.03C299.243 252.385 299.145 252.795 299.145 253.262C299.145 253.729 299.243 254.139 299.439 254.494C299.635 254.849 299.901 255.124 300.237 255.32C300.573 255.507 300.951 255.6 301.371 255.6ZM310.688 257.098C309.932 257.098 309.251 256.935 308.644 256.608C308.038 256.281 307.562 255.829 307.216 255.25C306.88 254.662 306.712 253.999 306.712 253.262C306.712 252.525 306.88 251.867 307.216 251.288C307.562 250.709 308.038 250.257 308.644 249.93C309.251 249.603 309.932 249.44 310.688 249.44C311.454 249.44 312.14 249.603 312.746 249.93C313.353 250.257 313.824 250.709 314.16 251.288C314.506 251.867 314.678 252.525 314.678 253.262C314.678 253.999 314.506 254.662 314.16 255.25C313.824 255.829 313.353 256.281 312.746 256.608C312.14 256.935 311.454 257.098 310.688 257.098ZM310.688 255.6C311.332 255.6 311.864 255.385 312.284 254.956C312.704 254.527 312.914 253.962 312.914 253.262C312.914 252.562 312.704 251.997 312.284 251.568C311.864 251.139 311.332 250.924 310.688 250.924C310.044 250.924 309.512 251.139 309.092 251.568C308.682 251.997 308.476 252.562 308.476 253.262C308.476 253.962 308.682 254.527 309.092 254.956C309.512 255.385 310.044 255.6 310.688 255.6Z" fill="#00394C"/>
</g>
<g filter="url(#filter8_d)">
<circle cx="296" cy="215" r="7" fill="#00394C"/>
<circle cx="296" cy="215" r="6" stroke="white" stroke-width="2"/>
</g>
<g filter="url(#filter9_d)">
<circle cx="210" cy="250" r="7" fill="#00394C"/>
<circle cx="210" cy="250" r="6" stroke="white" stroke-width="2"/>
</g>
<g filter="url(#filter10_d)">
<path d="M357.024 402.2V412H355.526L350.122 405.364V412H348.316V402.2H349.814L355.218 408.836V402.2H357.024ZM362.058 404.44C363.159 404.44 363.999 404.706 364.578 405.238C365.166 405.761 365.46 406.554 365.46 407.618V412H363.808V411.09C363.593 411.417 363.285 411.669 362.884 411.846C362.492 412.014 362.016 412.098 361.456 412.098C360.896 412.098 360.406 412.005 359.986 411.818C359.566 411.622 359.239 411.356 359.006 411.02C358.782 410.675 358.67 410.287 358.67 409.858C358.67 409.186 358.917 408.649 359.412 408.248C359.916 407.837 360.705 407.632 361.778 407.632H363.71V407.52C363.71 406.997 363.551 406.596 363.234 406.316C362.926 406.036 362.464 405.896 361.848 405.896C361.428 405.896 361.013 405.961 360.602 406.092C360.201 406.223 359.86 406.405 359.58 406.638L358.894 405.364C359.286 405.065 359.757 404.837 360.308 404.678C360.859 404.519 361.442 404.44 362.058 404.44ZM361.82 410.824C362.259 410.824 362.646 410.726 362.982 410.53C363.327 410.325 363.57 410.035 363.71 409.662V408.794H361.904C360.896 408.794 360.392 409.125 360.392 409.788C360.392 410.105 360.518 410.357 360.77 410.544C361.022 410.731 361.372 410.824 361.82 410.824ZM373.264 410.6V412H366.81V410.894L370.912 405.924H366.894V404.524H373.152V405.63L369.036 410.6H373.264ZM377.453 404.44C378.554 404.44 379.394 404.706 379.973 405.238C380.561 405.761 380.855 406.554 380.855 407.618V412H379.203V411.09C378.988 411.417 378.68 411.669 378.279 411.846C377.887 412.014 377.411 412.098 376.851 412.098C376.291 412.098 375.801 412.005 375.381 411.818C374.961 411.622 374.634 411.356 374.401 411.02C374.177 410.675 374.065 410.287 374.065 409.858C374.065 409.186 374.312 408.649 374.807 408.248C375.311 407.837 376.1 407.632 377.173 407.632H379.105V407.52C379.105 406.997 378.946 406.596 378.629 406.316C378.321 406.036 377.859 405.896 377.243 405.896C376.823 405.896 376.408 405.961 375.997 406.092C375.596 406.223 375.255 406.405 374.975 406.638L374.289 405.364C374.681 405.065 375.152 404.837 375.703 404.678C376.254 404.519 376.837 404.44 377.453 404.44ZM377.215 410.824C377.654 410.824 378.041 410.726 378.377 410.53C378.722 410.325 378.965 410.035 379.105 409.662V408.794H377.299C376.291 408.794 375.787 409.125 375.787 409.788C375.787 410.105 375.913 410.357 376.165 410.544C376.417 410.731 376.767 410.824 377.215 410.824ZM384.487 405.616C384.991 404.832 385.878 404.44 387.147 404.44V406.106C386.998 406.078 386.862 406.064 386.741 406.064C386.06 406.064 385.528 406.265 385.145 406.666C384.762 407.058 384.571 407.627 384.571 408.374V412H382.821V404.524H384.487V405.616ZM395.311 408.304C395.311 408.425 395.302 408.598 395.283 408.822H389.417C389.52 409.373 389.786 409.811 390.215 410.138C390.654 410.455 391.195 410.614 391.839 410.614C392.66 410.614 393.337 410.343 393.869 409.802L394.807 410.88C394.471 411.281 394.046 411.585 393.533 411.79C393.02 411.995 392.441 412.098 391.797 412.098C390.976 412.098 390.252 411.935 389.627 411.608C389.002 411.281 388.516 410.829 388.171 410.25C387.835 409.662 387.667 408.999 387.667 408.262C387.667 407.534 387.83 406.881 388.157 406.302C388.493 405.714 388.955 405.257 389.543 404.93C390.131 404.603 390.794 404.44 391.531 404.44C392.259 404.44 392.908 404.603 393.477 404.93C394.056 405.247 394.504 405.7 394.821 406.288C395.148 406.867 395.311 407.539 395.311 408.304ZM391.531 405.84C390.971 405.84 390.495 406.008 390.103 406.344C389.72 406.671 389.487 407.109 389.403 407.66H393.645C393.57 407.119 393.342 406.68 392.959 406.344C392.576 406.008 392.1 405.84 391.531 405.84ZM400.954 404.44C401.897 404.44 402.653 404.715 403.222 405.266C403.791 405.817 404.076 406.633 404.076 407.716V412H402.326V407.94C402.326 407.287 402.172 406.797 401.864 406.47C401.556 406.134 401.117 405.966 400.548 405.966C399.904 405.966 399.395 406.162 399.022 406.554C398.649 406.937 398.462 407.492 398.462 408.22V412H396.712V404.524H398.378V405.49C398.667 405.145 399.031 404.883 399.47 404.706C399.909 404.529 400.403 404.44 400.954 404.44ZM409.444 412.098C408.688 412.098 408.007 411.935 407.4 411.608C406.794 411.281 406.318 410.829 405.972 410.25C405.636 409.662 405.468 408.999 405.468 408.262C405.468 407.525 405.636 406.867 405.972 406.288C406.318 405.709 406.794 405.257 407.4 404.93C408.007 404.603 408.688 404.44 409.444 404.44C410.21 404.44 410.896 404.603 411.502 404.93C412.109 405.257 412.58 405.709 412.916 406.288C413.262 406.867 413.434 407.525 413.434 408.262C413.434 408.999 413.262 409.662 412.916 410.25C412.58 410.829 412.109 411.281 411.502 411.608C410.896 411.935 410.21 412.098 409.444 412.098ZM409.444 410.6C410.088 410.6 410.62 410.385 411.04 409.956C411.46 409.527 411.67 408.962 411.67 408.262C411.67 407.562 411.46 406.997 411.04 406.568C410.62 406.139 410.088 405.924 409.444 405.924C408.8 405.924 408.268 406.139 407.848 406.568C407.438 406.997 407.232 407.562 407.232 408.262C407.232 408.962 407.438 409.527 407.848 409.956C408.268 410.385 408.8 410.6 409.444 410.6Z" fill="#00394C"/>
</g>
<g filter="url(#filter11_d)">
<circle cx="349" cy="390" r="7" fill="#00394C"/>
<circle cx="349" cy="390" r="6" stroke="white" stroke-width="2"/>
</g>
<ellipse cx="489" cy="270" rx="49" ry="39" fill="white"/>
<path d="M500.3 279.999L500.243 279.946V275.991L505.774 277.167L500.3 279.999ZM507.619 276.212L500.243 274.644V269.682L514.417 272.695L507.619 276.212V276.212ZM516.262 271.741L500.243 268.335V263.471L523.28 268.11L516.262 271.741Z" fill="#139B47"/>
<path d="M478.037 301.002V274.789L484.331 275.969V295.063L478.037 301.002ZM486.112 293.382V276.303L492.88 277.572V286.994L486.112 293.382ZM494.662 285.314V277.906L498.922 278.704L500.294 279.998L494.662 285.314V285.314Z" fill="#00394C"/>
<path d="M500.243 280L494.662 274.735V243.267L500.243 238V280ZM492.762 272.943L486.112 266.67V251.335L492.762 245.06V272.942V272.943ZM484.331 264.989L477.986 259.003L484.331 253.016V264.989Z" fill="#00394C"/>
<path d="M500.243 280L455 270.889L461.339 267.61L494.608 274.684L500.243 280ZM492.764 272.945L463.184 266.655L469.832 263.216L486.122 266.68L492.764 272.945L492.764 272.945ZM484.279 264.941L471.677 262.262L477.981 259L484.278 264.941L484.279 264.941Z" fill="#139B47"/>
<path d="M552.318 257L552.304 250.504L549.084 255.88H548.272L545.052 250.588V257H543.316V247.2H544.814L548.706 253.696L552.528 247.2H554.026L554.04 257H552.318ZM559.095 249.44C560.196 249.44 561.036 249.706 561.615 250.238C562.203 250.761 562.497 251.554 562.497 252.618V257H560.845V256.09C560.63 256.417 560.322 256.669 559.921 256.846C559.529 257.014 559.053 257.098 558.493 257.098C557.933 257.098 557.443 257.005 557.023 256.818C556.603 256.622 556.276 256.356 556.043 256.02C555.819 255.675 555.707 255.287 555.707 254.858C555.707 254.186 555.954 253.649 556.449 253.248C556.953 252.837 557.742 252.632 558.815 252.632H560.747V252.52C560.747 251.997 560.588 251.596 560.271 251.316C559.963 251.036 559.501 250.896 558.885 250.896C558.465 250.896 558.05 250.961 557.639 251.092C557.238 251.223 556.897 251.405 556.617 251.638L555.931 250.364C556.323 250.065 556.794 249.837 557.345 249.678C557.896 249.519 558.479 249.44 559.095 249.44ZM558.857 255.824C559.296 255.824 559.683 255.726 560.019 255.53C560.364 255.325 560.607 255.035 560.747 254.662V253.794H558.941C557.933 253.794 557.429 254.125 557.429 254.788C557.429 255.105 557.555 255.357 557.807 255.544C558.059 255.731 558.409 255.824 558.857 255.824ZM568.957 256.594C568.752 256.762 568.5 256.888 568.201 256.972C567.912 257.056 567.604 257.098 567.277 257.098C566.456 257.098 565.821 256.883 565.373 256.454C564.925 256.025 564.701 255.399 564.701 254.578V250.98H563.469V249.58H564.701V247.872H566.451V249.58H568.453V250.98H566.451V254.536C566.451 254.9 566.54 255.18 566.717 255.376C566.894 255.563 567.151 255.656 567.487 255.656C567.879 255.656 568.206 255.553 568.467 255.348L568.957 256.594ZM572.973 249.44C574.074 249.44 574.914 249.706 575.493 250.238C576.081 250.761 576.375 251.554 576.375 252.618V257H574.723V256.09C574.508 256.417 574.2 256.669 573.799 256.846C573.407 257.014 572.931 257.098 572.371 257.098C571.811 257.098 571.321 257.005 570.901 256.818C570.481 256.622 570.154 256.356 569.921 256.02C569.697 255.675 569.585 255.287 569.585 254.858C569.585 254.186 569.832 253.649 570.327 253.248C570.831 252.837 571.619 252.632 572.693 252.632H574.625V252.52C574.625 251.997 574.466 251.596 574.149 251.316C573.841 251.036 573.379 250.896 572.763 250.896C572.343 250.896 571.927 250.961 571.517 251.092C571.115 251.223 570.775 251.405 570.495 251.638L569.809 250.364C570.201 250.065 570.672 249.837 571.223 249.678C571.773 249.519 572.357 249.44 572.973 249.44ZM572.735 255.824C573.173 255.824 573.561 255.726 573.897 255.53C574.242 255.325 574.485 255.035 574.625 254.662V253.794H572.819C571.811 253.794 571.307 254.125 571.307 254.788C571.307 255.105 571.433 255.357 571.685 255.544C571.937 255.731 572.287 255.824 572.735 255.824ZM587.777 249.44C588.719 249.44 589.466 249.715 590.017 250.266C590.567 250.807 590.843 251.624 590.843 252.716V257H589.093V252.94C589.093 252.287 588.948 251.797 588.659 251.47C588.369 251.134 587.954 250.966 587.413 250.966C586.825 250.966 586.353 251.162 585.999 251.554C585.644 251.937 585.467 252.487 585.467 253.206V257H583.717V252.94C583.717 252.287 583.572 251.797 583.283 251.47C582.993 251.134 582.578 250.966 582.037 250.966C581.439 250.966 580.963 251.157 580.609 251.54C580.263 251.923 580.091 252.478 580.091 253.206V257H578.341V249.524H580.007V250.476C580.287 250.14 580.637 249.883 581.057 249.706C581.477 249.529 581.943 249.44 582.457 249.44C583.017 249.44 583.511 249.547 583.941 249.762C584.379 249.967 584.725 250.275 584.977 250.686C585.285 250.294 585.681 249.991 586.167 249.776C586.652 249.552 587.189 249.44 587.777 249.44ZM596.227 257.098C595.471 257.098 594.79 256.935 594.183 256.608C593.576 256.281 593.1 255.829 592.755 255.25C592.419 254.662 592.251 253.999 592.251 253.262C592.251 252.525 592.419 251.867 592.755 251.288C593.1 250.709 593.576 250.257 594.183 249.93C594.79 249.603 595.471 249.44 596.227 249.44C596.992 249.44 597.678 249.603 598.285 249.93C598.892 250.257 599.363 250.709 599.699 251.288C600.044 251.867 600.217 252.525 600.217 253.262C600.217 253.999 600.044 254.662 599.699 255.25C599.363 255.829 598.892 256.281 598.285 256.608C597.678 256.935 596.992 257.098 596.227 257.098ZM596.227 255.6C596.871 255.6 597.403 255.385 597.823 254.956C598.243 254.527 598.453 253.962 598.453 253.262C598.453 252.562 598.243 251.997 597.823 251.568C597.403 251.139 596.871 250.924 596.227 250.924C595.583 250.924 595.051 251.139 594.631 251.568C594.22 251.997 594.015 252.562 594.015 253.262C594.015 253.962 594.22 254.527 594.631 254.956C595.051 255.385 595.583 255.6 596.227 255.6ZM603.277 250.616C603.781 249.832 604.667 249.44 605.937 249.44V251.106C605.787 251.078 605.652 251.064 605.531 251.064C604.849 251.064 604.317 251.265 603.935 251.666C603.552 252.058 603.361 252.627 603.361 253.374V257H601.611V249.524H603.277V250.616ZM610.433 257.098C609.677 257.098 608.995 256.935 608.389 256.608C607.782 256.281 607.306 255.829 606.961 255.25C606.625 254.662 606.457 253.999 606.457 253.262C606.457 252.525 606.625 251.867 606.961 251.288C607.306 250.709 607.782 250.257 608.389 249.93C608.995 249.603 609.677 249.44 610.433 249.44C611.198 249.44 611.884 249.603 612.491 249.93C613.097 250.257 613.569 250.709 613.905 251.288C614.25 251.867 614.423 252.525 614.423 253.262C614.423 253.999 614.25 254.662 613.905 255.25C613.569 255.829 613.097 256.281 612.491 256.608C611.884 256.935 611.198 257.098 610.433 257.098ZM610.433 255.6C611.077 255.6 611.609 255.385 612.029 254.956C612.449 254.527 612.659 253.962 612.659 253.262C612.659 252.562 612.449 251.997 612.029 251.568C611.609 251.139 611.077 250.924 610.433 250.924C609.789 250.924 609.257 251.139 608.837 251.568C608.426 251.997 608.221 252.562 608.221 253.262C608.221 253.962 608.426 254.527 608.837 254.956C609.257 255.385 609.789 255.6 610.433 255.6ZM618.126 257.098C617.52 257.098 616.927 257.019 616.348 256.86C615.77 256.701 615.308 256.501 614.962 256.258L615.634 254.928C615.97 255.152 616.372 255.334 616.838 255.474C617.314 255.605 617.781 255.67 618.238 255.67C619.284 255.67 619.806 255.395 619.806 254.844C619.806 254.583 619.671 254.401 619.4 254.298C619.139 254.195 618.714 254.097 618.126 254.004C617.51 253.911 617.006 253.803 616.614 253.682C616.232 253.561 615.896 253.351 615.606 253.052C615.326 252.744 615.186 252.319 615.186 251.778C615.186 251.069 615.48 250.504 616.068 250.084C616.666 249.655 617.468 249.44 618.476 249.44C618.99 249.44 619.503 249.501 620.016 249.622C620.53 249.734 620.95 249.888 621.276 250.084L620.604 251.414C619.97 251.041 619.256 250.854 618.462 250.854C617.949 250.854 617.557 250.933 617.286 251.092C617.025 251.241 616.894 251.442 616.894 251.694C616.894 251.974 617.034 252.175 617.314 252.296C617.604 252.408 618.047 252.515 618.644 252.618C619.242 252.711 619.732 252.819 620.114 252.94C620.497 253.061 620.824 253.267 621.094 253.556C621.374 253.845 621.514 254.256 621.514 254.788C621.514 255.488 621.211 256.048 620.604 256.468C619.998 256.888 619.172 257.098 618.126 257.098Z" fill="#00394C"/>
<path d="M571.636 287.468L570.736 288.356V290H568.864V281.096H570.736V286.136L573.472 283.544H575.704L573.016 286.28L575.944 290H573.676L571.636 287.468ZM584.767 283.448C585.575 283.448 586.215 283.688 586.687 284.168C587.167 284.64 587.407 285.352 587.407 286.304V290H585.535V286.592C585.535 286.08 585.427 285.7 585.211 285.452C585.003 285.196 584.703 285.068 584.311 285.068C583.871 285.068 583.523 285.212 583.267 285.5C583.011 285.78 582.883 286.2 582.883 286.76V290H581.011V286.592C581.011 285.576 580.603 285.068 579.787 285.068C579.355 285.068 579.011 285.212 578.755 285.5C578.499 285.78 578.371 286.2 578.371 286.76V290H576.499V283.544H578.287V284.288C578.527 284.016 578.819 283.808 579.163 283.664C579.515 283.52 579.899 283.448 580.315 283.448C580.771 283.448 581.183 283.54 581.551 283.724C581.919 283.9 582.215 284.16 582.439 284.504C582.703 284.168 583.035 283.908 583.435 283.724C583.843 283.54 584.287 283.448 584.767 283.448Z" fill="#00394C"/>
<path d="M628.636 313.468L627.736 314.356V316H625.864V307.096H627.736V312.136L630.472 309.544H632.704L630.016 312.28L632.944 316H630.676L628.636 313.468ZM641.767 309.448C642.575 309.448 643.215 309.688 643.687 310.168C644.167 310.64 644.407 311.352 644.407 312.304V316H642.535V312.592C642.535 312.08 642.427 311.7 642.211 311.452C642.003 311.196 641.703 311.068 641.311 311.068C640.871 311.068 640.523 311.212 640.267 311.5C640.011 311.78 639.883 312.2 639.883 312.76V316H638.011V312.592C638.011 311.576 637.603 311.068 636.787 311.068C636.355 311.068 636.011 311.212 635.755 311.5C635.499 311.78 635.371 312.2 635.371 312.76V316H633.499V309.544H635.287V310.288C635.527 310.016 635.819 309.808 636.163 309.664C636.515 309.52 636.899 309.448 637.315 309.448C637.771 309.448 638.183 309.54 638.551 309.724C638.919 309.9 639.215 310.16 639.439 310.504C639.703 310.168 640.035 309.908 640.435 309.724C640.843 309.54 641.287 309.448 641.767 309.448Z" fill="#00394C"/>
<path d="M674.636 342.468L673.736 343.356V345H671.864V336.096H673.736V341.136L676.472 338.544H678.704L676.016 341.28L678.944 345H676.676L674.636 342.468ZM687.767 338.448C688.575 338.448 689.215 338.688 689.687 339.168C690.167 339.64 690.407 340.352 690.407 341.304V345H688.535V341.592C688.535 341.08 688.427 340.7 688.211 340.452C688.003 340.196 687.703 340.068 687.311 340.068C686.871 340.068 686.523 340.212 686.267 340.5C686.011 340.78 685.883 341.2 685.883 341.76V345H684.011V341.592C684.011 340.576 683.603 340.068 682.787 340.068C682.355 340.068 682.011 340.212 681.755 340.5C681.499 340.78 681.371 341.2 681.371 341.76V345H679.499V338.544H681.287V339.288C681.527 339.016 681.819 338.808 682.163 338.664C682.515 338.52 682.899 338.448 683.315 338.448C683.771 338.448 684.183 338.54 684.551 338.724C684.919 338.9 685.215 339.16 685.439 339.504C685.703 339.168 686.035 338.908 686.435 338.724C686.843 338.54 687.287 338.448 687.767 338.448Z" fill="#00394C"/>
<path d="M726.636 373.468L725.736 374.356V376H723.864V367.096H725.736V372.136L728.472 369.544H730.704L728.016 372.28L730.944 376H728.676L726.636 373.468ZM739.767 369.448C740.575 369.448 741.215 369.688 741.687 370.168C742.167 370.64 742.407 371.352 742.407 372.304V376H740.535V372.592C740.535 372.08 740.427 371.7 740.211 371.452C740.003 371.196 739.703 371.068 739.311 371.068C738.871 371.068 738.523 371.212 738.267 371.5C738.011 371.78 737.883 372.2 737.883 372.76V376H736.011V372.592C736.011 371.576 735.603 371.068 734.787 371.068C734.355 371.068 734.011 371.212 733.755 371.5C733.499 371.78 733.371 372.2 733.371 372.76V376H731.499V369.544H733.287V370.288C733.527 370.016 733.819 369.808 734.163 369.664C734.515 369.52 734.899 369.448 735.315 369.448C735.771 369.448 736.183 369.54 736.551 369.724C736.919 369.9 737.215 370.16 737.439 370.504C737.703 370.168 738.035 369.908 738.435 369.724C738.843 369.54 739.287 369.448 739.767 369.448Z" fill="#00394C"/>
<path d="M772.636 402.468L771.736 403.356V405H769.864V396.096H771.736V401.136L774.472 398.544H776.704L774.016 401.28L776.944 405H774.676L772.636 402.468ZM785.767 398.448C786.575 398.448 787.215 398.688 787.687 399.168C788.167 399.64 788.407 400.352 788.407 401.304V405H786.535V401.592C786.535 401.08 786.427 400.7 786.211 400.452C786.003 400.196 785.703 400.068 785.311 400.068C784.871 400.068 784.523 400.212 784.267 400.5C784.011 400.78 783.883 401.2 783.883 401.76V405H782.011V401.592C782.011 400.576 781.603 400.068 780.787 400.068C780.355 400.068 780.011 400.212 779.755 400.5C779.499 400.78 779.371 401.2 779.371 401.76V405H777.499V398.544H779.287V399.288C779.527 399.016 779.819 398.808 780.163 398.664C780.515 398.52 780.899 398.448 781.315 398.448C781.771 398.448 782.183 398.54 782.551 398.724C782.919 398.9 783.215 399.16 783.439 399.504C783.703 399.168 784.035 398.908 784.435 398.724C784.843 398.54 785.287 398.448 785.767 398.448Z" fill="#00394C"/>
<path d="M827.636 431.468L826.736 432.356V434H824.864V425.096H826.736V430.136L829.472 427.544H831.704L829.016 430.28L831.944 434H829.676L827.636 431.468ZM840.767 427.448C841.575 427.448 842.215 427.688 842.687 428.168C843.167 428.64 843.407 429.352 843.407 430.304V434H841.535V430.592C841.535 430.08 841.427 429.7 841.211 429.452C841.003 429.196 840.703 429.068 840.311 429.068C839.871 429.068 839.523 429.212 839.267 429.5C839.011 429.78 838.883 430.2 838.883 430.76V434H837.011V430.592C837.011 429.576 836.603 429.068 835.787 429.068C835.355 429.068 835.011 429.212 834.755 429.5C834.499 429.78 834.371 430.2 834.371 430.76V434H832.499V427.544H834.287V428.288C834.527 428.016 834.819 427.808 835.163 427.664C835.515 427.52 835.899 427.448 836.315 427.448C836.771 427.448 837.183 427.54 837.551 427.724C837.919 427.9 838.215 428.16 838.439 428.504C838.703 428.168 839.035 427.908 839.435 427.724C839.843 427.54 840.287 427.448 840.767 427.448Z" fill="#00394C"/>
<path d="M877.636 468.468L876.736 469.356V471H874.864V462.096H876.736V467.136L879.472 464.544H881.704L879.016 467.28L881.944 471H879.676L877.636 468.468ZM890.767 464.448C891.575 464.448 892.215 464.688 892.687 465.168C893.167 465.64 893.407 466.352 893.407 467.304V471H891.535V467.592C891.535 467.08 891.427 466.7 891.211 466.452C891.003 466.196 890.703 466.068 890.311 466.068C889.871 466.068 889.523 466.212 889.267 466.5C889.011 466.78 888.883 467.2 888.883 467.76V471H887.011V467.592C887.011 466.576 886.603 466.068 885.787 466.068C885.355 466.068 885.011 466.212 884.755 466.5C884.499 466.78 884.371 467.2 884.371 467.76V471H882.499V464.544H884.287V465.288C884.527 465.016 884.819 464.808 885.163 464.664C885.515 464.52 885.899 464.448 886.315 464.448C886.771 464.448 887.183 464.54 887.551 464.724C887.919 464.9 888.215 465.16 888.439 465.504C888.703 465.168 889.035 464.908 889.435 464.724C889.843 464.54 890.287 464.448 890.767 464.448Z" fill="#00394C"/>
<path d="M934.636 498.468L933.736 499.356V501H931.864V492.096H933.736V497.136L936.472 494.544H938.704L936.016 497.28L938.944 501H936.676L934.636 498.468ZM947.767 494.448C948.575 494.448 949.215 494.688 949.687 495.168C950.167 495.64 950.407 496.352 950.407 497.304V501H948.535V497.592C948.535 497.08 948.427 496.7 948.211 496.452C948.003 496.196 947.703 496.068 947.311 496.068C946.871 496.068 946.523 496.212 946.267 496.5C946.011 496.78 945.883 497.2 945.883 497.76V501H944.011V497.592C944.011 496.576 943.603 496.068 942.787 496.068C942.355 496.068 942.011 496.212 941.755 496.5C941.499 496.78 941.371 497.2 941.371 497.76V501H939.499V494.544H941.287V495.288C941.527 495.016 941.819 494.808 942.163 494.664C942.515 494.52 942.899 494.448 943.315 494.448C943.771 494.448 944.183 494.54 944.551 494.724C944.919 494.9 945.215 495.16 945.439 495.504C945.703 495.168 946.035 494.908 946.435 494.724C946.843 494.54 947.287 494.448 947.767 494.448Z" fill="#00394C"/>
<g filter="url(#filter12_d)">
<circle cx="530.5" cy="250.5" r="4.5" fill="#00394C"/>
<circle cx="530.5" cy="250.5" r="3.5" stroke="white" stroke-width="2"/>
</g>
<defs>
<filter id="filter0_d" x="496.316" y="87.1924" width="153.776" height="34.906" filterUnits="userSpaceOnUse" color-interpolation-filters="sRGB">
<feFlood flood-opacity="0" result="BackgroundImageFix"/>
<feColorMatrix in="SourceAlpha" type="matrix" values="0 0 0 0 0 0 0 0 0 0 0 0 0 0 0 0 0 0 127 0"/>
<feOffset/>
<feGaussianBlur stdDeviation="6"/>
<feColorMatrix type="matrix" values="0 0 0 0 1 0 0 0 0 0.9875 0 0 0 0 0.9875 0 0 0 0.5 0"/>
<feBlend mode="normal" in2="BackgroundImageFix" result="effect1_dropShadow"/>
<feBlend mode="normal" in="SourceGraphic" in2="effect1_dropShadow" result="shape"/>
</filter>
<filter id="filter1_d" x="498" y="80" width="22" height="22" filterUnits="userSpaceOnUse" color-interpolation-filters="sRGB">
<feFlood flood-opacity="0" result="BackgroundImageFix"/>
<feColorMatrix in="SourceAlpha" type="matrix" values="0 0 0 0 0 0 0 0 0 0 0 0 0 0 0 0 0 0 127 0"/>
<feOffset dy="4"/>
<feGaussianBlur stdDeviation="2"/>
<feColorMatrix type="matrix" values="0 0 0 0 0 0 0 0 0 0 0 0 0 0 0 0 0 0 0.25 0"/>
<feBlend mode="normal" in2="BackgroundImageFix" result="effect1_dropShadow"/>
<feBlend mode="normal" in="SourceGraphic" in2="effect1_dropShadow" result="shape"/>
</filter>
<filter id="filter2_d" x="360.056" y="254.584" width="76.7408" height="34.514" filterUnits="userSpaceOnUse" color-interpolation-filters="sRGB">
<feFlood flood-opacity="0" result="BackgroundImageFix"/>
<feColorMatrix in="SourceAlpha" type="matrix" values="0 0 0 0 0 0 0 0 0 0 0 0 0 0 0 0 0 0 127 0"/>
<feOffset/>
<feGaussianBlur stdDeviation="6"/>
<feColorMatrix type="matrix" values="0 0 0 0 1 0 0 0 0 0.9875 0 0 0 0 0.9875 0 0 0 0.5 0"/>
<feBlend mode="normal" in2="BackgroundImageFix" result="effect1_dropShadow"/>
<feBlend mode="normal" in="SourceGraphic" in2="effect1_dropShadow" result="shape"/>
</filter>
<filter id="filter3_d" x="363" y="250" width="22" height="22" filterUnits="userSpaceOnUse" color-interpolation-filters="sRGB">
<feFlood flood-opacity="0" result="BackgroundImageFix"/>
<feColorMatrix in="SourceAlpha" type="matrix" values="0 0 0 0 0 0 0 0 0 0 0 0 0 0 0 0 0 0 127 0"/>
<feOffset dy="4"/>
<feGaussianBlur stdDeviation="2"/>
<feColorMatrix type="matrix" values="0 0 0 0 0 0 0 0 0 0 0 0 0 0 0 0 0 0 0.25 0"/>
<feBlend mode="normal" in2="BackgroundImageFix" result="effect1_dropShadow"/>
<feBlend mode="normal" in="SourceGraphic" in2="effect1_dropShadow" result="shape"/>
</filter>
<filter id="filter4_d" x="755.49" y="95.6123" width="94.5864" height="34.528" filterUnits="userSpaceOnUse" color-interpolation-filters="sRGB">
<feFlood flood-opacity="0" result="BackgroundImageFix"/>
<feColorMatrix in="SourceAlpha" type="matrix" values="0 0 0 0 0 0 0 0 0 0 0 0 0 0 0 0 0 0 127 0"/>
<feOffset/>
<feGaussianBlur stdDeviation="6"/>
<feColorMatrix type="matrix" values="0 0 0 0 1 0 0 0 0 0.9875 0 0 0 0 0.9875 0 0 0 0.5 0"/>
<feBlend mode="normal" in2="BackgroundImageFix" result="effect1_dropShadow"/>
<feBlend mode="normal" in="SourceGraphic" in2="effect1_dropShadow" result="shape"/>
</filter>
<filter id="filter5_d" x="758" y="87" width="22" height="22" filterUnits="userSpaceOnUse" color-interpolation-filters="sRGB">
<feFlood flood-opacity="0" result="BackgroundImageFix"/>
<feColorMatrix in="SourceAlpha" type="matrix" values="0 0 0 0 0 0 0 0 0 0 0 0 0 0 0 0 0 0 127 0"/>
<feOffset dy="4"/>
<feGaussianBlur stdDeviation="2"/>
<feColorMatrix type="matrix" values="0 0 0 0 0 0 0 0 0 0 0 0 0 0 0 0 0 0 0.25 0"/>
<feBlend mode="normal" in2="BackgroundImageFix" result="effect1_dropShadow"/>
<feBlend mode="normal" in="SourceGraphic" in2="effect1_dropShadow" result="shape"/>
</filter>
<filter id="filter6_d" x="283.616" y="214.191" width="126.385" height="34.948" filterUnits="userSpaceOnUse" color-interpolation-filters="sRGB">
<feFlood flood-opacity="0" result="BackgroundImageFix"/>
<feColorMatrix in="SourceAlpha" type="matrix" values="0 0 0 0 0 0 0 0 0 0 0 0 0 0 0 0 0 0 127 0"/>
<feOffset/>
<feGaussianBlur stdDeviation="6"/>
<feColorMatrix type="matrix" values="0 0 0 0 1 0 0 0 0 0.9875 0 0 0 0 0.9875 0 0 0 0.5 0"/>
<feBlend mode="normal" in2="BackgroundImageFix" result="effect1_dropShadow"/>
<feBlend mode="normal" in="SourceGraphic" in2="effect1_dropShadow" result="shape"/>
</filter>
<filter id="filter7_d" x="210.616" y="234.584" width="116.062" height="34.556" filterUnits="userSpaceOnUse" color-interpolation-filters="sRGB">
<feFlood flood-opacity="0" result="BackgroundImageFix"/>
<feColorMatrix in="SourceAlpha" type="matrix" values="0 0 0 0 0 0 0 0 0 0 0 0 0 0 0 0 0 0 127 0"/>
<feOffset/>
<feGaussianBlur stdDeviation="6"/>
<feColorMatrix type="matrix" values="0 0 0 0 1 0 0 0 0 0.9875 0 0 0 0 0.9875 0 0 0 0.5 0"/>
<feBlend mode="normal" in2="BackgroundImageFix" result="effect1_dropShadow"/>
<feBlend mode="normal" in="SourceGraphic" in2="effect1_dropShadow" result="shape"/>
</filter>
<filter id="filter8_d" x="285" y="208" width="22" height="22" filterUnits="userSpaceOnUse" color-interpolation-filters="sRGB">
<feFlood flood-opacity="0" result="BackgroundImageFix"/>
<feColorMatrix in="SourceAlpha" type="matrix" values="0 0 0 0 0 0 0 0 0 0 0 0 0 0 0 0 0 0 127 0"/>
<feOffset dy="4"/>
<feGaussianBlur stdDeviation="2"/>
<feColorMatrix type="matrix" values="0 0 0 0 0 0 0 0 0 0 0 0 0 0 0 0 0 0 0.25 0"/>
<feBlend mode="normal" in2="BackgroundImageFix" result="effect1_dropShadow"/>
<feBlend mode="normal" in="SourceGraphic" in2="effect1_dropShadow" result="shape"/>
</filter>
<filter id="filter9_d" x="199" y="243" width="22" height="22" filterUnits="userSpaceOnUse" color-interpolation-filters="sRGB">
<feFlood flood-opacity="0" result="BackgroundImageFix"/>
<feColorMatrix in="SourceAlpha" type="matrix" values="0 0 0 0 0 0 0 0 0 0 0 0 0 0 0 0 0 0 127 0"/>
<feOffset dy="4"/>
<feGaussianBlur stdDeviation="2"/>
<feColorMatrix type="matrix" values="0 0 0 0 0 0 0 0 0 0 0 0 0 0 0 0 0 0 0.25 0"/>
<feBlend mode="normal" in2="BackgroundImageFix" result="effect1_dropShadow"/>
<feBlend mode="normal" in="SourceGraphic" in2="effect1_dropShadow" result="shape"/>
</filter>
<filter id="filter10_d" x="336.316" y="390.199" width="89.1185" height="33.898" filterUnits="userSpaceOnUse" color-interpolation-filters="sRGB">
<feFlood flood-opacity="0" result="BackgroundImageFix"/>
<feColorMatrix in="SourceAlpha" type="matrix" values="0 0 0 0 0 0 0 0 0 0 0 0 0 0 0 0 0 0 127 0"/>
<feOffset/>
<feGaussianBlur stdDeviation="6"/>
<feColorMatrix type="matrix" values="0 0 0 0 1 0 0 0 0 0.9875 0 0 0 0 0.9875 0 0 0 0.5 0"/>
<feBlend mode="normal" in2="BackgroundImageFix" result="effect1_dropShadow"/>
<feBlend mode="normal" in="SourceGraphic" in2="effect1_dropShadow" result="shape"/>
</filter>
<filter id="filter11_d" x="338" y="383" width="22" height="22" filterUnits="userSpaceOnUse" color-interpolation-filters="sRGB">
<feFlood flood-opacity="0" result="BackgroundImageFix"/>
<feColorMatrix in="SourceAlpha" type="matrix" values="0 0 0 0 0 0 0 0 0 0 0 0 0 0 0 0 0 0 127 0"/>
<feOffset dy="4"/>
<feGaussianBlur stdDeviation="2"/>
<feColorMatrix type="matrix" values="0 0 0 0 0 0 0 0 0 0 0 0 0 0 0 0 0 0 0.25 0"/>
<feBlend mode="normal" in2="BackgroundImageFix" result="effect1_dropShadow"/>
<feBlend mode="normal" in="SourceGraphic" in2="effect1_dropShadow" result="shape"/>
</filter>
<filter id="filter12_d" x="522" y="246" width="17" height="17" filterUnits="userSpaceOnUse" color-interpolation-filters="sRGB">
<feFlood flood-opacity="0" result="BackgroundImageFix"/>
<feColorMatrix in="SourceAlpha" type="matrix" values="0 0 0 0 0 0 0 0 0 0 0 0 0 0 0 0 0 0 127 0"/>
<feOffset dy="4"/>
<feGaussianBlur stdDeviation="2"/>
<feColorMatrix type="matrix" values="0 0 0 0 0 0 0 0 0 0 0 0 0 0 0 0 0 0 0.25 0"/>
<feBlend mode="normal" in2="BackgroundImageFix" result="effect1_dropShadow"/>
<feBlend mode="normal" in="SourceGraphic" in2="effect1_dropShadow" result="shape"/>
</filter>
</defs>
</svg>
