<svg width="464" height="204" viewBox="0 0 464 204" fill="none" xmlns="http://www.w3.org/2000/svg">
<path d="M233.84 121.615L227.995 127.463L235.382 134.854L241.227 129.006L233.84 121.615Z" fill="#C0CD48"/>
<path d="M231.456 66.0048L223.733 76.4492L228.625 80.071L236.348 69.6266L231.456 66.0048Z" fill="#C0CD48"/>
<path d="M229.252 46.7657L227.527 48.7168L230.525 51.3706L232.25 49.4195L229.252 46.7657Z" fill="#C0CD48"/>
<path d="M111.916 97.3606C111.493 91.6948 107.913 88.2433 102.641 88.3084C97.2389 88.3735 93.3662 92.053 93.171 97.3606H111.916ZM106.839 115.628C108.824 115.042 110.451 113.967 111.33 112.079C111.558 111.59 111.786 111.037 111.883 110.809H123.176C122.037 115.986 119.108 119.633 114.715 122.205C106.676 126.894 94.2449 125.234 87.7363 118.623C77.6479 108.399 80.2839 88.634 92.6178 81.9914C104.789 75.4139 118.717 81.3076 122.492 94.7882C123.404 98.1095 123.794 102.408 123.794 105.403H92.9757C93.3988 113.023 99.8098 117.679 106.839 115.628ZM172.511 80.4284C166.36 79.2887 162.325 82.0565 159.266 87.1362V80.7866H148.397V123.475H159.657C159.657 121.652 159.624 119.893 159.657 118.168C159.722 112.144 159.624 106.087 159.949 100.063C160.242 94.9836 163.432 91.4994 168.085 90.6203C169.127 87.0385 170.624 83.5869 172.511 80.4284ZM144.459 88.1456H139.285C139.252 88.9271 139.187 89.5457 139.187 90.1644C139.187 96.6768 139.187 103.189 139.187 109.702C139.187 114.13 140.228 115.204 144.459 115.204V123.573C140.879 123.703 137.299 123.964 133.85 122.596C130.596 121.294 128.741 118.819 128.285 115.4C128.057 113.609 128.057 111.818 128.057 109.995C128.025 103.417 128.057 96.8396 128.057 90.2946V88.1456C126.267 88.1456 124.77 88.2107 123.273 88.113C122.883 88.0804 122.199 87.5595 122.167 87.2338C122.069 85.1173 122.102 82.9682 122.102 80.6563H127.992V67.3711H139.122V80.6238H144.426V88.1456H144.459ZM78.3313 87.3315C78.0384 86.6477 77.6805 85.9639 77.2574 85.3452C73.157 79.1911 63.9473 77.5304 57.6013 81.9263C55.6813 83.2613 54.1192 85.1173 52.3619 86.7454C49.8886 82.1542 45.9835 79.5492 40.5487 79.5167C35.2442 79.4841 31.1112 81.8286 27.8569 86.0942V80.754H17.0526V123.475H28.28V121.424C28.28 114.097 28.28 106.771 28.28 99.4445C28.28 97.035 28.5729 94.6905 29.9071 92.6065C31.697 89.8713 34.9188 88.6666 38.1406 89.5783C40.9067 90.3272 42.4037 92.5089 42.5339 95.9604C42.5664 96.7093 42.5664 97.4583 42.5664 98.2398C42.5664 106.022 42.5664 113.837 42.5664 121.619V123.573H54.0216V121.619C54.0216 114.163 53.9565 106.738 54.0867 99.2817C54.1192 97.3606 54.4447 95.3092 55.1606 93.5183C56.4298 90.2621 59.7167 88.8294 63.3615 89.4806C66.2578 90.0016 68.0152 92.2484 68.308 95.7976C68.3731 96.4814 68.3406 97.1978 68.3406 97.8816C68.3406 105.794 68.3406 113.707 68.3406 121.619V123.54H79.6005C79.6331 123.215 79.6981 122.987 79.6981 122.759C79.6981 121.815 79.6981 120.838 79.6981 119.893C73.4824 110.385 73.3197 97.328 78.3313 87.3315Z" fill="#D2232A"/>
<path d="M286.477 80.7857H288.007H296.761V84.2047C296.761 91.5962 296.761 98.9877 296.761 106.379C296.761 106.933 296.761 107.486 296.761 108.04C296.858 112.11 298.388 114.422 301.414 115.073C305.385 115.92 308.932 114.259 310.299 110.645C310.917 108.984 311.21 107.096 311.242 105.305C311.34 98.3039 311.275 91.3031 311.275 84.3023V80.8833H321.754V123.246H311.666V118.525C311.242 118.948 311.08 119.078 310.95 119.209C306.068 124.809 299.104 126.177 292.758 122.66C288.885 120.511 286.737 116.832 286.607 112.533C286.282 102.537 286.477 91.0101 286.477 80.7857ZM272.679 93.8755C271.28 90.5542 268.676 88.8936 265.129 88.9587C261.484 89.0238 258.783 90.7822 257.546 94.3314C256.733 96.6433 256.179 98.9226 256.179 101.495C256.179 104.328 256.733 106.542 257.579 108.756C258.946 112.306 261.712 114.162 265.454 114.292C268.904 114.389 271.442 112.794 272.711 109.538C274.827 104.393 274.827 99.0529 272.679 93.8755ZM281.4 115.822C278.862 120.511 274.078 123.181 269.197 123.539C264.315 119.339 257.937 116.799 250.973 116.799C249.899 116.799 248.825 116.864 247.783 116.994C249.606 112.403 250.647 107.356 250.647 102.049C250.647 95.3082 249.02 88.9912 246.124 83.4557V78.083C250.419 76.6829 253.999 73.9477 256.472 70.3984V85.9304C256.765 85.8979 256.928 85.9304 256.961 85.8653C261.94 77.6597 275.608 78.0179 281.238 87.9167C286.445 97.034 286.38 106.64 281.4 115.822ZM322.925 108.984C325.919 108.984 328.816 108.952 331.712 109.017C332.07 109.017 332.656 109.538 332.753 109.929C333.73 113.771 336.333 115.529 339.946 115.659C341.833 115.725 343.786 115.464 345.641 114.943C347.365 114.487 348.439 113.087 348.472 111.133C348.472 109.18 347.333 107.975 345.673 107.519C342.614 106.672 339.49 106.119 336.463 105.24C334.088 104.588 331.68 103.905 329.499 102.797C321.949 99.0854 323.283 88.4703 327.221 84.6931C330.996 81.0787 335.585 80.1344 340.466 80.1344C344.371 80.1344 348.146 80.8508 351.466 83.1952C354.948 85.6374 356.64 89.1215 357.161 93.5173C354.004 93.5173 350.913 93.5173 347.854 93.5173C345.933 88.1121 341.247 86.1258 336.008 88.4051C334.283 89.1541 333.209 90.5868 333.274 92.1823C333.339 94.0383 334.576 94.9826 336.073 95.4059C339.197 96.22 342.354 96.8712 345.478 97.5876C348.667 98.3365 351.759 99.3133 354.492 101.397C359.113 104.947 359.309 114.162 355.111 118.46C352.279 121.325 348.83 122.693 345.055 123.181C340.434 123.767 335.845 123.377 331.484 121.488C326.408 119.437 322.958 114.455 322.925 108.984Z" fill="#939395"/>
<path d="M397.059 102.276C396.994 101.69 396.961 101.104 396.864 100.518C396.701 99.4758 396.343 98.4664 395.692 97.6198C394.293 95.6986 391.592 95.5033 389.867 96.415C388.532 97.0988 387.816 98.271 387.426 99.6386C386.905 101.527 386.873 103.448 387.556 105.304C387.979 106.574 388.728 107.584 389.997 108.137C390.941 108.561 391.949 108.626 392.991 108.43C394.618 108.137 395.692 107.193 396.375 105.76C396.864 104.653 397.026 103.481 397.059 102.276ZM396.831 106.965C396.766 107.03 396.733 107.095 396.668 107.16C395.757 108.593 394.488 109.44 392.796 109.635C391.201 109.798 389.704 109.57 388.37 108.626C387.231 107.844 386.547 106.737 386.124 105.435C385.669 103.969 385.538 102.471 385.734 100.941C385.896 99.6386 386.254 98.4013 387.003 97.3267C388.305 95.4381 390.16 94.5915 392.438 94.6892C394.325 94.7869 395.725 95.6661 396.668 97.2616C396.701 97.3267 396.766 97.3918 396.896 97.457C396.896 97.3593 396.929 97.2616 396.929 97.1639C396.929 96.5127 396.929 95.894 396.929 95.2428C396.929 95.0148 396.994 94.9497 397.221 94.9497C397.514 94.9497 397.807 94.9497 398.1 94.9497C398.295 94.9497 398.361 95.0148 398.361 95.2102C398.361 95.2428 398.361 95.2753 398.361 95.3404C398.361 99.9642 398.361 104.621 398.361 109.244C398.361 110.319 398.165 111.361 397.677 112.338C397.124 113.412 396.31 114.161 395.236 114.617C393.674 115.301 392.015 115.333 390.355 115.04C389.313 114.845 388.37 114.454 387.556 113.738C386.97 113.184 386.58 112.533 386.45 111.752C386.417 111.589 386.45 111.524 386.612 111.524C386.938 111.524 387.296 111.491 387.621 111.524C387.719 111.524 387.849 111.654 387.882 111.752C388.272 112.924 389.118 113.51 390.225 113.803C391.559 114.161 392.926 114.129 394.228 113.673C395.594 113.217 396.506 112.24 396.733 110.807C396.896 109.863 396.864 108.886 396.896 107.909C396.896 107.616 396.896 107.323 396.896 106.998C396.896 106.998 396.864 106.998 396.831 106.965Z" fill="#A7A9AC"/>
<path d="M380.136 101.853C380.071 101.853 380.039 101.853 379.974 101.885C379.062 102.276 378.054 102.406 377.077 102.569C376.036 102.732 374.995 102.862 373.953 103.058C373.172 103.188 372.489 103.513 371.968 104.197C371.545 104.751 371.447 105.402 371.415 106.053C371.382 107.519 372.163 108.626 373.53 108.919C375.385 109.309 377.142 109.016 378.639 107.779C379.485 107.095 380.006 106.184 380.104 105.076C380.169 104.1 380.136 103.09 380.169 102.113C380.169 102.016 380.136 101.951 380.136 101.853ZM380.104 107.584C380.039 107.649 379.974 107.681 379.941 107.747C378.574 109.57 376.719 110.254 374.506 110.189C373.498 110.156 372.554 109.928 371.675 109.375C370.796 108.788 370.276 107.974 370.08 106.965C369.918 105.988 369.95 104.979 370.373 104.034C370.699 103.351 371.219 102.862 371.87 102.504C372.912 101.918 374.083 101.723 375.255 101.56C376.426 101.397 377.598 101.267 378.77 101.071C379.062 101.039 379.355 100.909 379.583 100.746C379.778 100.615 380.006 100.355 380.039 100.127C380.201 99.2479 380.169 98.3361 379.811 97.4895C379.453 96.6755 378.77 96.2522 377.956 96.0568C376.589 95.7312 375.255 95.7963 373.953 96.3173C372.944 96.708 372.293 97.457 372.066 98.5315C371.903 99.2153 371.935 99.2153 371.219 99.2153C371.057 99.2153 370.894 99.2153 370.731 99.2153C370.536 99.2153 370.504 99.1502 370.536 98.9874C370.829 97.0988 371.773 95.7638 373.628 95.1451C375.092 94.6567 376.557 94.5915 378.086 94.8846C378.672 94.9823 379.225 95.1776 379.746 95.5033C380.657 96.0568 381.21 96.8709 381.438 97.9128C381.536 98.4338 381.568 98.9548 381.601 99.4758C381.601 102.178 381.601 104.881 381.601 107.616C381.601 107.747 381.601 107.877 381.601 108.007C381.633 108.723 382.056 109.049 382.772 108.951C383.326 108.854 383.326 108.854 383.326 109.44C383.326 109.928 383.326 109.896 382.87 110.026C382.382 110.156 381.861 110.124 381.406 109.961C380.722 109.733 380.364 109.179 380.266 108.463C380.234 108.202 380.234 107.909 380.234 107.649C380.169 107.616 380.136 107.616 380.104 107.584Z" fill="#A7A9AC"/>
<path d="M441.643 101.852C441.578 101.852 441.545 101.852 441.513 101.885C440.601 102.276 439.593 102.438 438.616 102.569C437.575 102.731 436.501 102.862 435.46 103.057C434.614 103.22 433.898 103.578 433.41 104.327C433.052 104.848 432.986 105.434 432.954 106.053C432.921 107.16 433.312 108.104 434.353 108.625C434.939 108.918 435.59 109.048 436.241 109.048C438.031 109.048 439.593 108.56 440.732 107.127C441.22 106.509 441.578 105.825 441.61 105.011C441.643 104.034 441.643 103.057 441.675 102.048C441.675 101.982 441.643 101.95 441.643 101.852ZM441.675 107.518C441.545 107.616 441.513 107.681 441.448 107.746C440.081 109.537 438.226 110.253 436.045 110.188C435.069 110.155 434.125 109.96 433.247 109.439C432.498 108.983 431.978 108.332 431.717 107.453C431.359 106.118 431.359 104.815 432.14 103.643C432.694 102.797 433.54 102.341 434.451 102.048C435.915 101.559 437.412 101.527 438.909 101.331C439.625 101.234 440.309 101.168 440.959 100.843C441.35 100.647 441.578 100.322 441.61 99.8985C441.675 99.1821 441.675 98.4332 441.415 97.7494C441.09 96.8377 440.406 96.2841 439.495 96.0888C438.128 95.7632 436.761 95.7957 435.427 96.3493C434.418 96.74 433.8 97.5215 433.54 98.596C433.409 99.2473 433.41 99.2473 432.759 99.2473C432.563 99.2473 432.401 99.2473 432.205 99.2473C432.043 99.2473 431.978 99.1821 432.01 99.0193C432.205 97.8797 432.596 96.8703 433.475 96.0888C434.158 95.4701 434.972 95.1445 435.85 94.9491C436.859 94.7212 437.9 94.6886 438.942 94.7863C440.146 94.9165 441.285 95.2747 442.098 96.2841C442.619 96.9028 442.847 97.6192 442.945 98.3681C443.01 98.7588 443.01 99.1496 443.01 99.5403C443.01 102.276 443.01 104.978 443.01 107.713C443.01 107.876 443.01 108.039 443.042 108.202C443.14 108.755 443.465 109.016 444.019 109.016C444.116 109.016 444.181 108.983 444.279 108.983C444.767 108.886 444.767 108.886 444.767 109.407C444.767 109.96 444.767 109.96 444.214 110.09C443.726 110.188 443.27 110.188 442.814 110.025C442.131 109.765 441.773 109.244 441.708 108.527C441.708 108.169 441.708 107.876 441.675 107.518Z" fill="#A7A9AC"/>
<path d="M418.537 97.4899C418.635 97.3922 418.7 97.3271 418.733 97.262C419.514 96.0898 420.588 95.2757 421.954 94.9501C423.386 94.5919 424.818 94.5919 426.153 95.3083C427.194 95.8618 427.845 96.7736 428.105 97.9132C428.203 98.4017 428.268 98.9227 428.268 99.4111C428.268 102.765 428.268 106.119 428.268 109.505C428.268 109.798 428.17 109.863 427.91 109.863C427.65 109.831 427.389 109.863 427.129 109.863C426.934 109.863 426.836 109.798 426.868 109.603C426.868 109.538 426.868 109.473 426.868 109.408C426.868 106.249 426.868 103.058 426.868 99.8995C426.868 99.2808 426.803 98.6622 426.673 98.0435C426.445 97.0341 425.762 96.3503 424.753 96.1223C423.061 95.699 421.499 96.0247 420.132 97.0992C419.156 97.8481 418.57 98.8575 418.537 100.127C418.505 101.039 418.537 101.918 418.537 102.83C418.537 105.077 418.537 107.324 418.537 109.538C418.537 109.798 418.472 109.896 418.212 109.863C417.919 109.831 417.626 109.863 417.366 109.863C417.203 109.863 417.106 109.831 417.138 109.635C417.138 109.57 417.138 109.505 417.138 109.473V95.406C417.138 95.0152 417.138 95.0152 417.529 95.0152C417.756 95.0152 418.017 95.0152 418.245 95.0152C418.472 95.0152 418.537 95.0804 418.537 95.3083C418.537 95.927 418.537 96.5456 418.537 97.1318C418.505 97.2294 418.505 97.2946 418.537 97.4899Z" fill="#A7A9AC"/>
<path d="M412.029 107.649C411.964 107.714 411.899 107.812 411.833 107.877C410.402 109.928 408.156 110.547 405.846 109.994C404.902 109.766 404.121 109.31 403.502 108.561C403.014 107.975 402.721 107.291 402.624 106.575C402.559 106.086 402.526 105.565 402.526 105.044C402.526 101.821 402.526 98.5643 402.526 95.3407C402.526 95.0477 402.624 94.95 402.884 94.9825C403.144 95.0151 403.405 94.9825 403.665 94.9825C403.893 94.9825 403.958 95.0477 403.958 95.2756C403.958 96.2525 403.958 97.1967 403.958 98.1736C403.958 100.518 403.958 102.895 403.958 105.24C403.958 105.891 403.991 106.542 404.283 107.161C404.707 108.138 405.488 108.691 406.496 108.886C408.091 109.18 409.555 108.886 410.76 107.747C411.541 107.03 411.964 106.119 412.094 105.077C412.126 104.751 412.159 104.393 412.159 104.067C412.159 101.169 412.159 98.2713 412.159 95.4058C412.159 95.0151 412.159 95.0151 412.549 95.0151C412.81 95.0151 413.07 95.0151 413.33 95.0151C413.493 95.0151 413.591 95.0477 413.558 95.243C413.558 95.2756 413.558 95.3407 413.558 95.3733V109.473C413.558 109.863 413.558 109.863 413.168 109.863C412.907 109.863 412.647 109.863 412.387 109.863C412.191 109.863 412.126 109.798 412.126 109.603C412.126 109.049 412.126 108.496 412.126 107.942C412.126 107.844 412.126 107.779 412.094 107.682C412.061 107.649 412.029 107.649 412.029 107.649Z" fill="#A7A9AC"/>
<path d="M364.744 99.5738C364.744 96.3176 364.744 93.0289 364.744 89.7727C364.744 89.2842 364.743 89.2842 365.199 89.2842C365.394 89.2842 365.622 89.2842 365.817 89.2842C366.078 89.2517 366.143 89.3819 366.143 89.6099C366.143 89.6424 366.143 89.675 366.143 89.7401C366.143 96.3176 366.143 102.863 366.143 109.44C366.143 109.863 366.143 109.831 365.72 109.831C365.459 109.831 365.232 109.831 364.971 109.831C364.776 109.831 364.711 109.766 364.711 109.57C364.711 109.505 364.711 109.44 364.711 109.375C364.743 106.119 364.744 102.863 364.744 99.5738Z" fill="#A7A9AC"/>
<path d="M228.453 102.179C228.453 113.152 219.536 122.074 208.569 122.074C197.602 122.074 188.685 113.184 188.685 102.179C188.685 91.1726 197.602 82.2833 208.569 82.2833C219.568 82.2833 228.453 91.2052 228.453 102.179ZM243.813 102.179C243.813 82.7066 228.03 66.9141 208.569 66.9141C189.108 66.9141 173.325 82.7066 173.325 102.179C173.325 121.651 189.108 137.443 208.569 137.443C228.03 137.443 243.813 121.651 243.813 102.179Z" fill="#C0CD48"/>
<mask id="mask0" mask-type="alpha" maskUnits="userSpaceOnUse" x="138" y="32" width="141" height="140">
<path d="M138.894 109.507L201.247 32.4336L278.276 94.8546L215.924 171.929L138.894 109.507Z" fill="url(#paint0_linear)"/>
</mask>
<g mask="url(#mask0)">
<path d="M189.499 107.326C191.126 120.741 209.285 137.283 227.477 129.761C245.636 122.239 247.1 102.246 247.1 102.246L222.563 99.2832L189.499 107.326Z" fill="#95A93D"/>
</g>
<mask id="mask1" mask-type="alpha" maskUnits="userSpaceOnUse" x="138" y="32" width="141" height="140">
<path d="M278.276 94.8546L215.924 171.929L138.894 109.507L201.247 32.4336L278.276 94.8546Z" fill="url(#paint1_linear)"/>
</mask>
<g mask="url(#mask1)">
<path d="M228.225 99.5762C226.533 85.6072 207.658 68.4145 188.75 76.2619C169.875 84.0768 168.346 104.851 168.346 104.851L193.859 107.912L228.225 99.5762Z" fill="#95A93D"/>
</g>
<path d="M263.502 144.771C263.502 151.381 258.132 156.753 251.526 156.753C244.92 156.753 239.517 151.381 239.517 144.771C239.517 138.161 244.887 132.788 251.493 132.788C258.1 132.788 263.502 138.128 263.502 144.771ZM272.744 144.771C272.744 133.016 263.241 123.508 251.493 123.508C239.745 123.508 230.243 133.016 230.243 144.771C230.243 156.526 239.745 166.034 251.493 166.034C263.241 166.034 272.744 156.493 272.744 144.771Z" fill="#C0CD48"/>
<mask id="mask2" mask-type="alpha" maskUnits="userSpaceOnUse" x="209" y="102" width="85" height="85">
<path d="M209.48 149.198L247.1 102.732L293.539 140.341L255.919 186.807L209.48 149.198Z" fill="url(#paint2_linear)"/>
</mask>
<g mask="url(#mask2)">
<path d="M239.876 147.44C240.852 155.548 251.819 165.511 262.753 160.953C273.688 156.427 274.599 144.379 274.599 144.379L259.792 142.588L239.876 147.44Z" fill="#95A93D"/>
</g>
<mask id="mask3" mask-type="alpha" maskUnits="userSpaceOnUse" x="209" y="102" width="85" height="85">
<path d="M293.539 140.341L255.919 186.807L209.48 149.198L247.1 102.732L293.539 140.341Z" fill="url(#paint3_linear)"/>
</mask>
<g mask="url(#mask3)">
<path d="M263.339 143.499C262.298 135.098 250.94 124.711 239.55 129.432C228.16 134.154 227.249 146.658 227.249 146.658L242.642 148.514L263.339 143.499Z" fill="#95A93D"/>
</g>
<path d="M249.118 58.0575C249.118 62.3231 245.668 65.7746 241.405 65.7746C237.142 65.7746 233.692 62.3231 233.692 58.0575C233.692 53.7919 237.142 50.3403 241.405 50.3403C245.668 50.3403 249.118 53.8244 249.118 58.0575ZM255.073 58.0575C255.073 50.5031 248.955 44.4141 241.437 44.4141C233.92 44.4141 227.802 50.5357 227.802 58.0575C227.802 65.6118 233.92 71.7009 241.437 71.7009C248.955 71.7009 255.073 65.6118 255.073 58.0575Z" fill="#C0CD48"/>
<mask id="mask4" mask-type="alpha" maskUnits="userSpaceOnUse" x="214" y="31" width="55" height="55">
<path d="M214.427 60.8911L238.574 31.0645L268.416 55.2253L244.269 85.0846L214.427 60.8911Z" fill="url(#paint4_linear)"/>
</mask>
<g mask="url(#mask4)">
<path d="M233.822 60.2399C234.441 65.4498 241.503 71.8319 248.532 68.9339C255.561 66.0033 256.147 58.2861 256.147 58.2861L246.644 57.1465L233.822 60.2399Z" fill="#95A93D"/>
</g>
<mask id="mask5" mask-type="alpha" maskUnits="userSpaceOnUse" x="214" y="31" width="55" height="55">
<path d="M268.416 55.2253L244.269 85.0846L214.427 60.8911L238.574 31.0645L268.416 55.2253Z" fill="url(#paint5_linear)"/>
</mask>
<g mask="url(#mask5)">
<path d="M249.248 57.4395C248.597 52.0342 241.275 45.3591 233.953 48.4199C226.63 51.4481 226.045 59.4909 226.045 59.4909L235.938 60.6631L249.248 57.4395Z" fill="#95A93D"/>
</g>
<path d="M227.476 44.186C227.476 46.042 225.979 47.5399 224.125 47.5399C222.27 47.5399 220.773 46.042 220.773 44.186C220.773 42.33 222.27 40.8321 224.125 40.8321C225.979 40.8647 227.476 42.33 227.476 44.186ZM230.047 44.186C230.047 40.9298 227.411 38.2598 224.125 38.2598C220.87 38.2598 218.202 40.8973 218.202 44.186C218.202 47.4422 220.838 50.1123 224.125 50.1123C227.411 50.1123 230.047 47.4422 230.047 44.186Z" fill="#C0CD48"/>
<mask id="mask6" mask-type="alpha" maskUnits="userSpaceOnUse" x="212" y="32" width="24" height="24">
<path d="M212.441 45.4231L222.92 32.4961L235.84 42.9484L225.361 55.8755L212.441 45.4231Z" fill="url(#paint6_linear)"/>
</mask>
<g mask="url(#mask6)">
<path d="M220.87 44.8682C221.131 47.115 224.19 49.8828 227.249 48.6454C230.308 47.3755 230.535 44.0216 230.535 44.0216L226.403 43.5332L220.87 44.8682Z" fill="#95A93D"/>
</g>
<mask id="mask7" mask-type="alpha" maskUnits="userSpaceOnUse" x="212" y="32" width="24" height="24">
<path d="M235.84 42.9484L225.361 55.8755L212.441 45.4231L222.92 32.4961L235.84 42.9484Z" fill="url(#paint7_linear)"/>
</mask>
<g mask="url(#mask7)">
<path d="M227.411 43.5009C227.118 41.1565 223.962 38.2585 220.805 39.5935C217.648 40.896 217.388 44.3801 217.388 44.3801L221.684 44.9011L227.411 43.5009Z" fill="#95A93D"/>
</g>
<g opacity="0.71">
<g opacity="0.71">
<path opacity="0.71" d="M440.016 150.73V141.938H440.439C441.806 141.938 442.88 143.273 442.88 146.171V146.464C442.88 149.362 441.871 150.697 440.471 150.697H440.016V150.73ZM439.039 151.609H440.406C442.456 151.609 443.888 149.85 443.888 146.496V146.203C443.888 142.817 442.489 141.091 440.406 141.091H439.039V151.609ZM434.256 147.994L435.329 142.687L436.403 147.994H434.256ZM432.596 151.609H433.572L434.125 148.873H436.566L437.119 151.609H438.128L435.883 140.994H434.841L432.596 151.609ZM428.463 150.73V141.938H428.886C430.253 141.938 431.327 143.273 431.327 146.171V146.464C431.327 149.362 430.318 150.697 428.918 150.697H428.463V150.73ZM427.487 151.609H428.853C430.936 151.609 432.336 149.85 432.336 146.496V146.203C432.336 142.817 430.936 141.091 428.853 141.091H427.487V151.609ZM425.013 151.609H425.99V141.059H425.013V151.609ZM420.75 151.609H424.2V150.697H421.726V141.059H420.75V151.609ZM418.309 151.609H419.286V141.059H418.309V151.609ZM414.176 151.674H415.185L417.301 141.059H416.324L414.697 149.753L413.07 141.059H412.061L414.176 151.674ZM409.197 150.86C408.286 150.86 407.603 149.492 407.603 146.529V146.203C407.603 143.24 408.286 141.873 409.197 141.873C410.109 141.873 410.792 143.24 410.792 146.203V146.529C410.792 149.492 410.109 150.86 409.197 150.86ZM409.197 151.771C410.694 151.771 411.768 150.013 411.768 146.529V146.203C411.768 142.719 410.694 140.961 409.197 140.961C407.7 140.961 406.594 142.719 406.594 146.203V146.529C406.594 150.013 407.7 151.771 409.197 151.771ZM399.792 151.609H400.736V143.273L402.624 148.808H402.689L404.576 143.273V151.641H405.52V141.091H404.446L402.656 146.431L400.899 141.091H399.825V151.609H399.792ZM392.731 151.609H396.473V150.697H393.707V146.757H396.18V145.845H393.707V141.97H396.44V141.059H392.731V151.609ZM387.751 150.73V141.938H388.175C389.541 141.938 390.615 143.273 390.615 146.171V146.464C390.615 149.362 389.606 150.697 388.207 150.697H387.751V150.73ZM386.775 151.609H388.142C390.225 151.609 391.624 149.85 391.624 146.496V146.203C391.624 142.817 390.225 141.091 388.142 141.091H386.775V151.609ZM380.755 150.86C379.843 150.86 379.16 149.492 379.16 146.529V146.203C379.16 143.24 379.843 141.873 380.755 141.873C381.666 141.873 382.349 143.24 382.349 146.203V146.529C382.349 149.492 381.633 150.86 380.755 150.86ZM380.755 151.771C382.252 151.771 383.326 150.013 383.326 146.529V146.203C383.326 142.719 382.252 140.961 380.755 140.961C379.258 140.961 378.151 142.719 378.151 146.203V146.529C378.151 150.013 379.258 151.771 380.755 151.771ZM372.228 151.609H373.172V143.468L376.166 151.609H377.077V141.059H376.134V148.971L373.237 141.059H372.261V151.609H372.228ZM367.445 147.994L368.518 142.687L369.592 147.994H367.445ZM365.785 151.609H366.761L367.314 148.873H369.755L370.308 151.609H371.317L369.072 140.994H368.03L365.785 151.609ZM363.442 151.609H364.418V141.97H366.045V141.059H361.847V141.97H363.442V151.609ZM359.96 151.609H360.936V141.059H359.96V151.609ZM355.696 151.609H359.146V150.697H356.673V141.059H355.696V151.609ZM351.987 150.86C351.075 150.86 350.392 149.492 350.392 146.529V146.203C350.392 143.24 351.075 141.873 351.987 141.873C352.898 141.873 353.581 143.24 353.581 146.203V146.529C353.581 149.492 352.898 150.86 351.987 150.86ZM351.987 151.771C353.484 151.771 354.557 150.013 354.557 146.529V146.203C354.557 142.719 353.484 140.961 351.987 140.961C350.49 140.961 349.383 142.719 349.383 146.203V146.529C349.383 150.013 350.49 151.771 351.987 151.771ZM345.218 146.985V141.97H345.673C346.942 141.97 347.756 142.817 347.756 144.445V144.478C347.756 146.073 346.975 146.952 345.673 146.985H345.218ZM344.241 151.609H345.218V147.864H345.641C347.593 147.831 348.765 146.562 348.765 144.445V144.412C348.765 142.263 347.561 141.059 345.641 141.059H344.241V151.609ZM340.531 150.86C339.62 150.86 338.937 149.492 338.937 146.529V146.203C338.937 143.24 339.62 141.873 340.531 141.873C341.443 141.873 342.126 143.24 342.126 146.203V146.529C342.126 149.492 341.443 150.86 340.531 150.86ZM340.531 151.771C342.028 151.771 343.102 150.013 343.102 146.529V146.203C343.102 142.719 342.028 140.961 340.531 140.961C339.034 140.961 337.928 142.719 337.928 146.203V146.529C337.928 150.013 339.034 151.771 340.531 151.771ZM333.502 146.659V141.97H333.958C335.227 141.97 336.106 142.654 336.106 144.25V144.282C336.106 145.813 335.292 146.627 334.023 146.627H333.502V146.659ZM332.526 151.609H333.502V147.506H334.023C334.185 147.506 334.316 147.506 334.446 147.473L336.171 151.609H337.277L335.422 147.18C336.431 146.724 337.082 145.715 337.082 144.282V144.25C337.082 142.166 335.845 141.059 333.99 141.059H332.526V151.609ZM329.109 151.609H330.085V141.97H331.712V141.059H327.514V141.97H329.109V151.609ZM323.316 151.609H327.058V150.697H324.292V146.757H326.766V145.845H324.292V141.97H327.026V141.059H323.316V151.609ZM316.254 151.609H317.198V143.273L319.085 148.808H319.151L321.038 143.273V151.641H321.982V141.091H320.875L319.085 146.431L317.328 141.091H316.254V151.609ZM309.16 147.994L310.234 142.687L311.308 147.994H309.16ZM307.5 151.609H308.476L309.03 148.873H311.47L312.024 151.609H313.032L310.787 140.994H309.746L307.5 151.609ZM300.861 151.609H301.805V143.273L303.693 148.808H303.758L305.645 143.273V151.641H306.589V141.091H305.515L303.725 146.431L301.968 141.091H300.894V151.609H300.861ZM296.11 151.609H299.852V150.697H297.086V146.757H299.56V145.845H297.086V141.97H299.82V141.059H296.11V151.609ZM292.693 151.609H293.669V141.97H295.296V141.059H291.098V141.97H292.693V151.609ZM288.56 151.771C289.829 151.771 290.838 150.827 290.838 149.427V149.394C290.838 148.222 290.415 147.441 289.081 145.813C288.007 144.445 287.714 143.957 287.714 143.24V143.208C287.714 142.426 288.267 141.905 288.983 141.905C289.471 141.905 289.959 142.101 290.545 142.459V141.384C290.057 141.091 289.569 140.961 288.918 140.961C287.681 140.961 286.705 141.905 286.705 143.273V143.305C286.705 144.347 287.096 144.966 288.462 146.757C289.536 148.19 289.829 148.678 289.829 149.46V149.492C289.829 150.339 289.276 150.86 288.495 150.86C288.007 150.86 287.421 150.664 286.705 150.209V151.283C287.356 151.576 287.942 151.771 288.56 151.771ZM284.59 151.609H285.566V141.059H284.59V151.609ZM281.205 151.771C282.474 151.771 283.483 150.827 283.483 149.427V149.394C283.483 148.222 283.06 147.441 281.726 145.813C280.652 144.445 280.359 143.957 280.359 143.24V143.208C280.359 142.426 280.912 141.905 281.628 141.905C282.116 141.905 282.605 142.101 283.19 142.459V141.384C282.702 141.091 282.214 140.961 281.563 140.961C280.327 140.961 279.35 141.905 279.35 143.273V143.305C279.35 144.347 279.741 144.966 281.108 146.757C282.182 148.19 282.474 148.678 282.474 149.46V149.492C282.474 150.339 281.921 150.86 281.14 150.86C280.652 150.86 280.066 150.664 279.35 150.209V151.283C279.969 151.576 280.554 151.771 281.205 151.771Z" fill="#939598"/>
</g>
</g>
<defs>
<linearGradient id="paint0_linear" x1="186.628" y1="129.32" x2="225.275" y2="81.6223" gradientUnits="userSpaceOnUse">
<stop stop-color="white"/>
<stop offset="0.8649"/>
<stop offset="0.9809"/>
<stop offset="1"/>
</linearGradient>
<linearGradient id="paint1_linear" x1="230.001" y1="75.7385" x2="189.825" y2="125.323" gradientUnits="userSpaceOnUse">
<stop stop-color="white"/>
<stop offset="0.8649"/>
<stop offset="0.9809"/>
<stop offset="1"/>
</linearGradient>
<linearGradient id="paint2_linear" x1="238.452" y1="160.911" x2="261.753" y2="132.154" gradientUnits="userSpaceOnUse">
<stop stop-color="white"/>
<stop offset="0.8649"/>
<stop offset="0.9809"/>
<stop offset="1"/>
</linearGradient>
<linearGradient id="paint3_linear" x1="264.277" y1="128.983" x2="240.054" y2="158.878" gradientUnits="userSpaceOnUse">
<stop stop-color="white"/>
<stop offset="0.8649"/>
<stop offset="0.9809"/>
<stop offset="1"/>
</linearGradient>
<linearGradient id="paint4_linear" x1="232.716" y1="68.7981" x2="247.685" y2="50.3234" gradientUnits="userSpaceOnUse">
<stop stop-color="white"/>
<stop offset="0.8649"/>
<stop offset="0.9809"/>
<stop offset="1"/>
</linearGradient>
<linearGradient id="paint5_linear" x1="249.615" y1="47.9506" x2="234.054" y2="67.1563" gradientUnits="userSpaceOnUse">
<stop stop-color="white"/>
<stop offset="0.8649"/>
<stop offset="0.9809"/>
<stop offset="1"/>
</linearGradient>
<linearGradient id="paint6_linear" x1="220.511" y1="48.6623" x2="226.997" y2="40.6585" gradientUnits="userSpaceOnUse">
<stop stop-color="white"/>
<stop offset="0.8649"/>
<stop offset="0.9809"/>
<stop offset="1"/>
</linearGradient>
<linearGradient id="paint7_linear" x1="227.818" y1="39.6192" x2="221.077" y2="47.9397" gradientUnits="userSpaceOnUse">
<stop stop-color="white"/>
<stop offset="0.8649"/>
<stop offset="0.9809"/>
<stop offset="1"/>
</linearGradient>
</defs>
</svg>
