<svg width="235" height="62" viewBox="0 0 235 62" fill="none" xmlns="http://www.w3.org/2000/svg">
<path d="M81.66 15H84.9V26.36H91.92V29H81.66V15ZM97.9675 18.08C99.6342 18.08 100.914 18.48 101.808 19.28C102.701 20.0667 103.148 21.26 103.148 22.86V29H100.228V27.66C99.6408 28.66 98.5475 29.16 96.9475 29.16C96.1208 29.16 95.4008 29.02 94.7875 28.74C94.1875 28.46 93.7275 28.0733 93.4075 27.58C93.0875 27.0867 92.9275 26.5267 92.9275 25.9C92.9275 24.9 93.3008 24.1133 94.0475 23.54C94.8075 22.9667 95.9742 22.68 97.5475 22.68H100.028C100.028 22 99.8208 21.48 99.4075 21.12C98.9942 20.7467 98.3742 20.56 97.5475 20.56C96.9742 20.56 96.4075 20.6533 95.8475 20.84C95.3008 21.0133 94.8342 21.2533 94.4475 21.56L93.3275 19.38C93.9142 18.9667 94.6142 18.6467 95.4275 18.42C96.2542 18.1933 97.1008 18.08 97.9675 18.08ZM97.7275 27.06C98.2608 27.06 98.7342 26.94 99.1475 26.7C99.5608 26.4467 99.8542 26.08 100.028 25.6V24.5H97.8875C96.6075 24.5 95.9675 24.92 95.9675 25.76C95.9675 26.16 96.1208 26.48 96.4275 26.72C96.7475 26.9467 97.1808 27.06 97.7275 27.06ZM117.188 18.24V27.2C117.188 29.1733 116.675 30.64 115.648 31.6C114.622 32.56 113.122 33.04 111.148 33.04C110.108 33.04 109.122 32.9133 108.188 32.66C107.255 32.4067 106.482 32.04 105.868 31.56L107.108 29.32C107.562 29.6933 108.135 29.9867 108.828 30.2C109.522 30.4267 110.215 30.54 110.908 30.54C111.988 30.54 112.782 30.2933 113.288 29.8C113.808 29.32 114.068 28.5867 114.068 27.6V27.14C113.255 28.0333 112.122 28.48 110.668 28.48C109.682 28.48 108.775 28.2667 107.948 27.84C107.135 27.4 106.488 26.7867 106.008 26C105.528 25.2133 105.288 24.3067 105.288 23.28C105.288 22.2533 105.528 21.3467 106.008 20.56C106.488 19.7733 107.135 19.1667 107.948 18.74C108.775 18.3 109.682 18.08 110.668 18.08C112.228 18.08 113.415 18.5933 114.228 19.62V18.24H117.188ZM111.288 25.92C112.115 25.92 112.788 25.68 113.308 25.2C113.842 24.7067 114.108 24.0667 114.108 23.28C114.108 22.4933 113.842 21.86 113.308 21.38C112.788 20.8867 112.115 20.64 111.288 20.64C110.462 20.64 109.782 20.8867 109.248 21.38C108.715 21.86 108.448 22.4933 108.448 23.28C108.448 24.0667 108.715 24.7067 109.248 25.2C109.782 25.68 110.462 25.92 111.288 25.92ZM130.932 18.24V29H127.972V27.72C127.559 28.1867 127.066 28.5467 126.492 28.8C125.919 29.04 125.299 29.16 124.632 29.16C123.219 29.16 122.099 28.7533 121.272 27.94C120.446 27.1267 120.032 25.92 120.032 24.32V18.24H123.152V23.86C123.152 25.5933 123.879 26.46 125.332 26.46C126.079 26.46 126.679 26.22 127.132 25.74C127.586 25.2467 127.812 24.52 127.812 23.56V18.24H130.932ZM140.363 18.08C141.696 18.08 142.769 18.48 143.583 19.28C144.409 20.08 144.823 21.2667 144.823 22.84V29H141.703V23.32C141.703 22.4667 141.516 21.8333 141.143 21.42C140.769 20.9933 140.229 20.78 139.523 20.78C138.736 20.78 138.109 21.0267 137.643 21.52C137.176 22 136.943 22.72 136.943 23.68V29H133.823V18.24H136.803V19.5C137.216 19.0467 137.729 18.7 138.343 18.46C138.956 18.2067 139.629 18.08 140.363 18.08ZM151.991 18.08C153.658 18.08 154.938 18.48 155.831 19.28C156.724 20.0667 157.171 21.26 157.171 22.86V29H154.251V27.66C153.664 28.66 152.571 29.16 150.971 29.16C150.144 29.16 149.424 29.02 148.811 28.74C148.211 28.46 147.751 28.0733 147.431 27.58C147.111 27.0867 146.951 26.5267 146.951 25.9C146.951 24.9 147.324 24.1133 148.071 23.54C148.831 22.9667 149.998 22.68 151.571 22.68H154.051C154.051 22 153.844 21.48 153.431 21.12C153.018 20.7467 152.398 20.56 151.571 20.56C150.998 20.56 150.431 20.6533 149.871 20.84C149.324 21.0133 148.858 21.2533 148.471 21.56L147.351 19.38C147.938 18.9667 148.638 18.6467 149.451 18.42C150.278 18.1933 151.124 18.08 151.991 18.08ZM151.751 27.06C152.284 27.06 152.758 26.94 153.171 26.7C153.584 26.4467 153.878 26.08 154.051 25.6V24.5H151.911C150.631 24.5 149.991 24.92 149.991 25.76C149.991 26.16 150.144 26.48 150.451 26.72C150.771 26.9467 151.204 27.06 151.751 27.06ZM81.66 37H84.9V51H81.66V37ZM94.5425 40.08C95.8758 40.08 96.9492 40.48 97.7625 41.28C98.5892 42.08 99.0025 43.2667 99.0025 44.84V51H95.8825V45.32C95.8825 44.4667 95.6958 43.8333 95.3225 43.42C94.9492 42.9933 94.4092 42.78 93.7025 42.78C92.9158 42.78 92.2892 43.0267 91.8225 43.52C91.3558 44 91.1225 44.72 91.1225 45.68V51H88.0025V40.24H90.9825V41.5C91.3958 41.0467 91.9092 40.7 92.5225 40.46C93.1358 40.2067 93.8092 40.08 94.5425 40.08ZM112.908 36.16V51H109.928V49.76C109.154 50.6933 108.034 51.16 106.568 51.16C105.554 51.16 104.634 50.9333 103.808 50.48C102.994 50.0267 102.354 49.38 101.888 48.54C101.421 47.7 101.188 46.7267 101.188 45.62C101.188 44.5133 101.421 43.54 101.888 42.7C102.354 41.86 102.994 41.2133 103.808 40.76C104.634 40.3067 105.554 40.08 106.568 40.08C107.941 40.08 109.014 40.5133 109.788 41.38V36.16H112.908ZM107.108 48.6C107.894 48.6 108.548 48.3333 109.068 47.8C109.588 47.2533 109.848 46.5267 109.848 45.62C109.848 44.7133 109.588 43.9933 109.068 43.46C108.548 42.9133 107.894 42.64 107.108 42.64C106.308 42.64 105.648 42.9133 105.128 43.46C104.608 43.9933 104.348 44.7133 104.348 45.62C104.348 46.5267 104.608 47.2533 105.128 47.8C105.648 48.3333 106.308 48.6 107.108 48.6ZM126.635 40.24V51H123.675V49.72C123.262 50.1867 122.769 50.5467 122.195 50.8C121.622 51.04 121.002 51.16 120.335 51.16C118.922 51.16 117.802 50.7533 116.975 49.94C116.149 49.1267 115.735 47.92 115.735 46.32V40.24H118.855V45.86C118.855 47.5933 119.582 48.46 121.035 48.46C121.782 48.46 122.382 48.22 122.835 47.74C123.289 47.2467 123.515 46.52 123.515 45.56V40.24H126.635ZM133.146 51.16C132.253 51.16 131.379 51.0533 130.526 50.84C129.673 50.6133 128.993 50.3333 128.486 50L129.526 47.76C130.006 48.0667 130.586 48.32 131.266 48.52C131.946 48.7067 132.613 48.8 133.266 48.8C134.586 48.8 135.246 48.4733 135.246 47.82C135.246 47.5133 135.066 47.2933 134.706 47.16C134.346 47.0267 133.793 46.9133 133.046 46.82C132.166 46.6867 131.439 46.5333 130.866 46.36C130.293 46.1867 129.793 45.88 129.366 45.44C128.953 45 128.746 44.3733 128.746 43.56C128.746 42.88 128.939 42.28 129.326 41.76C129.726 41.2267 130.299 40.8133 131.046 40.52C131.806 40.2267 132.699 40.08 133.726 40.08C134.486 40.08 135.239 40.1667 135.986 40.34C136.746 40.5 137.373 40.7267 137.866 41.02L136.826 43.24C135.879 42.7067 134.846 42.44 133.726 42.44C133.059 42.44 132.559 42.5333 132.226 42.72C131.893 42.9067 131.726 43.1467 131.726 43.44C131.726 43.7733 131.906 44.0067 132.266 44.14C132.626 44.2733 133.199 44.4 133.986 44.52C134.866 44.6667 135.586 44.8267 136.146 45C136.706 45.16 137.193 45.46 137.606 45.9C138.019 46.34 138.226 46.9533 138.226 47.74C138.226 48.4067 138.026 49 137.626 49.52C137.226 50.04 136.639 50.4467 135.866 50.74C135.106 51.02 134.199 51.16 133.146 51.16ZM147.091 50.48C146.784 50.7067 146.404 50.88 145.951 51C145.511 51.1067 145.044 51.16 144.551 51.16C143.271 51.16 142.278 50.8333 141.571 50.18C140.878 49.5267 140.531 48.5667 140.531 47.3V42.88H138.871V40.48H140.531V37.86H143.651V40.48H146.331V42.88H143.651V47.26C143.651 47.7133 143.764 48.0667 143.991 48.32C144.231 48.56 144.564 48.68 144.991 48.68C145.484 48.68 145.904 48.5467 146.251 48.28L147.091 50.48ZM151.822 41.66C152.196 41.14 152.696 40.7467 153.322 40.48C153.962 40.2133 154.696 40.08 155.522 40.08V42.96C155.176 42.9333 154.942 42.92 154.822 42.92C153.929 42.92 153.229 43.1733 152.722 43.68C152.216 44.1733 151.962 44.92 151.962 45.92V51H148.842V40.24H151.822V41.66ZM157.378 40.24H160.498V51H157.378V40.24ZM158.938 38.74C158.364 38.74 157.898 38.5733 157.538 38.24C157.178 37.9067 156.998 37.4933 156.998 37C156.998 36.5067 157.178 36.0933 157.538 35.76C157.898 35.4267 158.364 35.26 158.938 35.26C159.511 35.26 159.978 35.42 160.338 35.74C160.698 36.06 160.878 36.46 160.878 36.94C160.878 37.46 160.698 37.8933 160.338 38.24C159.978 38.5733 159.511 38.74 158.938 38.74ZM167.733 40.08C169.4 40.08 170.68 40.48 171.573 41.28C172.466 42.0667 172.913 43.26 172.913 44.86V51H169.993V49.66C169.406 50.66 168.313 51.16 166.713 51.16C165.886 51.16 165.166 51.02 164.553 50.74C163.953 50.46 163.493 50.0733 163.173 49.58C162.853 49.0867 162.693 48.5267 162.693 47.9C162.693 46.9 163.066 46.1133 163.813 45.54C164.573 44.9667 165.74 44.68 167.313 44.68H169.793C169.793 44 169.586 43.48 169.173 43.12C168.76 42.7467 168.14 42.56 167.313 42.56C166.74 42.56 166.173 42.6533 165.613 42.84C165.066 43.0133 164.6 43.2533 164.213 43.56L163.093 41.38C163.68 40.9667 164.38 40.6467 165.193 40.42C166.02 40.1933 166.866 40.08 167.733 40.08ZM167.493 49.06C168.026 49.06 168.5 48.94 168.913 48.7C169.326 48.4467 169.62 48.08 169.793 47.6V46.5H167.653C166.373 46.5 165.733 46.92 165.733 47.76C165.733 48.16 165.886 48.48 166.193 48.72C166.513 48.9467 166.946 49.06 167.493 49.06ZM175.737 36.16H178.857V51H175.737V36.16ZM193.697 37C194.937 37 196.01 37.2067 196.917 37.62C197.837 38.0333 198.543 38.62 199.037 39.38C199.53 40.14 199.777 41.04 199.777 42.08C199.777 43.1067 199.53 44.0067 199.037 44.78C198.543 45.54 197.837 46.1267 196.917 46.54C196.01 46.94 194.937 47.14 193.697 47.14H190.877V51H187.637V37H193.697ZM193.517 44.5C194.49 44.5 195.23 44.2933 195.737 43.88C196.243 43.4533 196.497 42.8533 196.497 42.08C196.497 41.2933 196.243 40.6933 195.737 40.28C195.23 39.8533 194.49 39.64 193.517 39.64H190.877V44.5H193.517ZM206.112 40.08C207.779 40.08 209.059 40.48 209.952 41.28C210.845 42.0667 211.292 43.26 211.292 44.86V51H208.372V49.66C207.785 50.66 206.692 51.16 205.092 51.16C204.265 51.16 203.545 51.02 202.932 50.74C202.332 50.46 201.872 50.0733 201.552 49.58C201.232 49.0867 201.072 48.5267 201.072 47.9C201.072 46.9 201.445 46.1133 202.192 45.54C202.952 44.9667 204.119 44.68 205.692 44.68H208.172C208.172 44 207.965 43.48 207.552 43.12C207.139 42.7467 206.519 42.56 205.692 42.56C205.119 42.56 204.552 42.6533 203.992 42.84C203.445 43.0133 202.979 43.2533 202.592 43.56L201.472 41.38C202.059 40.9667 202.759 40.6467 203.572 40.42C204.399 40.1933 205.245 40.08 206.112 40.08ZM205.872 49.06C206.405 49.06 206.879 48.94 207.292 48.7C207.705 48.4467 207.999 48.08 208.172 47.6V46.5H206.032C204.752 46.5 204.112 46.92 204.112 47.76C204.112 48.16 204.265 48.48 204.572 48.72C204.892 48.9467 205.325 49.06 205.872 49.06ZM217.096 41.66C217.469 41.14 217.969 40.7467 218.596 40.48C219.236 40.2133 219.969 40.08 220.796 40.08V42.96C220.449 42.9333 220.216 42.92 220.096 42.92C219.202 42.92 218.502 43.1733 217.996 43.68C217.489 44.1733 217.236 44.92 217.236 45.92V51H214.116V40.24H217.096V41.66ZM227.271 46.78L225.771 48.26V51H222.651V36.16H225.771V44.56L230.331 40.24H234.051L229.571 44.8L234.451 51H230.671L227.271 46.78Z" fill="#00394C"/>
<path d="M44.4505 41.2132L44.395 41.1611V37.2802L49.8219 38.4342L44.4505 41.2132ZM51.6325 37.4975L44.395 35.9585V31.0895L58.3027 34.0469L51.6325 37.4976V37.4975ZM60.1138 33.1103L44.395 29.7678V24.9951L67.0002 29.5471L60.1138 33.1103Z" fill="#139B47"/>
<path d="M22.605 61.819V36.0977L28.7806 37.2554V55.9913L22.605 61.819ZM30.5285 54.3419V37.5831L37.1702 38.8281V48.0742L30.5285 54.3419ZM38.918 46.4251V39.1559L43.0989 39.9394L44.4449 41.2091L38.918 46.4248V46.4251Z" fill="#00394C"/>
<path d="M44.3947 41.2121L38.9182 36.0461V5.16794L44.3947 0V41.2121ZM37.0538 34.2874L30.5286 28.132V13.0848L37.0538 6.92729V34.287V34.2874ZM28.7808 26.4828L22.5547 20.6095L28.7808 14.7342V26.4828Z" fill="#00394C"/>
<path d="M44.3948 41.2125L0 32.2725L6.21993 29.0547L38.8649 35.9966L44.3948 41.2125ZM37.056 34.2902L8.03045 28.1179L14.5536 24.7432L30.5388 28.1424L37.0557 34.2896L37.056 34.2902ZM28.7298 26.4362L16.3647 23.8068L22.5498 20.6064L28.7295 26.4357L28.7298 26.4362Z" fill="#139B47"/>
</svg>
