<svg width="137" height="138" viewBox="0 0 137 138" fill="none" xmlns="http://www.w3.org/2000/svg">
<path d="M38.3426 102.093H40.9346V111.181H46.5506V113.293H38.3426V102.093ZM51.3886 104.557C52.722 104.557 53.746 104.877 54.4606 105.517C55.1753 106.146 55.5326 107.101 55.5326 108.381V113.293H53.1966V112.221C52.7273 113.021 51.8526 113.421 50.5726 113.421C49.9113 113.421 49.3353 113.309 48.8446 113.085C48.3646 112.861 47.9966 112.552 47.7406 112.157C47.4846 111.762 47.3566 111.314 47.3566 110.813C47.3566 110.013 47.6553 109.384 48.2526 108.925C48.8606 108.466 49.794 108.237 51.0526 108.237H53.0366C53.0366 107.693 52.8713 107.277 52.5406 106.989C52.21 106.69 51.714 106.541 51.0526 106.541C50.594 106.541 50.1406 106.616 49.6926 106.765C49.2553 106.904 48.882 107.096 48.5726 107.341L47.6766 105.597C48.146 105.266 48.706 105.01 49.3566 104.829C50.018 104.648 50.6953 104.557 51.3886 104.557ZM51.1966 111.741C51.6233 111.741 52.002 111.645 52.3326 111.453C52.6633 111.25 52.898 110.957 53.0366 110.573V109.693H51.3246C50.3006 109.693 49.7886 110.029 49.7886 110.701C49.7886 111.021 49.9113 111.277 50.1566 111.469C50.4126 111.65 50.7593 111.741 51.1966 111.741ZM66.7654 104.685V111.853C66.7654 113.432 66.3547 114.605 65.5334 115.373C64.7121 116.141 63.5121 116.525 61.9334 116.525C61.1014 116.525 60.3121 116.424 59.5654 116.221C58.8187 116.018 58.2001 115.725 57.7094 115.341L58.7014 113.549C59.0641 113.848 59.5227 114.082 60.0774 114.253C60.6321 114.434 61.1867 114.525 61.7414 114.525C62.6054 114.525 63.2401 114.328 63.6454 113.933C64.0614 113.549 64.2694 112.962 64.2694 112.173V111.805C63.6187 112.52 62.7121 112.877 61.5494 112.877C60.7601 112.877 60.0347 112.706 59.3734 112.365C58.7227 112.013 58.2054 111.522 57.8214 110.893C57.4374 110.264 57.2454 109.538 57.2454 108.717C57.2454 107.896 57.4374 107.17 57.8214 106.541C58.2054 105.912 58.7227 105.426 59.3734 105.085C60.0347 104.733 60.7601 104.557 61.5494 104.557C62.7974 104.557 63.7467 104.968 64.3974 105.789V104.685H66.7654ZM62.0454 110.829C62.7067 110.829 63.2454 110.637 63.6614 110.253C64.0881 109.858 64.3014 109.346 64.3014 108.717C64.3014 108.088 64.0881 107.581 63.6614 107.197C63.2454 106.802 62.7067 106.605 62.0454 106.605C61.3841 106.605 60.8401 106.802 60.4134 107.197C59.9867 107.581 59.7734 108.088 59.7734 108.717C59.7734 109.346 59.9867 109.858 60.4134 110.253C60.8401 110.637 61.3841 110.829 62.0454 110.829ZM77.7605 104.685V113.293H75.3925V112.269C75.0618 112.642 74.6672 112.93 74.2085 113.133C73.7498 113.325 73.2538 113.421 72.7205 113.421C71.5898 113.421 70.6938 113.096 70.0325 112.445C69.3712 111.794 69.0405 110.829 69.0405 109.549V104.685H71.5365V109.181C71.5365 110.568 72.1178 111.261 73.2805 111.261C73.8778 111.261 74.3578 111.069 74.7205 110.685C75.0832 110.29 75.2645 109.709 75.2645 108.941V104.685H77.7605ZM85.3049 104.557C86.3716 104.557 87.2302 104.877 87.8809 105.517C88.5422 106.157 88.8729 107.106 88.8729 108.365V113.293H86.3769V108.749C86.3769 108.066 86.2276 107.56 85.9289 107.229C85.6302 106.888 85.1982 106.717 84.6329 106.717C84.0036 106.717 83.5022 106.914 83.1289 107.309C82.7556 107.693 82.5689 108.269 82.5689 109.037V113.293H80.0729V104.685H82.4569V105.693C82.7876 105.33 83.1982 105.053 83.6889 104.861C84.1796 104.658 84.7182 104.557 85.3049 104.557ZM94.6074 104.557C95.9407 104.557 96.9647 104.877 97.6794 105.517C98.3941 106.146 98.7514 107.101 98.7514 108.381V113.293H96.4154V112.221C95.9461 113.021 95.0714 113.421 93.7914 113.421C93.1301 113.421 92.5541 113.309 92.0634 113.085C91.5834 112.861 91.2154 112.552 90.9594 112.157C90.7034 111.762 90.5754 111.314 90.5754 110.813C90.5754 110.013 90.8741 109.384 91.4714 108.925C92.0794 108.466 93.0127 108.237 94.2714 108.237H96.2554C96.2554 107.693 96.0901 107.277 95.7594 106.989C95.4287 106.69 94.9327 106.541 94.2714 106.541C93.8127 106.541 93.3594 106.616 92.9114 106.765C92.4741 106.904 92.1007 107.096 91.7914 107.341L90.8954 105.597C91.3647 105.266 91.9247 105.01 92.5754 104.829C93.2367 104.648 93.9141 104.557 94.6074 104.557ZM94.4154 111.741C94.8421 111.741 95.2207 111.645 95.5514 111.453C95.8821 111.25 96.1167 110.957 96.2554 110.573V109.693H94.5434C93.5194 109.693 93.0074 110.029 93.0074 110.701C93.0074 111.021 93.1301 111.277 93.3754 111.469C93.6314 111.65 93.9781 111.741 94.4154 111.741ZM7.99889 120.093H10.5909V131.293H7.99889V120.093ZM18.3049 122.557C19.3716 122.557 20.2302 122.877 20.8809 123.517C21.5422 124.157 21.8729 125.106 21.8729 126.365V131.293H19.3769V126.749C19.3769 126.066 19.2276 125.56 18.9289 125.229C18.6302 124.888 18.1982 124.717 17.6329 124.717C17.0036 124.717 16.5022 124.914 16.1289 125.309C15.7556 125.693 15.5689 126.269 15.5689 127.037V131.293H13.0729V122.685H15.4569V123.693C15.7876 123.33 16.1982 123.053 16.6889 122.861C17.1796 122.658 17.7182 122.557 18.3049 122.557ZM32.9971 119.421V131.293H30.6131V130.301C29.9945 131.048 29.0985 131.421 27.9251 131.421C27.1145 131.421 26.3785 131.24 25.7171 130.877C25.0665 130.514 24.5545 129.997 24.1811 129.325C23.8078 128.653 23.6211 127.874 23.6211 126.989C23.6211 126.104 23.8078 125.325 24.1811 124.653C24.5545 123.981 25.0665 123.464 25.7171 123.101C26.3785 122.738 27.1145 122.557 27.9251 122.557C29.0238 122.557 29.8825 122.904 30.5011 123.597V119.421H32.9971ZM28.3571 129.373C28.9865 129.373 29.5091 129.16 29.9251 128.733C30.3411 128.296 30.5491 127.714 30.5491 126.989C30.5491 126.264 30.3411 125.688 29.9251 125.261C29.5091 124.824 28.9865 124.605 28.3571 124.605C27.7171 124.605 27.1891 124.824 26.7731 125.261C26.3571 125.688 26.1491 126.264 26.1491 126.989C26.1491 127.714 26.3571 128.296 26.7731 128.733C27.1891 129.16 27.7171 129.373 28.3571 129.373ZM43.9793 122.685V131.293H41.6113V130.269C41.2806 130.642 40.8859 130.93 40.4273 131.133C39.9686 131.325 39.4726 131.421 38.9393 131.421C37.8086 131.421 36.9126 131.096 36.2513 130.445C35.5899 129.794 35.2593 128.829 35.2593 127.549V122.685H37.7553V127.181C37.7553 128.568 38.3366 129.261 39.4993 129.261C40.0966 129.261 40.5766 129.069 40.9393 128.685C41.3019 128.29 41.4833 127.709 41.4833 126.941V122.685H43.9793ZM49.1876 131.421C48.473 131.421 47.7743 131.336 47.0916 131.165C46.409 130.984 45.865 130.76 45.4596 130.493L46.2916 128.701C46.6756 128.946 47.1396 129.149 47.6836 129.309C48.2276 129.458 48.761 129.533 49.2836 129.533C50.3396 129.533 50.8676 129.272 50.8676 128.749C50.8676 128.504 50.7236 128.328 50.4356 128.221C50.1476 128.114 49.705 128.024 49.1076 127.949C48.4036 127.842 47.8223 127.72 47.3636 127.581C46.905 127.442 46.505 127.197 46.1636 126.845C45.833 126.493 45.6676 125.992 45.6676 125.341C45.6676 124.797 45.8223 124.317 46.1316 123.901C46.4516 123.474 46.9103 123.144 47.5076 122.909C48.1156 122.674 48.8303 122.557 49.6516 122.557C50.2596 122.557 50.8623 122.626 51.4596 122.765C52.0676 122.893 52.569 123.074 52.9636 123.309L52.1316 125.085C51.3743 124.658 50.5476 124.445 49.6516 124.445C49.1183 124.445 48.7183 124.52 48.4516 124.669C48.185 124.818 48.0516 125.01 48.0516 125.245C48.0516 125.512 48.1956 125.698 48.4836 125.805C48.7716 125.912 49.2303 126.013 49.8596 126.109C50.5636 126.226 51.1396 126.354 51.5876 126.493C52.0356 126.621 52.425 126.861 52.7556 127.213C53.0863 127.565 53.2516 128.056 53.2516 128.685C53.2516 129.218 53.0916 129.693 52.7716 130.109C52.4516 130.525 51.9823 130.85 51.3636 131.085C50.7556 131.309 50.0303 131.421 49.1876 131.421ZM60.3436 130.877C60.0983 131.058 59.7943 131.197 59.4316 131.293C59.0796 131.378 58.7063 131.421 58.3116 131.421C57.2876 131.421 56.493 131.16 55.9276 130.637C55.373 130.114 55.0956 129.346 55.0956 128.333V124.797H53.7676V122.877H55.0956V120.781H57.5916V122.877H59.7356V124.797H57.5916V128.301C57.5916 128.664 57.6823 128.946 57.8636 129.149C58.0556 129.341 58.3223 129.437 58.6636 129.437C59.0583 129.437 59.3943 129.33 59.6716 129.117L60.3436 130.877ZM64.1288 123.821C64.4274 123.405 64.8274 123.09 65.3288 122.877C65.8408 122.664 66.4274 122.557 67.0888 122.557V124.861C66.8114 124.84 66.6248 124.829 66.5288 124.829C65.8141 124.829 65.2541 125.032 64.8488 125.437C64.4434 125.832 64.2408 126.429 64.2408 127.229V131.293H61.7448V122.685H64.1288V123.821ZM68.5729 122.685H71.0689V131.293H68.5729V122.685ZM69.8209 121.485C69.3622 121.485 68.9889 121.352 68.7009 121.085C68.4129 120.818 68.2689 120.488 68.2689 120.093C68.2689 119.698 68.4129 119.368 68.7009 119.101C68.9889 118.834 69.3622 118.701 69.8209 118.701C70.2796 118.701 70.6529 118.829 70.9409 119.085C71.2289 119.341 71.3729 119.661 71.3729 120.045C71.3729 120.461 71.2289 120.808 70.9409 121.085C70.6529 121.352 70.2796 121.485 69.8209 121.485ZM76.8574 122.557C78.1907 122.557 79.2147 122.877 79.9294 123.517C80.6441 124.146 81.0014 125.101 81.0014 126.381V131.293H78.6654V130.221C78.1961 131.021 77.3214 131.421 76.0414 131.421C75.3801 131.421 74.8041 131.309 74.3134 131.085C73.8334 130.861 73.4654 130.552 73.2094 130.157C72.9534 129.762 72.8254 129.314 72.8254 128.813C72.8254 128.013 73.1241 127.384 73.7214 126.925C74.3294 126.466 75.2627 126.237 76.5214 126.237H78.5054C78.5054 125.693 78.3401 125.277 78.0094 124.989C77.6787 124.69 77.1827 124.541 76.5214 124.541C76.0627 124.541 75.6094 124.616 75.1614 124.765C74.7241 124.904 74.3507 125.096 74.0414 125.341L73.1454 123.597C73.6147 123.266 74.1747 123.01 74.8254 122.829C75.4867 122.648 76.1641 122.557 76.8574 122.557ZM76.6654 129.741C77.0921 129.741 77.4707 129.645 77.8014 129.453C78.1321 129.25 78.3667 128.957 78.5054 128.573V127.693H76.7934C75.7694 127.693 75.2574 128.029 75.2574 128.701C75.2574 129.021 75.3801 129.277 75.6254 129.469C75.8814 129.65 76.2281 129.741 76.6654 129.741ZM83.2604 119.421H85.7564V131.293H83.2604V119.421ZM97.6281 120.093C98.6201 120.093 99.4788 120.258 100.204 120.589C100.94 120.92 101.505 121.389 101.9 121.997C102.295 122.605 102.492 123.325 102.492 124.157C102.492 124.978 102.295 125.698 101.9 126.317C101.505 126.925 100.94 127.394 100.204 127.725C99.4788 128.045 98.6201 128.205 97.6281 128.205H95.3721V131.293H92.7801V120.093H97.6281ZM97.4841 126.093C98.2628 126.093 98.8548 125.928 99.2601 125.597C99.6655 125.256 99.8681 124.776 99.8681 124.157C99.8681 123.528 99.6655 123.048 99.2601 122.717C98.8548 122.376 98.2628 122.205 97.4841 122.205H95.3721V126.093H97.4841ZM107.561 122.557C108.894 122.557 109.918 122.877 110.633 123.517C111.347 124.146 111.705 125.101 111.705 126.381V131.293H109.369V130.221C108.899 131.021 108.025 131.421 106.745 131.421C106.083 131.421 105.507 131.309 105.017 131.085C104.537 130.861 104.169 130.552 103.913 130.157C103.657 129.762 103.529 129.314 103.529 128.813C103.529 128.013 103.827 127.384 104.425 126.925C105.033 126.466 105.966 126.237 107.225 126.237H109.209C109.209 125.693 109.043 125.277 108.713 124.989C108.382 124.69 107.886 124.541 107.225 124.541C106.766 124.541 106.313 124.616 105.865 124.765C105.427 124.904 105.054 125.096 104.745 125.341L103.849 123.597C104.318 123.266 104.878 123.01 105.529 122.829C106.19 122.648 106.867 122.557 107.561 122.557ZM107.369 129.741C107.795 129.741 108.174 129.645 108.505 129.453C108.835 129.25 109.07 128.957 109.209 128.573V127.693H107.497C106.473 127.693 105.961 128.029 105.961 128.701C105.961 129.021 106.083 129.277 106.329 129.469C106.585 129.65 106.931 129.741 107.369 129.741ZM116.348 123.821C116.646 123.405 117.046 123.09 117.548 122.877C118.06 122.664 118.646 122.557 119.308 122.557V124.861C119.03 124.84 118.844 124.829 118.748 124.829C118.033 124.829 117.473 125.032 117.068 125.437C116.662 125.832 116.46 126.429 116.46 127.229V131.293H113.964V122.685H116.348V123.821ZM124.488 127.917L123.288 129.101V131.293H120.792V119.421H123.288V126.141L126.936 122.685H129.912L126.328 126.333L130.232 131.293H127.208L124.488 127.917Z" fill="#00394C"/>
<path d="M85.0528 61.9417L84.977 61.8635V56.0306L92.392 57.7651L85.0528 61.9417ZM94.8659 56.3572L84.977 54.0441V46.7261L103.98 51.171L94.8659 56.3574V56.3572ZM106.454 49.7633L84.977 44.7396V37.5664L115.863 44.408L106.454 49.7633Z" fill="#139B47"/>
<path d="M55.205 92.9123V54.2539L63.6431 55.9939V84.1535L55.205 92.9123ZM66.0312 81.6745V56.4865L75.106 58.3576V72.2543L66.0312 81.6745ZM77.4942 69.7757V58.8504L83.2067 60.0279L85.0457 61.9363L77.4942 69.7754V69.7757Z" fill="#00394C"/>
<path d="M84.977 61.9407L77.4942 54.1763V7.76727L84.977 0V61.9407ZM74.9469 51.5331L66.0312 42.2816V19.6662L74.9469 10.4115V51.5324V51.5331ZM63.6431 39.8029L55.1361 30.9755L63.6431 22.1451V39.8029Z" fill="#00394C"/>
<path d="M84.977 61.9391L24.3187 48.5025L32.8172 43.6663L77.4213 54.0997L84.977 61.9391ZM74.9497 51.535L35.291 42.2583L44.2038 37.1862L66.0451 42.295L74.9493 51.5342L74.9497 51.535ZM63.5734 39.7308L46.6783 35.7788L55.1293 30.9688L63.5729 39.73L63.5734 39.7308Z" fill="#139B47"/>
</svg>
